M48
INCH
VER,1
FMAT,2
T1C0.1250
T2C0.0200
T3C0.0370
%
G05
T2
X0.1188Y6.1898
X0.1188Y4.9836
X1.6000Y3.5149
X0.4188Y3.4398
X1.0875Y3.4086
X2.8125Y3.4024
X2.9125Y3.4024
X3.0000Y3.3649
X3.0563Y3.3649
X3.1313Y3.3648
X3.1875Y3.3648
X3.0938Y3.3211
X1.6000Y3.2336
X0.8875Y3.2273
X2.8125Y3.2086
X3.1313Y3.1961
X2.5625Y3.1773
X3.0938Y3.1523
X3.1625Y3.1399
X3.0000Y3.1023
X3.0563Y3.1023
X1.0188Y3.0836
X1.2750Y3.0836
X1.7688Y3.0274
X0.5563Y2.9836
X1.5688Y2.8711
X2.1188Y2.7898
X1.4750Y2.7461
X0.6562Y2.7336
X0.7438Y2.7336
X2.9938Y2.7273
X3.1688Y2.7273
X2.9125Y2.6336
X1.0500Y2.5836
X1.2500Y2.5836
X2.7063Y2.5711
X0.6562Y2.4836
X1.5438Y2.4336
X2.3687Y2.4273
X1.0500Y2.3836
X1.2500Y2.3836
X1.0500Y2.1836
X1.2500Y2.1836
X0.6500Y2.1836
X2.7125Y2.1399
X0.7438Y2.0836
X1.0000Y2.0836
X2.7563Y2.0836
X1.3250Y2.0523
X0.6875Y1.9898
X1.0375Y1.9836
X1.3250Y1.9836
X0.6250Y1.9336
X1.7688Y1.8148
X0.9938Y1.7649
X0.6813Y1.7336
X1.0375Y1.7336
X1.6125Y1.6836
X1.3250Y1.6648
X1.8250Y1.6586
X3.1688Y1.6461
X2.8063Y1.6461
X2.8563Y1.6023
X2.4500Y1.5899
X2.9813Y1.5899
X1.6125Y1.5711
X1.5688Y1.4836
X2.7188Y1.4336
X1.5125Y1.3899
X2.0375Y1.3836
X1.6562Y1.3711
X1.4875Y1.3336
X1.9750Y1.3336
X2.7188Y1.2836
X1.5625Y1.2336
X2.0375Y1.2336
X1.3063Y1.2336
X1.4875Y1.1836
X1.9750Y1.1836
X1.3063Y1.1336
X1.6063Y1.1336
X1.9875Y1.0836
X1.6500Y1.0336
X1.9375Y0.9836
X2.8063Y0.9836
X1.9375Y0.8836
X2.8563Y0.7961
X0.4188Y0.3336
T3
X0.2313Y6.3336
X0.3313Y6.3336
X0.4313Y6.3336
X0.5312Y6.3336
X0.6313Y6.3336
X0.7313Y6.3336
X0.8313Y6.3336
X0.9313Y6.3336
X1.0312Y6.3336
X1.1312Y6.3336
X1.2312Y6.3336
X1.3312Y6.3336
X1.4312Y6.3336
X1.5312Y6.3336
X1.6313Y6.3336
X1.7313Y6.3336
X1.8312Y6.3336
X1.9312Y6.3336
X2.0312Y6.3336
X2.1312Y6.3336
X2.2313Y6.3336
X2.3312Y6.3336
X2.4312Y6.3336
X2.5312Y6.3336
X2.6312Y6.3336
X2.7312Y6.3336
X2.8312Y6.3336
X2.9312Y6.3336
X3.0312Y6.3336
X3.1313Y6.3336
X0.2313Y6.2336
X0.3313Y6.2336
X0.4313Y6.2336
X0.5312Y6.2336
X0.6313Y6.2336
X0.7313Y6.2336
X0.8313Y6.2336
X0.9313Y6.2336
X1.0312Y6.2336
X1.1312Y6.2336
X1.2312Y6.2336
X1.3312Y6.2336
X1.4312Y6.2336
X1.5312Y6.2336
X1.6313Y6.2336
X1.7313Y6.2336
X1.8312Y6.2336
X1.9312Y6.2336
X2.0312Y6.2336
X2.1312Y6.2336
X2.2313Y6.2336
X2.3312Y6.2336
X2.4312Y6.2336
X2.5312Y6.2336
X2.6312Y6.2336
X2.7312Y6.2336
X2.8312Y6.2336
X2.9312Y6.2336
X3.0312Y6.2336
X3.1313Y6.2336
X0.2313Y6.1336
X0.3313Y6.1336
X0.4313Y6.1336
X0.5312Y6.1336
X0.6313Y6.1336
X0.7313Y6.1336
X0.8313Y6.1336
X0.9313Y6.1336
X1.0312Y6.1336
X1.1312Y6.1336
X1.2312Y6.1336
X1.3312Y6.1336
X1.4312Y6.1336
X1.5312Y6.1336
X1.6313Y6.1336
X1.7313Y6.1336
X1.8312Y6.1336
X1.9312Y6.1336
X2.0312Y6.1336
X2.1312Y6.1336
X2.2313Y6.1336
X2.3312Y6.1336
X2.4312Y6.1336
X2.5312Y6.1336
X2.6312Y6.1336
X2.7312Y6.1336
X2.8312Y6.1336
X2.9312Y6.1336
X3.0312Y6.1336
X3.1313Y6.1336
X0.2313Y6.0336
X0.3313Y6.0336
X0.4313Y6.0336
X0.5312Y6.0336
X0.6313Y6.0336
X0.7313Y6.0336
X0.8313Y6.0336
X0.9313Y6.0336
X1.0312Y6.0336
X1.1312Y6.0336
X1.2312Y6.0336
X1.3312Y6.0336
X1.4312Y6.0336
X1.5312Y6.0336
X1.6313Y6.0336
X1.7313Y6.0336
X1.8312Y6.0336
X1.9312Y6.0336
X2.0312Y6.0336
X2.1312Y6.0336
X2.2313Y6.0336
X2.3312Y6.0336
X2.4312Y6.0336
X2.5312Y6.0336
X2.6312Y6.0336
X2.7312Y6.0336
X2.8312Y6.0336
X2.9312Y6.0336
X3.0312Y6.0336
X3.1313Y6.0336
X0.2313Y5.9336
X0.3313Y5.9336
X0.4313Y5.9336
X0.5312Y5.9336
X0.6313Y5.9336
X0.7313Y5.9336
X0.8313Y5.9336
X0.9313Y5.9336
X1.0312Y5.9336
X1.1312Y5.9336
X1.2312Y5.9336
X1.3312Y5.9336
X1.4312Y5.9336
X1.5312Y5.9336
X1.6313Y5.9336
X1.7313Y5.9336
X1.8312Y5.9336
X1.9312Y5.9336
X2.0312Y5.9336
X2.1312Y5.9336
X2.2313Y5.9336
X2.3312Y5.9336
X2.4312Y5.9336
X2.5312Y5.9336
X2.6312Y5.9336
X2.7312Y5.9336
X2.8312Y5.9336
X2.9312Y5.9336
X3.0312Y5.9336
X3.1313Y5.9336
X0.2313Y5.8336
X0.3313Y5.8336
X0.4313Y5.8336
X0.5312Y5.8336
X0.6313Y5.8336
X0.7313Y5.8336
X0.8313Y5.8336
X0.9313Y5.8336
X1.0312Y5.8336
X1.1312Y5.8336
X1.2312Y5.8336
X1.3312Y5.8336
X1.4312Y5.8336
X1.5312Y5.8336
X1.6313Y5.8336
X1.7313Y5.8336
X1.8312Y5.8336
X1.9312Y5.8336
X2.0312Y5.8336
X2.1312Y5.8336
X2.2313Y5.8336
X2.3312Y5.8336
X2.4312Y5.8336
X2.5312Y5.8336
X2.6312Y5.8336
X2.7312Y5.8336
X2.8312Y5.8336
X2.9312Y5.8336
X3.0312Y5.8336
X3.1313Y5.8336
X0.2313Y5.7336
X0.3313Y5.7336
X0.4313Y5.7336
X0.5312Y5.7336
X0.6313Y5.7336
X0.7313Y5.7336
X0.8313Y5.7336
X0.9313Y5.7336
X1.0312Y5.7336
X1.1312Y5.7336
X1.2312Y5.7336
X1.3312Y5.7336
X1.4312Y5.7336
X1.5312Y5.7336
X1.6313Y5.7336
X1.7313Y5.7336
X1.8312Y5.7336
X1.9312Y5.7336
X2.0312Y5.7336
X2.1312Y5.7336
X2.2313Y5.7336
X2.3312Y5.7336
X2.4312Y5.7336
X2.5312Y5.7336
X2.6312Y5.7336
X2.7312Y5.7336
X2.8312Y5.7336
X2.9312Y5.7336
X3.0312Y5.7336
X3.1313Y5.7336
X0.2313Y5.6336
X0.3313Y5.6336
X0.4313Y5.6336
X0.5312Y5.6336
X0.6313Y5.6336
X0.7313Y5.6336
X0.8313Y5.6336
X0.9313Y5.6336
X1.0312Y5.6336
X1.1312Y5.6336
X1.2312Y5.6336
X1.3312Y5.6336
X1.4312Y5.6336
X1.5312Y5.6336
X1.6313Y5.6336
X1.7313Y5.6336
X1.8312Y5.6336
X1.9312Y5.6336
X2.0312Y5.6336
X2.1312Y5.6336
X2.2313Y5.6336
X2.3312Y5.6336
X2.4312Y5.6336
X2.5312Y5.6336
X2.6312Y5.6336
X2.7312Y5.6336
X2.8312Y5.6336
X2.9312Y5.6336
X3.0312Y5.6336
X3.1313Y5.6336
X0.2313Y5.5336
X0.3313Y5.5336
X0.4313Y5.5336
X0.5312Y5.5336
X0.6313Y5.5336
X0.7313Y5.5336
X0.8313Y5.5336
X0.9313Y5.5336
X1.0312Y5.5336
X1.1312Y5.5336
X1.2312Y5.5336
X1.3312Y5.5336
X1.4312Y5.5336
X1.5312Y5.5336
X1.6313Y5.5336
X1.7313Y5.5336
X1.8312Y5.5336
X1.9312Y5.5336
X2.0312Y5.5336
X2.1312Y5.5336
X2.2313Y5.5336
X2.3312Y5.5336
X2.4312Y5.5336
X2.5312Y5.5336
X2.6312Y5.5336
X2.7312Y5.5336
X2.8312Y5.5336
X2.9312Y5.5336
X3.0312Y5.5336
X3.1313Y5.5336
X0.2313Y5.4336
X0.3313Y5.4336
X0.4313Y5.4336
X0.5312Y5.4336
X0.6313Y5.4336
X0.7313Y5.4336
X0.8313Y5.4336
X0.9313Y5.4336
X1.0312Y5.4336
X1.1312Y5.4336
X1.2312Y5.4336
X1.3312Y5.4336
X1.4312Y5.4336
X1.5312Y5.4336
X1.6313Y5.4336
X1.7313Y5.4336
X1.8312Y5.4336
X1.9312Y5.4336
X2.0312Y5.4336
X2.1312Y5.4336
X2.2313Y5.4336
X2.3312Y5.4336
X2.4312Y5.4336
X2.5312Y5.4336
X2.6312Y5.4336
X2.7312Y5.4336
X2.8312Y5.4336
X2.9312Y5.4336
X3.0312Y5.4336
X3.1313Y5.4336
X0.2313Y5.3336
X0.3313Y5.3336
X0.4313Y5.3336
X0.5312Y5.3336
X0.6313Y5.3336
X0.7313Y5.3336
X0.8313Y5.3336
X0.9313Y5.3336
X1.0312Y5.3336
X1.1312Y5.3336
X1.2312Y5.3336
X1.3312Y5.3336
X1.4312Y5.3336
X1.5312Y5.3336
X1.6313Y5.3336
X1.7313Y5.3336
X1.8312Y5.3336
X1.9312Y5.3336
X2.0312Y5.3336
X2.1312Y5.3336
X2.2313Y5.3336
X2.3312Y5.3336
X2.4312Y5.3336
X2.5312Y5.3336
X2.6312Y5.3336
X2.7312Y5.3336
X2.8312Y5.3336
X2.9312Y5.3336
X3.0312Y5.3336
X3.1313Y5.3336
X0.2313Y5.2336
X0.3313Y5.2336
X0.4313Y5.2336
X0.5312Y5.2336
X0.6313Y5.2336
X0.7313Y5.2336
X0.8313Y5.2336
X0.9313Y5.2336
X1.0312Y5.2336
X1.1312Y5.2336
X1.2312Y5.2336
X1.3312Y5.2336
X1.4312Y5.2336
X1.5312Y5.2336
X1.6313Y5.2336
X1.7313Y5.2336
X1.8312Y5.2336
X1.9312Y5.2336
X2.0312Y5.2336
X2.1312Y5.2336
X2.2313Y5.2336
X2.3312Y5.2336
X2.4312Y5.2336
X2.5312Y5.2336
X2.6312Y5.2336
X2.7312Y5.2336
X2.8312Y5.2336
X2.9312Y5.2336
X3.0312Y5.2336
X3.1313Y5.2336
X0.2313Y5.1336
X0.3313Y5.1336
X0.4313Y5.1336
X0.5312Y5.1336
X0.6313Y5.1336
X0.7313Y5.1336
X0.8313Y5.1336
X0.9313Y5.1336
X1.0312Y5.1336
X1.1312Y5.1336
X1.2312Y5.1336
X1.3312Y5.1336
X1.4312Y5.1336
X1.5312Y5.1336
X1.6313Y5.1336
X1.7313Y5.1336
X1.8312Y5.1336
X1.9312Y5.1336
X2.0312Y5.1336
X2.1312Y5.1336
X2.2313Y5.1336
X2.3312Y5.1336
X2.4312Y5.1336
X2.5312Y5.1336
X2.6312Y5.1336
X2.7312Y5.1336
X2.8312Y5.1336
X2.9312Y5.1336
X3.0312Y5.1336
X3.1313Y5.1336
X0.2313Y5.0336
X0.3313Y5.0336
X0.4313Y5.0336
X0.5312Y5.0336
X0.6313Y5.0336
X0.7313Y5.0336
X0.8313Y5.0336
X0.9313Y5.0336
X1.0312Y5.0336
X1.1312Y5.0336
X1.2312Y5.0336
X1.3312Y5.0336
X1.4312Y5.0336
X1.5312Y5.0336
X1.6313Y5.0336
X1.7313Y5.0336
X1.8312Y5.0336
X1.9312Y5.0336
X2.0312Y5.0336
X2.1312Y5.0336
X2.2313Y5.0336
X2.3312Y5.0336
X2.4312Y5.0336
X2.5312Y5.0336
X2.6312Y5.0336
X2.7312Y5.0336
X2.8312Y5.0336
X2.9312Y5.0336
X3.0312Y5.0336
X3.1313Y5.0336
X0.2313Y4.9336
X0.3313Y4.9336
X0.4313Y4.9336
X0.5312Y4.9336
X0.6313Y4.9336
X0.7313Y4.9336
X0.8313Y4.9336
X0.9313Y4.9336
X1.0312Y4.9336
X1.1312Y4.9336
X1.2312Y4.9336
X1.3312Y4.9336
X1.4312Y4.9336
X1.5312Y4.9336
X1.6313Y4.9336
X1.7313Y4.9336
X1.8312Y4.9336
X1.9312Y4.9336
X2.0312Y4.9336
X2.1312Y4.9336
X2.2313Y4.9336
X2.3312Y4.9336
X2.4312Y4.9336
X2.5312Y4.9336
X2.6312Y4.9336
X2.7312Y4.9336
X2.8312Y4.9336
X2.9312Y4.9336
X3.0312Y4.9336
X3.1313Y4.9336
X0.2313Y4.8336
X0.3313Y4.8336
X0.4313Y4.8336
X0.5312Y4.8336
X0.6313Y4.8336
X0.7313Y4.8336
X0.8313Y4.8336
X0.9313Y4.8336
X1.0312Y4.8336
X1.1312Y4.8336
X1.2312Y4.8336
X1.3312Y4.8336
X1.4312Y4.8336
X1.5312Y4.8336
X1.6313Y4.8336
X1.7313Y4.8336
X1.8312Y4.8336
X1.9312Y4.8336
X2.0312Y4.8336
X2.1312Y4.8336
X2.2313Y4.8336
X2.3312Y4.8336
X2.4312Y4.8336
X2.5312Y4.8336
X2.6312Y4.8336
X2.7312Y4.8336
X2.8312Y4.8336
X2.9312Y4.8336
X3.0312Y4.8336
X3.1313Y4.8336
X0.1813Y4.6524
X0.2812Y4.6524
X0.3813Y4.6524
X0.1813Y4.5524
X0.2812Y4.5524
X0.3813Y4.5524
X0.7812Y4.5524
X0.9062Y4.5524
X2.2625Y4.5524
X2.3625Y4.5524
X2.6625Y4.5524
X2.7625Y4.5524
X1.3625Y4.5523
X1.4625Y4.5523
X1.5625Y4.5523
X1.6625Y4.5523
X1.7625Y4.5523
X2.0625Y4.5523
X2.1625Y4.5523
X2.5625Y4.5523
X1.8625Y4.5523
X1.9625Y4.5523
X2.4625Y4.5523
X3.1250Y4.4336
X1.5625Y4.4274
X2.1625Y4.4274
X2.2625Y4.4274
X2.4625Y4.4274
X2.5625Y4.4274
X2.6625Y4.4274
X2.7625Y4.4274
X1.3625Y4.4273
X1.4625Y4.4273
X1.6625Y4.4273
X1.7625Y4.4273
X1.8625Y4.4273
X1.9625Y4.4273
X2.0625Y4.4273
X2.3625Y4.4273
X3.1250Y4.3336
X3.1250Y4.2336
X0.7938Y4.1711
X3.1250Y4.1336
X0.7938Y4.0711
X3.1250Y3.9773
X3.1250Y3.8773
X1.4625Y3.8274
X1.5625Y3.8274
X1.6625Y3.8274
X1.7625Y3.8274
X1.8625Y3.8274
X1.9625Y3.8274
X2.0625Y3.8274
X2.1625Y3.8274
X2.2625Y3.8274
X2.3625Y3.8274
X2.4625Y3.8274
X2.5625Y3.8274
X2.6625Y3.8274
X2.7625Y3.8274
X1.3625Y3.8273
X3.1250Y3.7773
X2.4625Y3.7024
X2.5625Y3.7024
X1.3625Y3.7024
X1.4625Y3.7024
X1.5625Y3.7024
X1.6625Y3.7024
X1.7625Y3.7024
X1.8625Y3.7024
X1.9625Y3.7024
X2.0625Y3.7024
X2.1625Y3.7024
X2.2625Y3.7024
X2.3625Y3.7024
X2.6625Y3.7024
X2.7625Y3.7024
X3.1250Y3.6773
X0.9188Y3.6336
X1.0188Y3.6336
X3.1250Y3.5773
X0.9188Y3.5336
X1.0188Y3.5336
X3.1250Y3.4773
X1.4953Y3.4148
X1.6922Y3.4148
X2.1641Y3.4148
X2.3609Y3.4148
X1.7187Y3.2336
X1.8187Y3.2336
X1.9187Y3.2336
X2.0188Y3.2336
X2.3125Y3.2273
X2.4125Y3.2273
X2.5125Y3.2273
X0.1375Y3.1336
X0.2688Y3.1336
X1.1250Y3.1336
X1.4187Y3.1149
X1.5187Y3.1149
X1.6187Y3.1149
X1.7188Y3.1149
X1.8187Y3.1149
X1.9187Y3.1149
X2.0187Y3.1149
X2.2125Y3.1149
X2.3125Y3.1148
X2.4125Y3.1148
X2.5125Y3.1148
X2.6125Y3.1148
X2.7125Y3.1148
X2.8125Y3.1148
X2.9125Y3.1148
X0.1375Y3.0336
X0.2688Y3.0336
X1.1250Y3.0336
X0.1375Y2.9336
X0.2688Y2.9336
X1.1250Y2.9336
X1.4187Y2.9148
X1.5188Y2.9148
X1.6188Y2.9148
X1.7188Y2.9148
X2.4125Y2.9148
X2.5125Y2.9148
X2.2125Y2.9148
X0.8078Y2.8461
X1.0047Y2.8461
X0.1375Y2.8336
X0.2688Y2.8336
X1.1250Y2.8336
X1.4188Y2.8149
X1.5188Y2.8149
X1.6188Y2.8149
X1.7188Y2.8149
X1.8188Y2.8149
X1.9188Y2.8149
X2.0188Y2.8149
X2.3125Y2.8148
X2.4125Y2.8148
X2.5125Y2.8148
X2.6125Y2.8148
X2.7125Y2.8148
X2.8125Y2.8148
X2.9125Y2.8148
X2.2125Y2.8148
X0.1375Y2.7336
X0.2688Y2.7336
X1.1250Y2.7336
X1.2750Y2.6820
X2.5578Y2.6648
X2.7547Y2.6648
X0.1375Y2.6336
X0.2688Y2.6336
X1.1250Y2.6336
X1.7188Y2.6336
X2.2687Y2.6336
X1.4188Y2.6336
X1.9688Y2.6336
X0.8563Y2.5836
X0.5563Y2.5836
X0.1375Y2.5336
X0.2688Y2.5336
X1.1250Y2.5336
X1.7188Y2.5336
X2.2687Y2.5336
X2.8250Y2.5336
X1.4188Y2.5336
X1.9688Y2.5336
X2.5250Y2.5336
X1.2750Y2.4852
X0.5563Y2.4836
X0.8563Y2.4836
X0.9500Y2.4836
X0.1375Y2.4336
X0.2688Y2.4336
X1.1250Y2.4336
X1.4188Y2.4336
X1.7188Y2.4336
X1.8188Y2.4336
X1.9688Y2.4336
X2.2687Y2.4336
X2.5250Y2.4336
X2.8250Y2.4336
X0.8563Y2.3836
X0.5563Y2.3836
X0.9500Y2.3836
X0.1375Y2.3336
X0.2688Y2.3336
X1.1250Y2.3336
X1.7188Y2.3336
X1.8188Y2.3336
X2.2687Y2.3336
X2.8250Y2.3336
X1.4188Y2.3336
X1.9688Y2.3336
X2.5250Y2.3336
X2.3687Y2.3274
X0.5563Y2.2836
X0.8563Y2.2836
X0.9500Y2.2836
X0.1375Y2.2336
X0.2688Y2.2336
X1.1250Y2.2336
X1.4188Y2.2336
X1.7188Y2.2336
X1.8188Y2.2336
X1.9688Y2.2336
X2.2687Y2.2336
X2.5250Y2.2336
X2.6250Y2.2336
X2.8250Y2.2336
X2.3687Y2.2273
X0.8563Y2.1836
X0.5563Y2.1836
X0.1375Y2.1336
X0.2688Y2.1336
X1.1250Y2.1336
X1.7188Y2.1336
X1.8188Y2.1336
X2.2687Y2.1336
X2.6250Y2.1336
X2.8250Y2.1336
X1.4188Y2.1336
X1.9688Y2.1336
X2.5250Y2.1336
X2.9250Y2.1336
X2.3687Y2.1273
X0.5563Y2.0836
X0.8563Y2.0836
X0.1375Y2.0336
X0.2688Y2.0336
X1.1250Y2.0336
X1.4188Y2.0336
X1.7188Y2.0336
X1.8188Y2.0336
X1.9688Y2.0336
X2.2687Y2.0336
X2.5250Y2.0336
X2.6250Y2.0336
X2.8250Y2.0336
X2.9250Y2.0336
X2.3687Y2.0273
X0.8563Y1.9836
X0.5563Y1.9836
X0.1375Y1.9336
X0.2688Y1.9336
X1.1250Y1.9336
X1.4188Y1.9336
X1.7188Y1.9336
X1.8188Y1.9336
X1.9688Y1.9336
X2.2687Y1.9336
X2.5250Y1.9336
X2.8250Y1.9336
X2.9250Y1.9336
X2.3687Y1.9273
X0.7328Y1.8586
X0.9297Y1.8586
X0.1375Y1.8336
X0.2688Y1.8336
X1.1250Y1.8336
X0.1375Y1.7336
X0.2688Y1.7336
X0.5563Y1.7336
X0.8563Y1.7336
X1.1250Y1.7336
X1.5078Y1.7336
X1.7047Y1.7336
X1.9141Y1.7336
X2.1109Y1.7336
X2.3203Y1.7336
X2.5172Y1.7336
X2.6391Y1.7336
X2.8359Y1.7336
X0.1375Y1.6336
X0.2688Y1.6336
X0.5563Y1.6336
X0.9938Y1.6336
X1.1250Y1.6336
X0.8563Y1.6336
X0.9938Y1.5336
X1.7188Y1.5336
X2.1250Y1.5336
X2.5312Y1.5336
X2.9375Y1.5336
X0.1375Y1.5336
X0.2688Y1.5336
X0.5563Y1.5336
X0.8563Y1.5336
X1.1250Y1.5336
X1.4188Y1.5336
X1.8250Y1.5336
X2.2313Y1.5336
X2.6375Y1.5336
X0.1375Y1.4336
X0.2688Y1.4336
X0.5563Y1.4336
X0.8563Y1.4336
X0.9938Y1.4336
X1.1250Y1.4336
X1.4188Y1.4336
X1.7188Y1.4336
X1.8250Y1.4336
X2.1250Y1.4336
X2.2313Y1.4336
X2.5312Y1.4336
X2.6375Y1.4336
X2.9375Y1.4336
X0.1375Y1.3336
X0.2688Y1.3336
X0.9938Y1.3336
X1.1250Y1.3336
X1.7188Y1.3336
X2.1250Y1.3336
X2.5312Y1.3336
X2.9375Y1.3336
X0.5563Y1.3336
X0.8563Y1.3336
X1.4188Y1.3336
X1.8250Y1.3336
X2.2313Y1.3336
X2.6375Y1.3336
X1.7188Y1.2336
X2.1250Y1.2336
X2.5312Y1.2336
X2.9375Y1.2336
X0.1375Y1.2336
X0.2688Y1.2336
X0.5563Y1.2336
X0.8563Y1.2336
X0.9938Y1.2336
X1.1250Y1.2336
X1.4188Y1.2336
X1.8250Y1.2336
X2.2313Y1.2336
X2.6375Y1.2336
X0.1375Y1.1336
X0.2688Y1.1336
X0.9938Y1.1336
X1.1250Y1.1336
X1.7188Y1.1336
X2.1250Y1.1336
X2.5312Y1.1336
X2.9375Y1.1336
X0.5563Y1.1336
X0.8563Y1.1336
X1.4188Y1.1336
X1.8250Y1.1336
X2.2313Y1.1336
X2.6375Y1.1336
X1.7188Y1.0336
X2.1250Y1.0336
X2.5312Y1.0336
X2.9375Y1.0336
X0.1375Y1.0336
X0.2688Y1.0336
X0.5563Y1.0336
X0.8563Y1.0336
X0.9938Y1.0336
X1.1250Y1.0336
X1.4188Y1.0336
X1.8250Y1.0336
X2.2313Y1.0336
X2.6375Y1.0336
X0.1375Y0.9336
X0.2688Y0.9336
X0.5563Y0.9336
X0.9938Y0.9336
X1.1250Y0.9336
X1.4188Y0.9336
X1.7188Y0.9336
X1.8250Y0.9336
X2.1250Y0.9336
X2.2313Y0.9336
X2.5312Y0.9336
X2.6375Y0.9336
X2.9375Y0.9336
X0.8563Y0.9336
X0.1375Y0.8336
X0.2688Y0.8336
X0.9938Y0.8336
X1.1250Y0.8336
X1.7188Y0.8336
X2.1250Y0.8336
X2.5312Y0.8336
X2.9375Y0.8336
X0.5563Y0.8336
X0.8563Y0.8336
X1.4188Y0.8336
X1.8250Y0.8336
X2.2313Y0.8336
X2.6375Y0.8336
X0.1375Y0.7336
X0.2688Y0.7336
X1.1250Y0.7336
X0.1375Y0.6336
X0.2688Y0.6336
X1.1250Y0.6336
X1.4375Y0.6273
X1.5375Y0.6273
X1.6375Y0.6273
X1.7375Y0.6273
X1.8375Y0.6273
X1.9375Y0.6273
X2.0375Y0.6273
X2.1375Y0.6273
X2.2375Y0.6273
X2.3375Y0.6273
X2.4375Y0.6273
X2.5375Y0.6273
X2.6375Y0.6273
X2.7375Y0.6273
X2.8375Y0.6273
X2.9375Y0.6273
X0.7062Y0.5836
X0.1375Y0.5336
X0.2688Y0.5336
X1.1250Y0.5336
X1.4375Y0.5274
X1.5375Y0.5274
X1.6375Y0.5274
X1.7375Y0.5274
X1.8375Y0.5274
X1.9375Y0.5274
X2.0375Y0.5274
X2.1375Y0.5274
X2.2375Y0.5274
X2.3375Y0.5274
X2.4375Y0.5274
X2.5375Y0.5274
X2.6375Y0.5274
X2.7375Y0.5274
X2.8375Y0.5274
X2.9375Y0.5274
X0.7062Y0.4836
X0.1375Y0.4336
X0.2688Y0.4336
X1.1250Y0.4336
X1.4375Y0.4273
X1.5375Y0.4273
X1.6375Y0.4273
X1.7375Y0.4273
X1.8375Y0.4273
X1.9375Y0.4273
X2.0375Y0.4273
X2.1375Y0.4273
X2.2375Y0.4273
X2.3375Y0.4273
X2.4375Y0.4273
X2.5375Y0.4273
X2.6375Y0.4273
X2.7375Y0.4273
X2.8375Y0.4273
X2.9375Y0.4273
X0.1375Y0.3336
X0.2688Y0.3336
X1.1250Y0.3336
X1.4375Y0.3274
X1.5375Y0.3274
X1.6375Y0.3274
X1.7375Y0.3274
X1.8375Y0.3274
X1.9375Y0.3274
X2.0375Y0.3274
X2.1375Y0.3274
X2.2375Y0.3274
X2.3375Y0.3274
X2.4375Y0.3274
X2.5375Y0.3274
X2.6375Y0.3274
X2.7375Y0.3274
X2.8375Y0.3274
X2.9375Y0.3274
X0.1375Y0.2336
X0.2688Y0.2336
X1.1250Y0.2336
X1.4375Y0.2273
X1.5375Y0.2273
X1.6375Y0.2273
X1.7375Y0.2273
X1.8375Y0.2273
X1.9375Y0.2273
X2.0375Y0.2273
X2.1375Y0.2273
X2.2375Y0.2273
X2.3375Y0.2273
X2.4375Y0.2273
X2.5375Y0.2273
X2.6375Y0.2273
X2.7375Y0.2273
X2.8375Y0.2273
X2.9375Y0.2273
M30
