%FSLAX46Y46*%
%MOIN*%
G01*
G75*
%ADD10C,0.040000*%
%ADD11C,0.060000*%
%ADD12C,0.057000*%
%ADD13C,0.077000*%
%AMRECT14*21,1,0.057000,0.057000,0.0,0.0,0.000000*%
%ADD14RECT14*%
%AMRECT15*21,1,0.077000,0.077000,0.0,0.0,0.000000*%
%ADD15RECT15*%
%AMRECT16*21,1,0.057000,0.057000,0.0,0.0,-90.000000*%
%ADD16RECT16*%
%AMRECT17*21,1,0.077000,0.077000,0.0,0.0,-90.000000*%
%ADD17RECT17*%
%AMRECT18*21,1,0.057000,0.057000,0.0,0.0,-180.000000*%
%ADD18RECT18*%
%AMRECT19*21,1,0.077000,0.077000,0.0,0.0,-180.000000*%
%ADD19RECT19*%
%AMRECT20*21,1,0.057000,0.057000,0.0,0.0,-270.000000*%
%ADD20RECT20*%
%AMRECT21*21,1,0.077000,0.077000,0.0,0.0,-270.000000*%
%ADD21RECT21*%
%ADD22C,0.010000*%
%ADD23C,0.030000*%
%ADD24C,0.011000*%
%ADD25C,0.031000*%
%ADD26C,0.012500*%
%ADD27C,0.032500*%
%ADD28C,0.015000*%
%ADD29C,0.035000*%
%ADD30C,0.020000*%
%ADD31C,0.040000*%
%ADD32C,0.030000*%
%ADD33C,0.050000*%
%ADD34C,0.050000*%
%ADD35C,0.070000*%
%ADD36C,0.070000*%
%ADD37C,0.090000*%
D10*
X1050000Y2383600D03*
X1250000Y2383600D03*
X1050000Y2183600D03*
X1250000Y2583600D03*
X1250000Y2183600D03*
X1050000Y2583600D03*
X1018750Y3083600D03*
X1275000Y3083600D03*
X2981250Y1589850D03*
X2806250Y1646100D03*
X2812500Y3402350D03*
X1768750Y1814850D03*
X418750Y333600D03*
X1475000Y2746100D03*
X118750Y4983600D03*
X2718750Y1433600D03*
X1937500Y983600D03*
X2756250Y2083600D03*
X3168750Y2727350D03*
X3093750Y3152350D03*
X2856250Y1602350D03*
X1543750Y2433600D03*
X3162500Y3139850D03*
X2368750Y2427350D03*
X687500Y1989850D03*
X418750Y3439850D03*
X1768750Y3027350D03*
X3056250Y3364850D03*
X3168750Y1646100D03*
X2806250Y983600D03*
X743750Y2733600D03*
X1037500Y1983600D03*
X1656250Y1371100D03*
X1568750Y1483600D03*
X2812500Y3208600D03*
X1650000Y1033600D03*
X2562500Y3177350D03*
X1937500Y883600D03*
X1487500Y1333600D03*
X1325000Y2052350D03*
X993750Y1764850D03*
X2718750Y1283600D03*
X1037500Y1733600D03*
X1512500Y1389850D03*
X656250Y2483600D03*
X3131250Y3364850D03*
X2993750Y2727350D03*
X1975000Y1183600D03*
X2037500Y1383600D03*
X2706250Y2571100D03*
X681250Y1733600D03*
X1562500Y1233600D03*
X2118750Y2789850D03*
X2912500Y2633600D03*
X1306250Y1133600D03*
X3093750Y3321100D03*
X1600000Y3514850D03*
X3131250Y3196100D03*
X1568750Y2871100D03*
X625000Y1933600D03*
X650000Y2183600D03*
X1087500Y3408600D03*
X1825000Y1658600D03*
X1612500Y1571100D03*
X656250Y2733600D03*
X3056250Y3102350D03*
X1325000Y1983600D03*
X2450000Y1589850D03*
X2912500Y3402350D03*
X1975000Y1333600D03*
X3187500Y3364850D03*
X1325000Y1664850D03*
X556250Y2983600D03*
X743750Y2083600D03*
X1306250Y1233600D03*
X1000000Y2083600D03*
X887500Y3227350D03*
X2712500Y2139850D03*
X1612500Y1683600D03*
X2037500Y1233600D03*
X118750Y6189850D03*
X1600000Y3233600D03*
X1487500Y1183600D03*
X1987500Y1083600D03*
X1606250Y1133600D03*
X3000000Y3364850D03*
X3000000Y3102350D03*
X2856250Y796100D03*
D12*
X1818750Y1933600D03*
X950000Y2483600D03*
X2625000Y2233600D03*
X2368750Y1927350D03*
X1818750Y2233600D03*
X1818750Y2333600D03*
X2925000Y2033600D03*
X2625000Y2033600D03*
X2368750Y2127350D03*
X1818750Y2033600D03*
X1818750Y2133600D03*
X1818750Y2433600D03*
X2368750Y2327350D03*
X2925000Y1933600D03*
X2625000Y2133600D03*
X2368750Y2027350D03*
X2368750Y2227350D03*
X2925000Y2133600D03*
X950000Y2283600D03*
X950000Y2383600D03*
X1718750Y3233600D03*
X1418750Y2914850D03*
X1818750Y3233600D03*
X2512500Y2914850D03*
X1618750Y2914850D03*
X1518750Y2914850D03*
X1918750Y3233600D03*
X1718750Y2914850D03*
X2412500Y2914850D03*
X2412500Y3227350D03*
X2512500Y3227350D03*
X2312500Y3227350D03*
X2212500Y2914850D03*
X2131250Y5433600D03*
X2231250Y6233600D03*
X1131250Y5333600D03*
X231250Y6133600D03*
X1131250Y5033600D03*
X2031250Y5633600D03*
X3131250Y5633600D03*
X3031250Y5533600D03*
X2831250Y6033600D03*
X1931250Y5333600D03*
X137500Y1133600D03*
X2731250Y5233600D03*
X831250Y6033600D03*
X631250Y5233600D03*
X1331250Y5133600D03*
X1718750Y1033600D03*
X1125000Y733600D03*
X1431250Y6233600D03*
X1718750Y2533600D03*
X268750Y833600D03*
X1431250Y5533600D03*
X918750Y3533600D03*
X1831250Y5433600D03*
X2231250Y5633600D03*
X831250Y5433600D03*
X1125000Y2833600D03*
X2268750Y2233600D03*
X993750Y1333600D03*
X2031250Y5933600D03*
X268750Y2133600D03*
X2931250Y5233600D03*
X2831250Y4933600D03*
X268750Y1133600D03*
X1125000Y333600D03*
X231250Y5233600D03*
X2937500Y1333600D03*
X2631250Y5033600D03*
X2631250Y5533600D03*
X3031250Y5933600D03*
X1031250Y4833600D03*
X1431250Y5933600D03*
X2031250Y5233600D03*
X268750Y1033600D03*
X1731250Y5133600D03*
X1718750Y2033600D03*
X1718750Y833600D03*
X2731250Y5533600D03*
X1931250Y4933600D03*
X2937500Y833600D03*
X3131250Y4933600D03*
X631250Y5033600D03*
X2125000Y1133600D03*
X1131250Y4933600D03*
X1331250Y6233600D03*
X2531250Y1533600D03*
X1631250Y5433600D03*
X268750Y2333600D03*
X3031250Y4933600D03*
X1731250Y6033600D03*
X1831250Y5233600D03*
X431250Y5433600D03*
X2831250Y6133600D03*
X2931250Y4933600D03*
X331250Y5933600D03*
X2531250Y6033600D03*
X1031250Y5533600D03*
X3131250Y4833600D03*
X1231250Y5233600D03*
X1731250Y5633600D03*
X2931250Y5733600D03*
X2825000Y2233600D03*
X2931250Y5033600D03*
X1331250Y6133600D03*
X137500Y433600D03*
X2931250Y5833600D03*
X631250Y5733600D03*
X731250Y5833600D03*
X231250Y5533600D03*
X2231250Y5333600D03*
X137500Y1233600D03*
X1531250Y5733600D03*
X2268750Y1933600D03*
X137500Y333600D03*
X531250Y6233600D03*
X1931250Y5233600D03*
X1131250Y6133600D03*
X1125000Y1133600D03*
X2531250Y5133600D03*
X1931250Y6033600D03*
X2231250Y5233600D03*
X431250Y5733600D03*
X231250Y5633600D03*
X1931250Y5133600D03*
X2531250Y1133600D03*
X1831250Y6033600D03*
X531250Y5933600D03*
X2531250Y5633600D03*
X3031250Y5733600D03*
X1231250Y5933600D03*
X2831250Y5933600D03*
X2331250Y6233600D03*
X1931250Y5833600D03*
X268750Y3033600D03*
X831250Y5933600D03*
X1718750Y1333600D03*
X137500Y1533600D03*
X2231250Y6033600D03*
X2031250Y5033600D03*
X1931250Y5033600D03*
X731250Y5233600D03*
X1931250Y5533600D03*
X268750Y633600D03*
X268750Y2033600D03*
X431250Y6133600D03*
X231250Y5833600D03*
X431250Y5233600D03*
X1125000Y1233600D03*
X856250Y2083600D03*
X2431250Y5333600D03*
X2531250Y933600D03*
X2931250Y6133600D03*
X1531250Y4933600D03*
X2931250Y5133600D03*
X2931250Y4833600D03*
X3031250Y5433600D03*
X1031250Y5333600D03*
X2331250Y5633600D03*
X1125000Y433600D03*
X2431250Y5433600D03*
X2231250Y4933600D03*
X2331250Y5033600D03*
X2268750Y2533600D03*
X1531250Y5333600D03*
X631250Y5333600D03*
X1331250Y5933600D03*
X1831250Y5733600D03*
X268750Y733600D03*
X1331250Y5733600D03*
X2431250Y5633600D03*
X1931250Y6133600D03*
X1131250Y6233600D03*
X3125000Y4333600D03*
X631250Y5533600D03*
X1231250Y6233600D03*
X2831250Y5633600D03*
X1531250Y6033600D03*
X3031250Y5033600D03*
X331250Y5633600D03*
X137500Y633600D03*
X1931250Y5633600D03*
X3031250Y6233600D03*
X2731250Y5033600D03*
X731250Y5533600D03*
X3131250Y6033600D03*
X3131250Y5733600D03*
X2431250Y5533600D03*
X2431250Y4833600D03*
X1831250Y4833600D03*
X268750Y1533600D03*
X2231250Y6133600D03*
X631250Y5433600D03*
X993750Y933600D03*
X831250Y6133600D03*
X1431250Y5433600D03*
X1831250Y5833600D03*
X856250Y1983600D03*
X331250Y4933600D03*
X2431250Y5933600D03*
X1231250Y5633600D03*
X1718750Y2433600D03*
X1731250Y4933600D03*
X268750Y1733600D03*
X2031250Y4933600D03*
X1718750Y1433600D03*
X137500Y2633600D03*
X2731250Y5633600D03*
X1125000Y1533600D03*
X3031250Y5833600D03*
X631250Y6033600D03*
X1731250Y5933600D03*
X1931250Y5933600D03*
X2931250Y5333600D03*
X2131250Y5233600D03*
X631250Y4833600D03*
X2825000Y2333600D03*
X1631250Y5033600D03*
X1718750Y2633600D03*
X1531250Y5533600D03*
X2431250Y5833600D03*
X2031250Y5333600D03*
X2131250Y5833600D03*
X137500Y2933600D03*
X1131250Y5833600D03*
X331250Y6133600D03*
X1631250Y5633600D03*
X331250Y6033600D03*
X856250Y1233600D03*
X1631250Y5533600D03*
X1125000Y633600D03*
X1731250Y5233600D03*
X1718750Y1133600D03*
X1831250Y5533600D03*
X3125000Y3577350D03*
X1531250Y5833600D03*
X431250Y6233600D03*
X731250Y5633600D03*
X1031250Y5733600D03*
X856250Y2383600D03*
X3125000Y3777350D03*
X2268750Y2633600D03*
X2731250Y6233600D03*
X731250Y5333600D03*
X2631250Y5833600D03*
X831250Y4933600D03*
X2531250Y5233600D03*
X1431250Y5233600D03*
X1231250Y4833600D03*
X931250Y6133600D03*
X2131250Y5733600D03*
X3031250Y4833600D03*
X856250Y1733600D03*
X931250Y5333600D03*
X2531250Y833600D03*
X137500Y1933600D03*
X1125000Y1933600D03*
X2125000Y833600D03*
X2531250Y4933600D03*
X1331250Y4833600D03*
X2131250Y6033600D03*
X1031250Y6233600D03*
X2937500Y1233600D03*
X631250Y5933600D03*
X993750Y1433600D03*
X2631250Y5233600D03*
X1331250Y4933600D03*
X2131250Y4933600D03*
X431250Y5633600D03*
X1531250Y5933600D03*
X1331250Y5333600D03*
X137500Y1633600D03*
X268750Y933600D03*
X137500Y2133600D03*
X2531250Y6233600D03*
X993750Y1133600D03*
X331250Y6233600D03*
X1731250Y4833600D03*
X2937500Y1033600D03*
X1125000Y233600D03*
X268750Y2533600D03*
X2731250Y4933600D03*
X531250Y5533600D03*
X1531250Y5633600D03*
X2231250Y5133600D03*
X1131250Y5633600D03*
X2431250Y5733600D03*
X431250Y4933600D03*
X2931250Y5533600D03*
X1631250Y5133600D03*
X1125000Y933600D03*
X2831250Y5533600D03*
X1718750Y1233600D03*
X137500Y3033600D03*
X531250Y6033600D03*
X2631250Y4933600D03*
X3125000Y4233600D03*
X3031250Y6033600D03*
X2937500Y933600D03*
X1031250Y5933600D03*
X831250Y5833600D03*
X268750Y2233600D03*
X1125000Y3033600D03*
X931250Y5733600D03*
X431250Y5833600D03*
X856250Y933600D03*
X1631250Y6133600D03*
X331250Y4833600D03*
X1031250Y5133600D03*
X2331250Y5433600D03*
X856250Y833600D03*
X831250Y4833600D03*
X1331250Y5233600D03*
X2931250Y5633600D03*
X331250Y5533600D03*
X2331250Y4833600D03*
X531250Y5133600D03*
X531250Y5733600D03*
X993750Y1233600D03*
X1031250Y5633600D03*
X856250Y1433600D03*
X1031250Y5033600D03*
X331250Y5833600D03*
X2531250Y5333600D03*
X1125000Y1433600D03*
X2825000Y2433600D03*
X631250Y4933600D03*
X268750Y1833600D03*
X931250Y6233600D03*
X2431250Y5233600D03*
X831250Y5133600D03*
X268750Y2633600D03*
X1031250Y6133600D03*
X2937500Y1433600D03*
X1331250Y6033600D03*
X331250Y5133600D03*
X1331250Y5633600D03*
X2268750Y2033600D03*
X231250Y5033600D03*
X1731250Y5733600D03*
X268750Y1933600D03*
X137500Y1333600D03*
X137500Y1033600D03*
X2031250Y5133600D03*
X2431250Y6233600D03*
X137500Y2433600D03*
X2831250Y6233600D03*
X2125000Y1033600D03*
X731250Y5733600D03*
X931250Y5933600D03*
X1331250Y5533600D03*
X3125000Y3877350D03*
X2231250Y5033600D03*
X1531250Y5033600D03*
X2431250Y5133600D03*
X2531250Y5833600D03*
X1231250Y4933600D03*
X2331250Y5833600D03*
X2125000Y933600D03*
X2331250Y4933600D03*
X1031250Y5433600D03*
X1125000Y533600D03*
X1631250Y5833600D03*
X2731250Y5733600D03*
X731250Y5033600D03*
X331250Y5433600D03*
X1831250Y5633600D03*
X1631250Y5333600D03*
X2331250Y5533600D03*
X1231250Y5133600D03*
X1231250Y5833600D03*
X1431250Y5133600D03*
X1431250Y5633600D03*
X1431250Y5333600D03*
X831250Y5633600D03*
X1131250Y4833600D03*
X1718750Y933600D03*
X3125000Y3677350D03*
X731250Y5433600D03*
X2231250Y5533600D03*
X2431250Y6033600D03*
X2531250Y5033600D03*
X2331250Y5233600D03*
X856250Y1333600D03*
X268750Y433600D03*
X1731250Y5533600D03*
X231250Y6233600D03*
X137500Y2733600D03*
X431250Y5033600D03*
X2431250Y5033600D03*
X631250Y5133600D03*
X1831250Y5133600D03*
X2731250Y6033600D03*
X3031250Y5233600D03*
X1731250Y5033600D03*
X2831250Y5233600D03*
X1131250Y5133600D03*
X1331250Y5433600D03*
X1131250Y5233600D03*
X431250Y5533600D03*
X931250Y5633600D03*
X2531250Y4833600D03*
X2937500Y1533600D03*
X2731250Y5933600D03*
X1831250Y4933600D03*
X231250Y5433600D03*
X268750Y1333600D03*
X1431250Y4933600D03*
X2031250Y5533600D03*
X2231250Y4833600D03*
X137500Y933600D03*
X1231250Y5433600D03*
X931250Y5433600D03*
X2031250Y5433600D03*
X531250Y4833600D03*
X1125000Y2033600D03*
X731250Y6133600D03*
X2731250Y5133600D03*
X531250Y5333600D03*
X831250Y5233600D03*
X1631250Y6033600D03*
X2268750Y2333600D03*
X2531250Y5433600D03*
X1931250Y5433600D03*
X1431250Y4833600D03*
X2131250Y6233600D03*
X1431250Y6133600D03*
X3131250Y5233600D03*
X2231250Y5833600D03*
X231250Y5133600D03*
X1018750Y3533600D03*
X931250Y4833600D03*
X631250Y6133600D03*
X2125000Y1533600D03*
X2331250Y5333600D03*
X2631250Y5133600D03*
X1718750Y2233600D03*
X3131250Y6233600D03*
X1231250Y5533600D03*
X137500Y233600D03*
X2937500Y1133600D03*
X2531250Y1033600D03*
X431250Y5133600D03*
X631250Y6233600D03*
X1131250Y5433600D03*
X1531250Y6233600D03*
X431250Y5333600D03*
X268750Y1233600D03*
X856250Y2183600D03*
X281250Y4552350D03*
X856250Y2283600D03*
X3131250Y5133600D03*
X856250Y2483600D03*
X1831250Y5933600D03*
X2431250Y6133600D03*
X1231250Y5333600D03*
X3131250Y5533600D03*
X3031250Y5133600D03*
X2831250Y5833600D03*
X731250Y4833600D03*
X1231250Y5033600D03*
X1131250Y5533600D03*
X1431250Y6033600D03*
X137500Y1833600D03*
X2125000Y1233600D03*
X1731250Y6233600D03*
X181250Y4552350D03*
X1931250Y4833600D03*
X1275000Y2485175D03*
X3131250Y5033600D03*
X2531250Y1433600D03*
X231250Y4933600D03*
X137500Y733600D03*
X2125000Y1333600D03*
X2831250Y5033600D03*
X931250Y5233600D03*
X2331250Y5933600D03*
X856250Y1633600D03*
X2131250Y5633600D03*
X2631250Y5633600D03*
X1631250Y5933600D03*
X2831250Y5733600D03*
X1231250Y5733600D03*
X993750Y833600D03*
X331250Y5333600D03*
X1631250Y6233600D03*
X2531250Y6133600D03*
X1431250Y5033600D03*
X231250Y5733600D03*
X731250Y6033600D03*
X1718750Y2133600D03*
X1831250Y6133600D03*
X268750Y2833600D03*
X1831250Y5333600D03*
X1718750Y2333600D03*
X3131250Y6133600D03*
X2531250Y5933600D03*
X856250Y1533600D03*
X268750Y533600D03*
X831250Y6233600D03*
X1631250Y4833600D03*
X2131250Y5033600D03*
X1125000Y2333600D03*
X931250Y6033600D03*
X2131250Y5333600D03*
X1331250Y5833600D03*
X2031250Y5833600D03*
X1125000Y1733600D03*
X1031250Y5833600D03*
X2531250Y5733600D03*
X2731250Y5833600D03*
X1431250Y5833600D03*
X268750Y2933600D03*
X2131250Y4833600D03*
X1831250Y5033600D03*
X631250Y5833600D03*
X531250Y5833600D03*
X531250Y5633600D03*
X1125000Y2733600D03*
X631250Y5633600D03*
X2331250Y5133600D03*
X931250Y5533600D03*
X2831250Y5133600D03*
X431250Y4833600D03*
X1531250Y5433600D03*
X2831250Y4833600D03*
X231250Y5933600D03*
X331250Y5233600D03*
X1125000Y2233600D03*
X1231250Y6033600D03*
X731250Y5933600D03*
X1431250Y5733600D03*
X2831250Y5433600D03*
X531250Y5233600D03*
X831250Y5033600D03*
X2631250Y6133600D03*
X2631250Y5333600D03*
X2631250Y5433600D03*
X2731250Y5333600D03*
X2268750Y2433600D03*
X793750Y4071100D03*
X1125000Y1833600D03*
X2631250Y6033600D03*
X2031250Y6033600D03*
X3125000Y4133600D03*
X1631250Y5733600D03*
X1631250Y4933600D03*
X1131250Y5733600D03*
X137500Y1733600D03*
X993750Y1533600D03*
X2031250Y6133600D03*
X2731250Y5433600D03*
X2631250Y5733600D03*
X1125000Y833600D03*
X531250Y6133600D03*
X431250Y5933600D03*
X1718750Y1933600D03*
X137500Y833600D03*
X137500Y2833600D03*
X268750Y1433600D03*
X331250Y5733600D03*
X856250Y1033600D03*
X1731250Y6133600D03*
X2531250Y1333600D03*
X856250Y2583600D03*
X1125000Y2533600D03*
X2531250Y1233600D03*
X137500Y2233600D03*
X2231250Y5933600D03*
X1131250Y6033600D03*
X2631250Y6233600D03*
X2731250Y4833600D03*
X137500Y1433600D03*
X931250Y4933600D03*
X231250Y5333600D03*
X268750Y333600D03*
X1731250Y5433600D03*
X231250Y4833600D03*
X1125000Y2433600D03*
X1531250Y4833600D03*
X3131250Y5933600D03*
X2831250Y5333600D03*
X2825000Y2133600D03*
X831250Y5333600D03*
X931250Y5833600D03*
X2531250Y5533600D03*
X231250Y6033600D03*
X1931250Y5733600D03*
X268750Y233600D03*
X2131250Y6133600D03*
X1531250Y5133600D03*
X2931250Y5933600D03*
X731250Y6233600D03*
X2131250Y5533600D03*
X1125000Y1633600D03*
X2631250Y5933600D03*
X137500Y533600D03*
X731250Y4933600D03*
X831250Y5733600D03*
X731250Y5133600D03*
X2131250Y5933600D03*
X137500Y2333600D03*
X531250Y5433600D03*
X268750Y2433600D03*
X3131250Y5433600D03*
X531250Y4933600D03*
X2431250Y4933600D03*
X137500Y2533600D03*
X3131250Y5333600D03*
X3031250Y5633600D03*
X856250Y1133600D03*
X2331250Y6033600D03*
X931250Y5133600D03*
X1031250Y4933600D03*
X2931250Y6233600D03*
X2031250Y6233600D03*
X2825000Y1933600D03*
X1718750Y1533600D03*
X1125000Y2933600D03*
X931250Y5033600D03*
X2031250Y5733600D03*
X1931250Y6233600D03*
X1731250Y5333600D03*
X1531250Y6133600D03*
X3131250Y5833600D03*
X531250Y5033600D03*
X2731250Y6133600D03*
X2631250Y4833600D03*
X2268750Y2133600D03*
X2231250Y5733600D03*
X1331250Y5033600D03*
X1131250Y5933600D03*
X1125000Y2633600D03*
X268750Y2733600D03*
X2331250Y6133600D03*
X1125000Y1033600D03*
X3031250Y6133600D03*
X431250Y6033600D03*
X2825000Y2533600D03*
X1531250Y5233600D03*
X2331250Y5733600D03*
X1231250Y6133600D03*
X331250Y5033600D03*
X3125000Y3477350D03*
X1031250Y6033600D03*
X2131250Y5133600D03*
X137500Y2033600D03*
X1125000Y2133600D03*
X381250Y4552350D03*
X706250Y483600D03*
X2931250Y6033600D03*
X1631250Y5233600D03*
X2031250Y4833600D03*
X1831250Y6233600D03*
X2825000Y2033600D03*
X831250Y5533600D03*
X2931250Y5433600D03*
X2231250Y5433600D03*
X2125000Y1433600D03*
X1031250Y5233600D03*
X3031250Y5333600D03*
X1125000Y1333600D03*
X1731250Y5833600D03*
X993750Y1033600D03*
X268750Y1633600D03*
X2362500Y3702350D03*
X1562500Y3702350D03*
X2737500Y627350D03*
X1737500Y427350D03*
X1837500Y427350D03*
X2437500Y627350D03*
X2337500Y227350D03*
X2537500Y627350D03*
X2662500Y3827350D03*
X1537500Y627350D03*
X1437500Y627350D03*
X2037500Y227350D03*
X2637500Y427350D03*
X1437500Y327350D03*
X2837500Y627350D03*
X1937500Y527350D03*
X2637500Y527350D03*
X2037500Y427350D03*
X2037500Y327350D03*
X2262500Y3827350D03*
X1537500Y227350D03*
X2437500Y427350D03*
X2837500Y327350D03*
X1662500Y3827350D03*
X1662500Y3702350D03*
X2162500Y3702350D03*
X1437500Y227350D03*
X1818750Y2814850D03*
X2312500Y2814850D03*
X2537500Y427350D03*
X1537500Y327350D03*
X2562500Y3827350D03*
X2137500Y627350D03*
X1937500Y327350D03*
X2337500Y527350D03*
X2062500Y3702350D03*
X1718750Y2814850D03*
X2462500Y3702350D03*
X2537500Y227350D03*
X1837500Y327350D03*
X1537500Y427350D03*
X2612500Y2814850D03*
X1362500Y3827350D03*
X1618750Y2814850D03*
X2562500Y3702350D03*
X2737500Y227350D03*
X1462500Y3827350D03*
X2018750Y2814850D03*
X2512500Y2814850D03*
X2237500Y527350D03*
X1737500Y627350D03*
X2362500Y3827350D03*
X2437500Y327350D03*
X2062500Y3827350D03*
X1918750Y2814850D03*
X1837500Y227350D03*
X1762500Y3702350D03*
X1562500Y3827350D03*
X2137500Y227350D03*
X1437500Y527350D03*
X2037500Y527350D03*
X2737500Y527350D03*
X2337500Y627350D03*
X2737500Y427350D03*
X2137500Y427350D03*
X2812500Y2814850D03*
X1637500Y427350D03*
X1437500Y427350D03*
X1462500Y3702350D03*
X807825Y2846100D03*
X1862500Y3702350D03*
X1937500Y427350D03*
X2637500Y227350D03*
X1518750Y2814850D03*
X1937500Y227350D03*
X2737500Y327350D03*
X2437500Y227350D03*
X1937500Y627350D03*
X1637500Y327350D03*
X2762500Y3702350D03*
X781250Y4552350D03*
X2912500Y2814850D03*
X2437500Y527350D03*
X1637500Y227350D03*
X2237500Y327350D03*
X2237500Y427350D03*
X2837500Y227350D03*
X2412500Y2814850D03*
X1962500Y3827350D03*
X2837500Y427350D03*
X2237500Y627350D03*
X1737500Y327350D03*
X2762500Y3827350D03*
X1737500Y227350D03*
X2337500Y427350D03*
X1837500Y627350D03*
X2137500Y527350D03*
X1837500Y527350D03*
X1637500Y527350D03*
X2462500Y3827350D03*
X1362500Y3702350D03*
X2537500Y327350D03*
X2537500Y527350D03*
X1962500Y3702350D03*
X2262500Y3702350D03*
X1862500Y3827350D03*
X2712500Y2814850D03*
X1762500Y3827350D03*
X2637500Y327350D03*
X2037500Y627350D03*
X2162500Y3827350D03*
X2837500Y527350D03*
X2237500Y227350D03*
X1537500Y527350D03*
X1637500Y627350D03*
X2337500Y327350D03*
X2662500Y3702350D03*
X1737500Y527350D03*
X2137500Y327350D03*
X2637500Y627350D03*
X1825000Y833600D03*
X1968750Y1933600D03*
X1418750Y2133600D03*
X2637500Y833600D03*
X2525000Y2233600D03*
X1418750Y1133600D03*
X1418750Y1333600D03*
X556250Y1983600D03*
X2231250Y1333600D03*
X556250Y2383600D03*
X1825000Y933600D03*
X1418750Y2033600D03*
X1418750Y2533600D03*
X556250Y2183600D03*
X2231250Y1133600D03*
X1418750Y2433600D03*
X2525000Y1933600D03*
X1825000Y1133600D03*
X1825000Y1233600D03*
X2637500Y933600D03*
X556250Y1633600D03*
X1418750Y1933600D03*
X2231250Y1033600D03*
X2637500Y1433600D03*
X556250Y1233600D03*
X2231250Y833600D03*
X556250Y933600D03*
X2525000Y2033600D03*
X556250Y1033600D03*
X556250Y833600D03*
X2525000Y2333600D03*
X556250Y2283600D03*
X1968750Y2233600D03*
X556250Y2483600D03*
X1968750Y2533600D03*
X2637500Y1033600D03*
X2231250Y1233600D03*
X1825000Y1033600D03*
X556250Y2083600D03*
X1968750Y2433600D03*
X556250Y1333600D03*
X556250Y1533600D03*
X1825000Y1433600D03*
X1418750Y2233600D03*
X556250Y1433600D03*
X1418750Y933600D03*
X1418750Y1433600D03*
X1825000Y1333600D03*
X2231250Y1433600D03*
X1968750Y2133600D03*
X1968750Y2033600D03*
X1418750Y833600D03*
X556250Y1133600D03*
X2637500Y1333600D03*
X1418750Y1233600D03*
X1418750Y1033600D03*
X1968750Y2333600D03*
X2637500Y1233600D03*
X2525000Y2433600D03*
X2637500Y1133600D03*
X2525000Y2133600D03*
X1418750Y2333600D03*
X2231250Y933600D03*
X1918750Y3114850D03*
X1618750Y3114850D03*
X2562500Y4427350D03*
X1562500Y4552350D03*
X2212500Y3114850D03*
X2362500Y4427350D03*
X1418750Y3114850D03*
X1718750Y3114850D03*
X1518750Y3114850D03*
X929675Y1858600D03*
X2562500Y4552350D03*
X2662500Y4427350D03*
X1662500Y4552350D03*
X2812500Y3114850D03*
X2362500Y4552350D03*
X2462500Y4552350D03*
X2262500Y4427350D03*
X1862500Y4552350D03*
X1562500Y4427350D03*
X1818750Y3114850D03*
X1762500Y4552350D03*
X2062500Y4427350D03*
X2262500Y4552350D03*
X1662500Y4427350D03*
X2062500Y4552350D03*
X1462500Y4427350D03*
X2412500Y3114850D03*
X2360925Y3414850D03*
X1862500Y4427350D03*
X2162500Y4552350D03*
X1762500Y4427350D03*
X1962500Y4427350D03*
X1362500Y4427350D03*
X2754675Y2664850D03*
X2912500Y3114850D03*
X2162500Y4427350D03*
X2512500Y3114850D03*
X2018750Y3114850D03*
X1462500Y4552350D03*
X2462500Y4427350D03*
X2517175Y1733600D03*
X1692175Y3414850D03*
X2712500Y3114850D03*
X2662500Y4552350D03*
X1704675Y1733600D03*
X2110925Y1733600D03*
X2835925Y1733600D03*
X2612500Y3114850D03*
X1362500Y4552350D03*
X2312500Y3114850D03*
X1962500Y4552350D03*
D14*
X1031250Y6333600D03*
X2131250Y6333600D03*
X3125000Y4433600D03*
X331250Y6333600D03*
X2031250Y6333600D03*
X1831250Y6333600D03*
X3125000Y3977350D03*
X1125000Y3133600D03*
X793750Y4171100D03*
X918750Y3633600D03*
X2631250Y6333600D03*
X381250Y4652350D03*
X431250Y6333600D03*
X1531250Y6333600D03*
X3131250Y6333600D03*
X1931250Y6333600D03*
X531250Y6333600D03*
X1231250Y6333600D03*
X631250Y6333600D03*
X268750Y3133600D03*
X1631250Y6333600D03*
X137500Y3133600D03*
X1331250Y6333600D03*
X931250Y6333600D03*
X281250Y4652350D03*
X2931250Y6333600D03*
X1275000Y2682025D03*
X2531250Y6333600D03*
X2331250Y6333600D03*
X2231250Y6333600D03*
X993750Y1633600D03*
X2831250Y6333600D03*
X731250Y6333600D03*
X831250Y6333600D03*
X2731250Y6333600D03*
X181250Y4652350D03*
X706250Y583600D03*
X1131250Y6333600D03*
X231250Y6333600D03*
X2431250Y6333600D03*
X3031250Y6333600D03*
X1431250Y6333600D03*
X1731250Y6333600D03*
X1018750Y3633600D03*
D16*
X1004675Y2846100D03*
X1418750Y2814850D03*
X2937500Y627350D03*
X2937500Y427350D03*
X2937500Y327350D03*
X906250Y4552350D03*
X2937500Y227350D03*
X2212500Y2814850D03*
X2937500Y527350D03*
D18*
X556250Y1733600D03*
X2637500Y1533600D03*
X1825000Y1533600D03*
X2525000Y2533600D03*
X1418750Y2633600D03*
X556250Y2583600D03*
X1968750Y2633600D03*
X2231250Y1533600D03*
X1418750Y1533600D03*
D20*
X2557825Y2664850D03*
X2164075Y3414850D03*
X1914075Y1733600D03*
X1495325Y3414850D03*
X2762500Y4427350D03*
X2762500Y4552350D03*
X2320325Y1733600D03*
X1507825Y1733600D03*
X732825Y1858600D03*
X2639075Y1733600D03*
D12*
X2018750Y3233600D03*
D22*
X1175000Y1633600D02*
X1237500Y1558600D01*
X2181250Y1083600D02*
X1987500Y1083600D01*
X3056250Y3102350D02*
X3056250Y3139850D01*
X2937500Y3902350D02*
X3075000Y3777350D01*
X2612500Y983600D02*
X2806250Y983600D01*
X2937500Y1133600D02*
X2993750Y1133600D01*
X2537500Y527350D02*
X2437500Y527350D01*
X1037500Y1733600D02*
X1125000Y1733600D01*
X1618750Y3114850D02*
X1618750Y3064850D01*
X1418750Y2133600D02*
X1475000Y2133600D01*
X2268750Y2133600D02*
X2368750Y2227350D01*
X1418750Y2533600D02*
X1468750Y2483600D01*
X768750Y2777350D02*
X1075000Y2777350D01*
X268750Y1233600D02*
X556250Y1233600D01*
X2562500Y1033600D02*
X2612500Y1083600D01*
X3056250Y3139850D02*
X3043750Y3152350D01*
X1456250Y2283600D02*
X1475000Y2264850D01*
X2462500Y3702350D02*
X2462500Y3658600D01*
X2325000Y2483600D02*
X2412500Y2483600D01*
X2918750Y3621100D02*
X2393750Y3621100D01*
X268750Y2133600D02*
X1125000Y2133600D01*
X2825000Y2133600D02*
X2925000Y2133600D01*
X2125000Y1333600D02*
X2231250Y1333600D01*
X137500Y2133600D02*
X268750Y2133600D01*
X2037500Y1383600D02*
X2181250Y1383600D01*
X1743750Y1083600D02*
X1787500Y1033600D01*
X2231250Y1133600D02*
X2181250Y1083600D01*
X1787500Y2183600D02*
X1925000Y2183600D01*
X2268750Y2233600D02*
X2368750Y2327350D01*
X2531250Y1333600D02*
X2562500Y1333600D01*
X137500Y1033600D02*
X268750Y1033600D01*
X2412500Y3114850D02*
X2412500Y3227350D01*
X268750Y1733600D02*
X331250Y1789850D01*
X1800000Y1646100D02*
X1825000Y1658600D01*
X1918750Y2583600D02*
X1968750Y2633600D01*
X1175000Y1533600D02*
X1218750Y1483600D01*
X2662500Y3827350D02*
X2662500Y3702350D01*
X2268750Y2333600D02*
X2368750Y2427350D01*
X2575000Y777350D02*
X2831250Y777350D01*
X2462500Y4552350D02*
X2462500Y4608600D01*
X2881250Y3258600D02*
X2931250Y3196100D01*
X1631250Y1814850D02*
X1612500Y1796100D01*
X2075000Y1283600D02*
X2125000Y1333600D01*
X2881250Y1083600D02*
X2937500Y1033600D01*
X2912500Y3827350D02*
X3075000Y3677350D01*
X962500Y1789850D02*
X993750Y1764850D01*
X1125000Y2033600D02*
X1225000Y2033600D01*
X2531250Y1233600D02*
X2562500Y1233600D01*
X2231250Y1433600D02*
X2275000Y1383600D01*
X1356250Y1602350D02*
X1375000Y1621100D01*
X2525000Y2533600D02*
X2625000Y2433600D01*
X937500Y3408600D02*
X918750Y3427350D01*
X1743750Y2083600D02*
X1768750Y2108600D01*
X1475000Y2133600D02*
X1643750Y2133600D01*
X137500Y1533600D02*
X268750Y1533600D01*
X268750Y1533600D02*
X556250Y1533600D01*
X2918750Y4664850D02*
X2418750Y4664850D01*
X2562500Y1183600D02*
X2606250Y1233600D01*
X2762500Y4102350D02*
X2762500Y4427350D01*
X687500Y2033600D02*
X1125000Y2033600D01*
X268750Y2333600D02*
X1125000Y2333600D01*
X2562500Y3827350D02*
X2562500Y3927350D01*
X1587500Y1589850D02*
X1612500Y1571100D01*
X2987500Y1383600D02*
X3043750Y1446100D01*
X2687500Y3258600D02*
X2881250Y3258600D01*
X1718750Y3233600D02*
X1718750Y3114850D01*
X2831250Y1589850D02*
X2856250Y1602350D01*
X1475000Y3033600D02*
X1518750Y3071100D01*
X1325000Y2052350D02*
X1275000Y2008600D01*
X1643750Y1589850D02*
X2450000Y1589850D01*
X2531250Y1033600D02*
X2562500Y1033600D01*
X268750Y2433600D02*
X1125000Y2433600D01*
X2512500Y3114850D02*
X2512500Y3227350D01*
X137500Y2433600D02*
X268750Y2433600D01*
X3093750Y3321100D02*
X3093750Y3383600D01*
X2012500Y2233600D02*
X1968750Y2233600D01*
X2825000Y4046100D02*
X2762500Y4102350D01*
X268750Y1433600D02*
X556250Y1433600D01*
X1075000Y1833600D02*
X1125000Y1833600D01*
X2943750Y1808600D02*
X2943750Y1689850D01*
X856250Y2483600D02*
X950000Y2483600D01*
X2987500Y1483600D02*
X3018750Y1514850D01*
X2281250Y1483600D02*
X2593750Y1483600D01*
X1750000Y1183600D02*
X1568750Y1183600D01*
X1837500Y327350D02*
X1737500Y327350D01*
X1800000Y1283600D02*
X2075000Y1283600D01*
X2212500Y2914850D02*
X2212500Y2814850D01*
X1487500Y1333600D02*
X1518750Y1333600D01*
X2562500Y1133600D02*
X2606250Y1183600D01*
X1806250Y1883600D02*
X1818750Y1896100D01*
X1612500Y1796100D02*
X1612500Y1683600D01*
X1937500Y427350D02*
X2037500Y427350D01*
X2637500Y527350D02*
X2537500Y527350D01*
X2912500Y3489850D02*
X2887500Y3521100D01*
X1756250Y1133600D02*
X1800000Y1083600D01*
X1737500Y427350D02*
X1837500Y427350D01*
X2162500Y4258600D02*
X2162500Y4427350D01*
X1481250Y1883600D02*
X1806250Y1883600D01*
X918750Y3427350D02*
X918750Y3533600D01*
X1768750Y1258600D02*
X1750000Y1283600D01*
X268750Y1133600D02*
X556250Y1133600D01*
X268750Y2033600D02*
X687500Y2033600D01*
X1275000Y2008600D02*
X1275000Y1658600D01*
X856250Y1533600D02*
X993750Y1533600D01*
X2075000Y2764850D02*
X2118750Y2789850D01*
X3075000Y3777350D02*
X3125000Y3777350D01*
X1781250Y1383600D02*
X1825000Y1433600D01*
X2006250Y2083600D02*
X2037500Y2114850D01*
X1787500Y2227350D02*
X1818750Y2233600D01*
X2181250Y983600D02*
X1937500Y983600D01*
X1587500Y2977350D02*
X1856250Y2977350D01*
X1418750Y1033600D02*
X1556250Y1033600D01*
X137500Y3133600D02*
X268750Y3133600D01*
X137500Y933600D02*
X268750Y933600D01*
X2268750Y2033600D02*
X2368750Y2127350D01*
X1937500Y327350D02*
X1837500Y327350D01*
X1925000Y2183600D02*
X1968750Y2133600D01*
X2275000Y983600D02*
X2556250Y983600D01*
X1818750Y3233600D02*
X1818750Y3114850D01*
X1825000Y733600D02*
X1718750Y833600D01*
X1418750Y2033600D02*
X1456250Y2033600D01*
X993750Y1133600D02*
X1125000Y1233600D01*
X268750Y1333600D02*
X556250Y1333600D01*
X2562500Y3702350D02*
X2562500Y3827350D01*
X1787500Y1033600D02*
X1825000Y1033600D01*
X2912500Y3596100D02*
X2312500Y3596100D01*
X1600000Y3233600D02*
X1668750Y3164850D01*
X3056250Y3364850D02*
X3056250Y3396100D01*
X3018750Y2383600D02*
X2893750Y2483600D01*
X2981250Y733600D02*
X3118750Y902350D01*
X2381250Y1621100D02*
X2406250Y1646100D01*
X2281250Y883600D02*
X2587500Y883600D01*
X1850000Y1183600D02*
X1900000Y1233600D01*
X1375000Y1858600D02*
X1818750Y1858600D01*
X3043750Y4433600D02*
X2918750Y4664850D01*
X137500Y1333600D02*
X268750Y1333600D01*
X1300000Y1627350D02*
X1343750Y1627350D01*
X2262500Y4271100D02*
X2012500Y3921100D01*
X3125000Y3877350D02*
X3175000Y3877350D01*
X2325000Y2583600D02*
X2268750Y2533600D01*
X2625000Y2133600D02*
X2525000Y2133600D01*
X1125000Y3033600D02*
X1475000Y3033600D01*
X2681250Y2583600D02*
X2325000Y2583600D01*
X1125000Y1133600D02*
X993750Y1033600D01*
X743750Y2733600D02*
X1125000Y2733600D01*
X1837500Y227350D02*
X1937500Y227350D01*
X2262500Y4427350D02*
X2262500Y4271100D01*
X1362500Y1646100D02*
X1800000Y1646100D01*
X1718750Y1333600D02*
X1756250Y1333600D01*
X2943750Y1689850D02*
X2856250Y1602350D01*
X1818750Y2858600D02*
X1950000Y3002350D01*
X2493750Y4633600D02*
X2900000Y4633600D01*
X1268750Y1033600D02*
X1375000Y1133600D01*
X1487500Y1333600D02*
X1418750Y1333600D01*
X268750Y2633600D02*
X1125000Y2633600D01*
X137500Y1133600D02*
X268750Y1133600D01*
X2062500Y3702350D02*
X2062500Y3827350D01*
X2231250Y1133600D02*
X2275000Y1083600D01*
X3068750Y3058600D02*
X3056250Y3102350D01*
X1743750Y2483600D02*
X1800000Y2533600D01*
X2475000Y3646100D02*
X2925000Y3646100D01*
X1125000Y1433600D02*
X1168750Y1433600D01*
X1125000Y2133600D02*
X1331250Y2133600D01*
X2712500Y2139850D02*
X2712500Y1914850D01*
X2181250Y1383600D02*
X2231250Y1433600D01*
X856250Y1133600D02*
X993750Y1133600D01*
X2662500Y3883600D02*
X2681250Y3902350D01*
X2706250Y2571100D02*
X2681250Y2583600D01*
X1800000Y2533600D02*
X1968750Y2533600D01*
X1075000Y2777350D02*
X1125000Y2833600D01*
X137500Y2033600D02*
X268750Y2033600D01*
X1750000Y1283600D02*
X1543750Y1283600D01*
X2712500Y3046100D02*
X2712500Y3114850D01*
X3125000Y4433600D02*
X3043750Y4433600D01*
X2231250Y1233600D02*
X2275000Y1183600D01*
X2593750Y1483600D02*
X2637500Y1533600D01*
X1800000Y1183600D02*
X1850000Y1183600D01*
X2975000Y3152350D02*
X2962500Y3139850D01*
X1612500Y1571100D02*
X1643750Y1589850D01*
X2937500Y1033600D02*
X2993750Y1033600D01*
X1825000Y3514850D02*
X1862500Y3558600D01*
X2612500Y3177350D02*
X2687500Y3258600D01*
X1850000Y1889850D02*
X1893750Y1889850D01*
X2612500Y2727350D02*
X2612500Y2814850D01*
X1518750Y3071100D02*
X1518750Y3114850D01*
X1968750Y2033600D02*
X2025000Y2033600D01*
X656250Y2483600D02*
X556250Y2483600D01*
X856250Y2283600D02*
X950000Y2283600D01*
X1306250Y1233600D02*
X1418750Y1233600D01*
X2181250Y983600D02*
X2231250Y1033600D01*
X2268750Y1933600D02*
X2368750Y2027350D01*
X268750Y2233600D02*
X1125000Y2233600D01*
X2037500Y2114850D02*
X2037500Y2208600D01*
X1543750Y2433600D02*
X1718750Y2433600D01*
X1768750Y1814850D02*
X1631250Y1814850D01*
X2881250Y983600D02*
X2937500Y933600D01*
X2181250Y883600D02*
X1937500Y883600D01*
X2312500Y3596100D02*
X2262500Y3652350D01*
X1556250Y1371100D02*
X1656250Y1371100D01*
X2625000Y2433600D02*
X2825000Y2433600D01*
X2900000Y4633600D02*
X3062500Y4333600D01*
X3175000Y3877350D02*
X3193750Y3896100D01*
X1906250Y3027350D02*
X2693750Y3027350D01*
X656250Y2733600D02*
X268750Y2733600D01*
X137500Y2533600D02*
X268750Y2533600D01*
X3043750Y3052350D02*
X3000000Y3102350D01*
X1125000Y1133600D02*
X1306250Y1133600D01*
X2437500Y627350D02*
X2537500Y627350D01*
X1862500Y3558600D02*
X1862500Y3702350D01*
X1893750Y1889850D02*
X1906250Y1902350D01*
X1718750Y1933600D02*
X1818750Y2033600D01*
X2231250Y1333600D02*
X2275000Y1283600D01*
X137500Y2233600D02*
X268750Y2233600D01*
X1237500Y1558600D02*
X1350000Y1558600D01*
X1700000Y2083600D02*
X1743750Y2083600D01*
X2606250Y1283600D02*
X2718750Y1283600D01*
X137500Y1733600D02*
X268750Y1733600D01*
X2600000Y1433600D02*
X2637500Y1433600D01*
X1225000Y2033600D02*
X1300000Y2096100D01*
X1818750Y1858600D02*
X1850000Y1889850D01*
X2893750Y1858600D02*
X2943750Y1808600D01*
X1506250Y3583600D02*
X1562500Y3646100D01*
X1456250Y2033600D02*
X1468750Y2021100D01*
X2825000Y2033600D02*
X2925000Y2033600D01*
X1225000Y2283600D02*
X1456250Y2283600D01*
X1518750Y1333600D02*
X1556250Y1371100D01*
X2712500Y1914850D02*
X2781250Y1858600D01*
X1162500Y2746100D02*
X1475000Y2746100D01*
X2181250Y1483600D02*
X1568750Y1483600D01*
X1125000Y2333600D02*
X1175000Y2333600D01*
X2337500Y227350D02*
X2437500Y227350D01*
X1800000Y1083600D02*
X1850000Y1083600D01*
X2231250Y1233600D02*
X2181250Y1183600D01*
X2887500Y3521100D02*
X2087500Y3521100D01*
X856250Y2083600D02*
X1000000Y2083600D01*
X1800000Y1258600D02*
X1768750Y1258600D01*
X1600000Y3514850D02*
X1825000Y3514850D01*
X856250Y1233600D02*
X993750Y1233600D01*
X2162500Y3652350D02*
X2162500Y3702350D01*
X1668750Y3052350D02*
X1693750Y3027350D01*
X268750Y2833600D02*
X712500Y2833600D01*
X2718750Y1433600D02*
X2762500Y1483600D01*
X2231250Y1033600D02*
X2275000Y983600D01*
X137500Y3033600D02*
X268750Y3033600D01*
X137500Y1433600D02*
X268750Y1433600D01*
X137500Y1933600D02*
X268750Y1933600D01*
X1168750Y1333600D02*
X1218750Y1283600D01*
X2606250Y1033600D02*
X2637500Y1033600D01*
X2231250Y1533600D02*
X2281250Y1483600D01*
X2312500Y3114850D02*
X2312500Y3227350D01*
X2812500Y3402350D02*
X2812500Y3483600D01*
X1418750Y1433600D02*
X1656250Y1433600D01*
X2756250Y2083600D02*
X2756250Y1914850D01*
X1125000Y1333600D02*
X993750Y1233600D01*
X2231250Y933600D02*
X2281250Y883600D01*
X1125000Y2433600D02*
X1418750Y2433600D01*
X2456250Y2383600D02*
X2893750Y2383600D01*
X268750Y2533600D02*
X1125000Y2533600D01*
X2606250Y1333600D02*
X2637500Y1333600D01*
X1912500Y2496100D02*
X1968750Y2433600D01*
X2462500Y4608600D02*
X2493750Y4633600D01*
X1275000Y1658600D02*
X1300000Y1627350D01*
X1375000Y1621100D02*
X2381250Y1621100D01*
X3025000Y3527350D02*
X3156250Y3527350D01*
X2531250Y1133600D02*
X2562500Y1133600D01*
X2275000Y1383600D02*
X2556250Y1383600D01*
X1856250Y2977350D02*
X1906250Y3027350D01*
X2562500Y1233600D02*
X2606250Y1283600D01*
X2450000Y1589850D02*
X2831250Y1589850D01*
X1125000Y1333600D02*
X1168750Y1333600D01*
X268750Y1833600D02*
X318750Y1883600D01*
X1768750Y2458600D02*
X1812500Y2496100D01*
X1918750Y2858600D02*
X1918750Y2814850D01*
X2362500Y4614850D02*
X2362500Y4552350D01*
X1125000Y1733600D02*
X1175000Y1733600D01*
X3000000Y3364850D02*
X3000000Y3427350D01*
X2700000Y2977350D02*
X2812500Y2896100D01*
X1125000Y2533600D02*
X1418750Y2533600D01*
X1543750Y1283600D02*
X1493750Y1233600D01*
X1506250Y1283600D02*
X1556250Y1333600D01*
X2537500Y627350D02*
X2637500Y627350D01*
X268750Y3033600D02*
X1125000Y3033600D01*
X1125000Y1533600D02*
X1175000Y1533600D01*
X268750Y1633600D02*
X556250Y1633600D01*
X2337500Y627350D02*
X2437500Y627350D01*
X2993750Y2296100D02*
X2993750Y1614850D01*
X137500Y2933600D02*
X268750Y2933600D01*
X1568750Y1183600D02*
X1518750Y1133600D01*
X1750000Y2046100D02*
X1806250Y2102350D01*
X2556250Y1383600D02*
X2600000Y1433600D01*
X1418750Y2433600D02*
X1468750Y2383600D01*
X137500Y2733600D02*
X268750Y2733600D01*
X687500Y2033600D02*
X687500Y1989850D01*
X1606250Y1083600D02*
X1743750Y1083600D01*
X2993750Y1133600D02*
X3068750Y1214850D01*
X2056250Y1877350D02*
X2356250Y1877350D01*
X1756250Y1233600D02*
X1800000Y1183600D01*
X1468750Y1896100D02*
X1481250Y1883600D01*
X1768750Y2108600D02*
X1768750Y2164850D01*
X3043750Y3152350D02*
X2975000Y3152350D01*
X1562500Y1233600D02*
X1718750Y1233600D01*
X3068750Y1214850D02*
X3068750Y3058600D01*
X1825000Y1133600D02*
X1800000Y1158600D01*
X2612500Y3977350D02*
X3125000Y3977350D01*
X1475000Y2133600D02*
X1475000Y2264850D01*
X2968750Y1639850D02*
X2968750Y1821100D01*
X3118750Y3052350D02*
X3162500Y3139850D01*
X1487500Y1383600D02*
X1512500Y1389850D01*
X2037500Y2208600D02*
X2012500Y2233600D01*
X1975000Y1183600D02*
X2181250Y1183600D01*
X856250Y2383600D02*
X950000Y2383600D01*
X1837500Y427350D02*
X1937500Y427350D01*
X1900000Y1133600D02*
X2125000Y1133600D01*
X1518750Y1133600D02*
X1418750Y1133600D01*
X2368750Y1889850D02*
X2368750Y1927350D01*
X3043750Y1446100D02*
X3043750Y3052350D01*
X1850000Y983600D02*
X1900000Y1033600D01*
X2906250Y1883600D02*
X2968750Y1821100D01*
X2037500Y1233600D02*
X2125000Y1233600D01*
X556250Y2083600D02*
X743750Y2083600D01*
X1768750Y2164850D02*
X1787500Y2183600D01*
X2462500Y3658600D02*
X2475000Y3646100D01*
X2025000Y2033600D02*
X2037500Y2021100D01*
X2587500Y883600D02*
X2637500Y933600D01*
X1818750Y1896100D02*
X1818750Y1933600D01*
X856250Y933600D02*
X993750Y933600D01*
X2706250Y2521100D02*
X2706250Y2571100D01*
X2531250Y933600D02*
X2562500Y933600D01*
X2437500Y327350D02*
X2337500Y327350D01*
X1325000Y1983600D02*
X1325000Y1664850D01*
X1556250Y1033600D02*
X1606250Y1083600D01*
X1168750Y1233600D02*
X1218750Y1183600D01*
X2962500Y3139850D02*
X2962500Y3064850D01*
X2037500Y327350D02*
X1937500Y327350D01*
X2906250Y3571100D02*
X2231250Y3571100D01*
X2756250Y1914850D02*
X2793750Y1883600D01*
X1343750Y1627350D02*
X1362500Y1646100D01*
X3168750Y4046100D02*
X2825000Y4046100D01*
X2181250Y883600D02*
X2231250Y933600D01*
X3193750Y4021100D02*
X3168750Y4046100D01*
X1381250Y1589850D02*
X1587500Y1589850D01*
X2993750Y1033600D02*
X3093750Y1146100D01*
X856250Y1433600D02*
X993750Y1433600D01*
X2743750Y2483600D02*
X2706250Y2521100D01*
X2612500Y3114850D02*
X2612500Y3177350D01*
X1350000Y2096100D02*
X1362500Y2083600D01*
X2062500Y3646100D02*
X2062500Y3702350D01*
X2912500Y3402350D02*
X2912500Y3489850D01*
X1850000Y1083600D02*
X1900000Y1133600D01*
X1718750Y2233600D02*
X1818750Y2333600D01*
X2556250Y983600D02*
X2606250Y1033600D01*
X3056250Y3396100D02*
X2906250Y3571100D01*
X1468750Y2383600D02*
X1743750Y2383600D01*
X2693750Y3027350D02*
X2712500Y3046100D01*
X1906250Y2058600D02*
X1931250Y2083600D01*
X1643750Y2133600D02*
X1700000Y2083600D01*
X2606250Y1183600D02*
X2881250Y1183600D01*
X268750Y3133600D02*
X1125000Y3133600D01*
X1018750Y3733600D02*
X1368750Y4058600D01*
X2925000Y3646100D02*
X3025000Y3527350D01*
X1825000Y733600D02*
X2981250Y733600D01*
X1918750Y3233600D02*
X1918750Y3114850D01*
X3131250Y3364850D02*
X3131250Y3371100D01*
X1493750Y1233600D02*
X1418750Y1233600D01*
X918750Y3633600D02*
X962500Y3583600D01*
X2512500Y2914850D02*
X2512500Y2814850D01*
X1418750Y2633600D02*
X1468750Y2583600D01*
X1362500Y1871100D02*
X1375000Y1858600D01*
X2556250Y1083600D02*
X2606250Y1133600D01*
X2812500Y2896100D02*
X2812500Y2814850D01*
X2931250Y3196100D02*
X3131250Y3196100D01*
X268750Y1933600D02*
X625000Y1933600D01*
X1350000Y2152350D02*
X1350000Y2214850D01*
X3093750Y3383600D02*
X2912500Y3596100D01*
X2825000Y1933600D02*
X2925000Y1933600D01*
X3193750Y3896100D02*
X3193750Y4021100D01*
X856250Y833600D02*
X993750Y833600D01*
X1718750Y1033600D02*
X1762500Y983600D01*
X2275000Y1183600D02*
X2562500Y1183600D01*
X1650000Y1033600D02*
X1718750Y1033600D01*
X2806250Y983600D02*
X2881250Y983600D01*
X1125000Y933600D02*
X1268750Y933600D01*
X1937500Y527350D02*
X1837500Y527350D01*
X1125000Y1233600D02*
X1168750Y1233600D01*
X1975000Y1333600D02*
X1825000Y1333600D01*
X2662500Y3827350D02*
X2662500Y3883600D01*
X2893750Y2383600D02*
X2993750Y2296100D01*
X2537500Y427350D02*
X2637500Y427350D01*
X1918750Y2858600D02*
X2025000Y2977350D01*
X2087500Y3521100D02*
X2012500Y3614850D01*
X2762500Y1483600D02*
X2987500Y1483600D01*
X1800000Y1158600D02*
X1768750Y1158600D01*
X2018750Y4058600D02*
X2162500Y4258600D01*
X2781250Y1858600D02*
X2893750Y1858600D01*
X2862500Y1533600D02*
X2968750Y1639850D01*
X1768750Y1158600D02*
X1750000Y1183600D01*
X1693750Y3027350D02*
X1768750Y3027350D01*
X1618750Y3064850D02*
X1531250Y2983600D01*
X1087500Y3408600D02*
X937500Y3408600D01*
X1906250Y1902350D02*
X1906250Y2058600D01*
X2562500Y1283600D02*
X2606250Y1333600D01*
X712500Y2833600D02*
X768750Y2777350D01*
X1350000Y1558600D02*
X1381250Y1589850D01*
X1900000Y1033600D02*
X2125000Y1033600D01*
X1125000Y1933600D02*
X625000Y1933600D01*
X1937500Y227350D02*
X2037500Y227350D01*
X2962500Y3064850D02*
X2906250Y3002350D01*
X962500Y3583600D02*
X1506250Y3583600D01*
X2900000Y3546100D02*
X2143750Y3546100D01*
X1368750Y2233600D02*
X1418750Y2233600D01*
X1175000Y2333600D02*
X1225000Y2283600D01*
X1218750Y1183600D02*
X1487500Y1183600D01*
X1562500Y3646100D02*
X1562500Y3702350D01*
X1718750Y1133600D02*
X1756250Y1133600D01*
X1668750Y3164850D02*
X1668750Y3052350D01*
X2637500Y327350D02*
X2537500Y327350D01*
X2906250Y3002350D02*
X1950000Y3002350D01*
X1718750Y1233600D02*
X1756250Y1233600D01*
X3187500Y3496100D02*
X3187500Y3364850D01*
X2612500Y1083600D02*
X2881250Y1083600D01*
X1125000Y2733600D02*
X1162500Y2746100D01*
X856250Y1333600D02*
X993750Y1333600D01*
X2412500Y2814850D02*
X2412500Y2914850D01*
X1168750Y1433600D02*
X1218750Y1383600D01*
X1568750Y2958600D02*
X1587500Y2977350D01*
X2275000Y1083600D02*
X2556250Y1083600D01*
X2606250Y1383600D02*
X2987500Y1383600D01*
X3118750Y902350D02*
X3118750Y3052350D01*
X1937500Y627350D02*
X2037500Y627350D01*
X137500Y1633600D02*
X268750Y1633600D01*
X668750Y1908600D02*
X1006250Y1908600D01*
X1125000Y2633600D02*
X1418750Y2633600D01*
X2881250Y1183600D02*
X2937500Y1133600D01*
X3075000Y3677350D02*
X3125000Y3677350D01*
X137500Y2333600D02*
X268750Y2333600D01*
X993750Y1533600D02*
X1125000Y1633600D01*
X3156250Y3527350D02*
X3187500Y3496100D01*
X2268750Y2433600D02*
X2325000Y2483600D01*
X1037500Y1983600D02*
X856250Y1983600D01*
X1718750Y2133600D02*
X1725000Y2164850D01*
X1756250Y1333600D02*
X1800000Y1283600D01*
X993750Y933600D02*
X1125000Y1033600D01*
X331250Y1789850D02*
X962500Y1789850D01*
X2893750Y2483600D02*
X2743750Y2483600D01*
X1556250Y1333600D02*
X1718750Y1333600D01*
X1962500Y3589850D02*
X1962500Y3702350D01*
X2437500Y427350D02*
X2537500Y427350D01*
X1375000Y1033600D02*
X1418750Y1033600D01*
X1468750Y2021100D02*
X1468750Y1896100D01*
X2025000Y2977350D02*
X2700000Y2977350D01*
X2037500Y527350D02*
X1937500Y527350D01*
X2262500Y3652350D02*
X2262500Y3702350D01*
X3093750Y1146100D02*
X3093750Y3152350D01*
X2018750Y3114850D02*
X2018750Y3233600D01*
X1818750Y2814850D02*
X1818750Y2858600D01*
X2993750Y1614850D02*
X2981250Y1589850D01*
X993750Y1433600D02*
X1125000Y1533600D01*
X2562500Y933600D02*
X2612500Y983600D01*
X1718750Y2033600D02*
X1750000Y2046100D01*
X1350000Y2214850D02*
X1368750Y2233600D01*
X268750Y1033600D02*
X556250Y1033600D01*
X650000Y2183600D02*
X556250Y2183600D01*
X1800000Y1258600D02*
X1825000Y1233600D01*
X1125000Y933600D02*
X993750Y833600D01*
X2231250Y3571100D02*
X2162500Y3652350D01*
X1806250Y2102350D02*
X1818750Y2133600D01*
X993750Y1333600D02*
X1125000Y1433600D01*
X1006250Y1908600D02*
X1075000Y1833600D01*
X2362500Y3652350D02*
X2362500Y3702350D01*
X1331250Y2133600D02*
X1350000Y2152350D01*
X1725000Y2164850D02*
X1787500Y2227350D01*
X137500Y2633600D02*
X268750Y2633600D01*
X2525000Y2233600D02*
X2625000Y2233600D01*
X1362500Y2083600D02*
X1362500Y1871100D01*
X3062500Y4333600D02*
X3125000Y4333600D01*
X1468750Y2483600D02*
X1743750Y2483600D01*
X1812500Y2496100D02*
X1912500Y2496100D01*
X856250Y1033600D02*
X993750Y1033600D01*
X1737500Y627350D02*
X1837500Y627350D01*
X1743750Y2383600D02*
X1768750Y2408600D01*
X2037500Y3496100D02*
X1962500Y3589850D01*
X137500Y2833600D02*
X268750Y2833600D01*
X1475000Y2746100D02*
X1500000Y2764850D01*
X2425000Y2408600D02*
X2456250Y2383600D01*
X1837500Y627350D02*
X1937500Y627350D01*
X1468750Y2583600D02*
X1918750Y2583600D01*
X2393750Y3621100D02*
X2362500Y3652350D01*
X2037500Y1896100D02*
X2056250Y1877350D01*
X2812500Y3114850D02*
X2812500Y3208600D01*
X2637500Y1533600D02*
X2862500Y1533600D01*
X2337500Y427350D02*
X2437500Y427350D01*
X1281250Y1602350D02*
X1356250Y1602350D01*
X268750Y2933600D02*
X1125000Y2933600D01*
X1656250Y1433600D02*
X1700000Y1383600D01*
X2537500Y227350D02*
X2637500Y227350D01*
X1218750Y1383600D02*
X1487500Y1383600D01*
X2181250Y1483600D02*
X2231250Y1533600D01*
X1737500Y227350D02*
X1837500Y227350D01*
X2537500Y327350D02*
X2437500Y327350D01*
X2437500Y527350D02*
X2337500Y527350D01*
X2793750Y1883600D02*
X2906250Y1883600D01*
X2412500Y2483600D02*
X2425000Y2471100D01*
X2831250Y777350D02*
X2856250Y796100D01*
X1375000Y1133600D02*
X1418750Y1133600D01*
X1531250Y2983600D02*
X556250Y2983600D01*
X137500Y1233600D02*
X268750Y1233600D01*
X1218750Y1483600D02*
X1568750Y1483600D01*
X1175000Y1733600D02*
X1281250Y1602350D01*
X3018750Y1514850D02*
X3018750Y2383600D01*
X1268750Y933600D02*
X1375000Y1033600D01*
X2525000Y2033600D02*
X2625000Y2033600D01*
X2037500Y2021100D02*
X2037500Y1896100D01*
X2800000Y3496100D02*
X2037500Y3496100D01*
X2606250Y1233600D02*
X2637500Y1233600D01*
X1768750Y2408600D02*
X1768750Y2458600D01*
X2425000Y2471100D02*
X2425000Y2408600D01*
X643750Y1883600D02*
X668750Y1908600D01*
X2562500Y1333600D02*
X2606250Y1383600D01*
X1125000Y1633600D02*
X1175000Y1633600D01*
X2437500Y227350D02*
X2537500Y227350D01*
X1125000Y1033600D02*
X1268750Y1033600D01*
X2681250Y3902350D02*
X2937500Y3902350D01*
X1218750Y1283600D02*
X1506250Y1283600D01*
X2143750Y3546100D02*
X2062500Y3646100D01*
X2356250Y1877350D02*
X2368750Y1889850D01*
X268750Y933600D02*
X556250Y933600D01*
X2531250Y833600D02*
X2575000Y777350D01*
X137500Y1833600D02*
X268750Y1833600D01*
X2012500Y3921100D02*
X2012500Y3614850D01*
X3000000Y3427350D02*
X2900000Y3546100D01*
X3131250Y3371100D02*
X2918750Y3621100D01*
X2762500Y3827350D02*
X2912500Y3827350D01*
X1568750Y2871100D02*
X1568750Y2958600D01*
X2562500Y3333600D02*
X2562500Y3177350D01*
X2606250Y1133600D02*
X2637500Y1133600D01*
X2406250Y1646100D02*
X2806250Y1646100D01*
X1300000Y2096100D02*
X1350000Y2096100D01*
X1018750Y3733600D02*
X1018750Y3633600D01*
X1500000Y2764850D02*
X2075000Y2764850D01*
X2812500Y3483600D02*
X2800000Y3496100D01*
X1762500Y983600D02*
X1850000Y983600D01*
X1900000Y1233600D02*
X2037500Y1233600D01*
X318750Y1883600D02*
X643750Y1883600D01*
X2762500Y3827350D02*
X2762500Y3702350D01*
X1837500Y527350D02*
X1737500Y527350D01*
X1931250Y2083600D02*
X2006250Y2083600D01*
X2562500Y3927350D02*
X2612500Y3977350D01*
X1606250Y1133600D02*
X1718750Y1133600D01*
X1700000Y1383600D02*
X1781250Y1383600D01*
X2275000Y1283600D02*
X2562500Y1283600D01*
X1368750Y4058600D02*
X2018750Y4058600D01*
X2418750Y4664850D02*
X2362500Y4614850D01*
D24*
X1718750Y2333600D02*
X1750000Y2346100D01*
X1750000Y2346100D02*
X1806250Y2402350D01*
X1806250Y2402350D02*
X1818750Y2433600D01*
D26*
X1050000Y2183600D02*
X1250000Y2183600D01*
X1275000Y3083600D02*
X1018750Y3083600D01*
X1250000Y2583600D02*
X1050000Y2583600D01*
X1050000Y2383600D02*
X1250000Y2383600D01*
D28*
X1362500Y3827350D02*
X1362500Y3702350D01*
X1462500Y3827350D02*
X1462500Y3702350D01*
X1862500Y4427350D02*
X1862500Y4552350D01*
X1462500Y4427350D02*
X1462500Y4552350D01*
X1662500Y3827350D02*
X1662500Y3702350D01*
X1762500Y3827350D02*
X1762500Y3702350D01*
X1962500Y3827350D02*
X1962500Y3702350D01*
X2162500Y4427350D02*
X2162500Y4552350D01*
X2362500Y3827350D02*
X2362500Y3702350D01*
X2462500Y3827350D02*
X2462500Y3702350D01*
X1562500Y3827350D02*
X1562500Y3702350D01*
X2062500Y4427350D02*
X2062500Y4552350D01*
X2562500Y4427350D02*
X2562500Y4552350D01*
X1662500Y4427350D02*
X1662500Y4552350D01*
X2362500Y4427350D02*
X2362500Y4552350D01*
X1762500Y4427350D02*
X1762500Y4552350D01*
X1562500Y4427350D02*
X1562500Y4552350D01*
X2262500Y3827350D02*
X2262500Y3702350D01*
X1862500Y3827350D02*
X1862500Y3702350D01*
X1962500Y4427350D02*
X1962500Y4552350D01*
X2462500Y4427350D02*
X2462500Y4552350D01*
X2762500Y4427350D02*
X2762500Y4552350D01*
X2162500Y3827350D02*
X2162500Y3702350D01*
X2262500Y4427350D02*
X2262500Y4552350D01*
X2662500Y4427350D02*
X2662500Y4552350D01*
D30*
X1631250Y5333600D02*
X1631250Y5233600D01*
X1831250Y5433600D02*
X1831250Y5333600D01*
X2631250Y5633600D02*
X2731250Y5633600D01*
X2931250Y5433600D02*
X2931250Y5333600D01*
X2631250Y5333600D02*
X2631250Y5233600D01*
X2231250Y5533600D02*
X2331250Y5533600D01*
X1431250Y5233600D02*
X1431250Y5133600D01*
X2831250Y5633600D02*
X2931250Y5633600D01*
X2531250Y5533600D02*
X2631250Y5533600D01*
X1631250Y5933600D02*
X1631250Y6033600D01*
X1731250Y5533600D02*
X1831250Y5533600D01*
X731250Y5733600D02*
X731250Y5833600D01*
X1131250Y5433600D02*
X1131250Y5333600D01*
X1431250Y5933600D02*
X1431250Y6033600D01*
X731250Y5533600D02*
X831250Y5533600D01*
X2531250Y5333600D02*
X2531250Y5233600D01*
X331250Y5633600D02*
X431250Y5633600D01*
X1031250Y5633600D02*
X1131250Y5633600D01*
X731250Y5633600D02*
X831250Y5633600D01*
X1831250Y5533600D02*
X1931250Y5533600D01*
X2931250Y5833600D02*
X2931250Y5933600D01*
X2731250Y5633600D02*
X2831250Y5633600D01*
X1331250Y5733600D02*
X1331250Y5833600D01*
X331250Y5733600D02*
X331250Y5833600D01*
X2831250Y5733600D02*
X2831250Y5833600D01*
X2631250Y5933600D02*
X2631250Y6033600D01*
X1931250Y5633600D02*
X2031250Y5633600D01*
X2031250Y5733600D02*
X2031250Y5833600D01*
X2331250Y5733600D02*
X2331250Y5833600D01*
X3031250Y5533600D02*
X3131250Y5533600D01*
X1431250Y5633600D02*
X1531250Y5633600D01*
X831250Y5833600D02*
X831250Y5933600D01*
X331250Y5233600D02*
X331250Y5133600D01*
X2931250Y5533600D02*
X3031250Y5533600D01*
X931250Y5533600D02*
X1031250Y5533600D01*
X1231250Y5833600D02*
X1231250Y5933600D01*
X2431250Y5533600D02*
X2531250Y5533600D01*
X631250Y5433600D02*
X631250Y5333600D01*
X1331250Y5633600D02*
X1431250Y5633600D01*
X1931250Y5233600D02*
X1931250Y5133600D01*
X1031250Y5733600D02*
X1031250Y5833600D01*
X2131250Y5333600D02*
X2131250Y5233600D01*
X431250Y5733600D02*
X431250Y5833600D01*
X731250Y5333600D02*
X731250Y5233600D01*
X1331250Y5233600D02*
X1331250Y5133600D01*
X2831250Y5533600D02*
X2931250Y5533600D01*
X2331250Y5533600D02*
X2431250Y5533600D01*
X1731250Y5833600D02*
X1731250Y5933600D01*
X2231250Y5833600D02*
X2231250Y5933600D01*
X1131250Y5533600D02*
X1231250Y5533600D01*
X1531250Y5733600D02*
X1531250Y5833600D01*
X731250Y5433600D02*
X731250Y5333600D01*
X3131250Y5833600D02*
X3131250Y5933600D01*
X631250Y5333600D02*
X631250Y5233600D01*
X2031250Y5533600D02*
X2131250Y5533600D01*
X331250Y5333600D02*
X331250Y5233600D01*
X631250Y5233600D02*
X631250Y5133600D01*
X531250Y5633600D02*
X631250Y5633600D01*
X3131250Y5933600D02*
X3131250Y6033600D01*
X2631250Y5833600D02*
X2631250Y5933600D01*
X1031250Y5833600D02*
X1031250Y5933600D01*
X2631250Y5733600D02*
X2631250Y5833600D01*
X231250Y5233600D02*
X231250Y5133600D01*
X331250Y5533600D02*
X431250Y5533600D01*
X831250Y5533600D02*
X931250Y5533600D01*
X3131250Y5333600D02*
X3131250Y5233600D01*
X1031250Y5433600D02*
X1031250Y5333600D01*
X3031250Y5833600D02*
X3031250Y5933600D01*
X2731250Y5333600D02*
X2731250Y5233600D01*
X431250Y5233600D02*
X431250Y5133600D01*
X3131250Y5233600D02*
X3131250Y5133600D01*
X231250Y5633600D02*
X331250Y5633600D01*
X2431250Y5733600D02*
X2431250Y5833600D01*
X2931250Y5233600D02*
X2931250Y5133600D01*
X1531250Y5633600D02*
X1631250Y5633600D01*
X3131250Y5433600D02*
X3131250Y5333600D01*
X1931250Y5833600D02*
X1931250Y5933600D01*
X631250Y5533600D02*
X731250Y5533600D01*
X3031250Y5733600D02*
X3031250Y5833600D01*
X2831250Y5833600D02*
X2831250Y5933600D01*
X2331250Y5933600D02*
X2331250Y6033600D01*
X1231250Y5533600D02*
X1331250Y5533600D01*
X2131250Y5733600D02*
X2131250Y5833600D01*
X2131250Y5633600D02*
X2231250Y5633600D01*
X3031250Y5433600D02*
X3031250Y5333600D01*
X1131250Y5933600D02*
X1131250Y6033600D01*
X3031250Y5333600D02*
X3031250Y5233600D01*
X431250Y5533600D02*
X531250Y5533600D01*
X931250Y5433600D02*
X931250Y5333600D01*
X2131250Y5433600D02*
X2131250Y5333600D01*
X2531250Y5933600D02*
X2531250Y6033600D01*
X431250Y5833600D02*
X431250Y5933600D01*
X2631250Y5233600D02*
X2631250Y5133600D01*
X1531250Y5933600D02*
X1531250Y6033600D01*
X331250Y5433600D02*
X331250Y5333600D01*
X2831250Y5933600D02*
X2831250Y6033600D01*
X2031250Y5633600D02*
X2131250Y5633600D01*
X1031250Y5533600D02*
X1131250Y5533600D01*
X931250Y5933600D02*
X931250Y6033600D01*
X3031250Y5933600D02*
X3031250Y6033600D01*
X2231250Y5433600D02*
X2231250Y5333600D01*
X2731250Y5733600D02*
X2731250Y5833600D01*
X1431250Y5833600D02*
X1431250Y5933600D01*
X631250Y5633600D02*
X731250Y5633600D01*
X531250Y5933600D02*
X531250Y6033600D01*
X2031250Y5433600D02*
X2031250Y5333600D01*
X631250Y5833600D02*
X631250Y5933600D01*
X531250Y5833600D02*
X531250Y5933600D01*
X1431250Y5433600D02*
X1431250Y5333600D01*
X3031250Y5233600D02*
X3031250Y5133600D01*
X1231250Y5733600D02*
X1231250Y5833600D01*
X1631250Y5233600D02*
X1631250Y5133600D01*
X2431250Y5833600D02*
X2431250Y5933600D01*
X2331250Y5633600D02*
X2431250Y5633600D01*
X531250Y5533600D02*
X631250Y5533600D01*
X2431250Y5333600D02*
X2431250Y5233600D01*
X231250Y5933600D02*
X231250Y6033600D01*
X2531250Y5833600D02*
X2531250Y5933600D01*
X2231250Y5233600D02*
X2231250Y5133600D01*
X2831250Y5333600D02*
X2831250Y5233600D01*
X1131250Y5633600D02*
X1231250Y5633600D01*
X1831250Y5733600D02*
X1831250Y5833600D01*
X931250Y5833600D02*
X931250Y5933600D01*
X531250Y5733600D02*
X531250Y5833600D01*
X231250Y5533600D02*
X331250Y5533600D01*
X1331250Y5933600D02*
X1331250Y6033600D01*
X2331250Y5833600D02*
X2331250Y5933600D01*
X2131250Y5533600D02*
X2231250Y5533600D01*
X1731250Y5733600D02*
X1731250Y5833600D01*
X2531250Y5233600D02*
X2531250Y5133600D01*
X2931250Y5733600D02*
X2931250Y5833600D01*
X1231250Y5333600D02*
X1231250Y5233600D01*
X1131250Y5333600D02*
X1131250Y5233600D01*
X2731250Y5833600D02*
X2731250Y5933600D01*
X2231250Y5333600D02*
X2231250Y5233600D01*
X931250Y5233600D02*
X931250Y5133600D01*
X1931250Y5433600D02*
X1931250Y5333600D01*
X731250Y5833600D02*
X731250Y5933600D01*
X1931250Y5933600D02*
X1931250Y6033600D01*
X1731250Y5633600D02*
X1831250Y5633600D01*
X931250Y5733600D02*
X931250Y5833600D01*
X2631250Y5433600D02*
X2631250Y5333600D01*
X2831250Y5433600D02*
X2831250Y5333600D01*
X1331250Y5533600D02*
X1431250Y5533600D01*
X1731250Y5233600D02*
X1731250Y5133600D01*
X1531250Y5533600D02*
X1631250Y5533600D01*
X231250Y5733600D02*
X231250Y5833600D01*
X1031250Y5933600D02*
X1031250Y6033600D01*
X1831250Y5633600D02*
X1931250Y5633600D01*
X2031250Y5933600D02*
X2031250Y6033600D01*
X1631250Y5633600D02*
X1731250Y5633600D01*
X2131250Y5233600D02*
X2131250Y5133600D01*
X2931250Y5933600D02*
X2931250Y6033600D01*
X1431250Y5533600D02*
X1531250Y5533600D01*
X2031250Y5833600D02*
X2031250Y5933600D01*
X231250Y5833600D02*
X231250Y5933600D01*
X831250Y5433600D02*
X831250Y5333600D01*
X331250Y5833600D02*
X331250Y5933600D01*
X2731250Y5533600D02*
X2831250Y5533600D01*
X1231250Y5233600D02*
X1231250Y5133600D01*
X1131250Y5833600D02*
X1131250Y5933600D01*
X1831250Y5833600D02*
X1831250Y5933600D01*
X2331250Y5233600D02*
X2331250Y5133600D01*
X2131250Y5833600D02*
X2131250Y5933600D01*
X2131250Y5933600D02*
X2131250Y6033600D01*
X531250Y5233600D02*
X531250Y5133600D01*
X2931250Y5333600D02*
X2931250Y5233600D01*
X2431250Y5633600D02*
X2531250Y5633600D01*
X531250Y5333600D02*
X531250Y5233600D01*
X2831250Y5233600D02*
X2831250Y5133600D01*
X831250Y5233600D02*
X831250Y5133600D01*
X2331250Y5333600D02*
X2331250Y5233600D01*
X3031250Y5633600D02*
X3131250Y5633600D01*
X2431250Y5233600D02*
X2431250Y5133600D01*
X1031250Y5333600D02*
X1031250Y5233600D01*
X1931250Y5333600D02*
X1931250Y5233600D01*
X1631250Y5433600D02*
X1631250Y5333600D01*
X2731250Y5933600D02*
X2731250Y6033600D01*
X1631250Y5733600D02*
X1631250Y5833600D01*
X2231250Y5733600D02*
X2231250Y5833600D01*
X1931250Y5533600D02*
X2031250Y5533600D01*
X1431250Y5733600D02*
X1431250Y5833600D01*
X1131250Y5733600D02*
X1131250Y5833600D01*
X731250Y5233600D02*
X731250Y5133600D01*
X531250Y5433600D02*
X531250Y5333600D01*
X1831250Y5333600D02*
X1831250Y5233600D01*
X1631250Y5533600D02*
X1731250Y5533600D01*
X1331250Y5433600D02*
X1331250Y5333600D01*
X1431250Y5333600D02*
X1431250Y5233600D01*
X831250Y5733600D02*
X831250Y5833600D01*
X1531250Y5833600D02*
X1531250Y5933600D01*
X2031250Y5233600D02*
X2031250Y5133600D01*
X1831250Y5233600D02*
X1831250Y5133600D01*
X2931250Y5633600D02*
X3031250Y5633600D01*
X831250Y5333600D02*
X831250Y5233600D01*
X3131250Y5733600D02*
X3131250Y5833600D01*
X1731250Y5433600D02*
X1731250Y5333600D01*
X1631250Y5833600D02*
X1631250Y5933600D01*
X431250Y5333600D02*
X431250Y5233600D01*
X2431250Y5933600D02*
X2431250Y6033600D01*
X831250Y5633600D02*
X931250Y5633600D01*
X931250Y5633600D02*
X1031250Y5633600D01*
X231250Y5433600D02*
X231250Y5333600D01*
X1831250Y5933600D02*
X1831250Y6033600D01*
X2631250Y5533600D02*
X2731250Y5533600D01*
X1231250Y5633600D02*
X1331250Y5633600D01*
X2531250Y5433600D02*
X2531250Y5333600D01*
X1331250Y5333600D02*
X1331250Y5233600D01*
X431250Y5433600D02*
X431250Y5333600D01*
X1531250Y5333600D02*
X1531250Y5233600D01*
X2031250Y5333600D02*
X2031250Y5233600D01*
X1131250Y5233600D02*
X1131250Y5133600D01*
X1531250Y5433600D02*
X1531250Y5333600D01*
X1031250Y5233600D02*
X1031250Y5133600D01*
X431250Y5633600D02*
X531250Y5633600D01*
X1531250Y5233600D02*
X1531250Y5133600D01*
X231250Y5333600D02*
X231250Y5233600D01*
X1931250Y5733600D02*
X1931250Y5833600D01*
X2431250Y5433600D02*
X2431250Y5333600D01*
X631250Y5733600D02*
X631250Y5833600D01*
X2531250Y5633600D02*
X2631250Y5633600D01*
X1231250Y5433600D02*
X1231250Y5333600D01*
X1731250Y5933600D02*
X1731250Y6033600D01*
X931250Y5333600D02*
X931250Y5233600D01*
X2731250Y5433600D02*
X2731250Y5333600D01*
X731250Y5933600D02*
X731250Y6033600D01*
X2531250Y5733600D02*
X2531250Y5833600D01*
X431250Y5933600D02*
X431250Y6033600D01*
X1231250Y5933600D02*
X1231250Y6033600D01*
X631250Y5933600D02*
X631250Y6033600D01*
X2231250Y5933600D02*
X2231250Y6033600D01*
X2231250Y5633600D02*
X2331250Y5633600D01*
X2731250Y5233600D02*
X2731250Y5133600D01*
X1731250Y5333600D02*
X1731250Y5233600D01*
X2331250Y5433600D02*
X2331250Y5333600D01*
X1331250Y5833600D02*
X1331250Y5933600D01*
X331250Y5933600D02*
X331250Y6033600D01*
X831250Y5933600D02*
X831250Y6033600D01*
D32*
X681250Y733600D02*
X681250Y1733600D01*
X681250Y1733600D02*
X856250Y1733600D01*
D10*
X2937500Y427350D02*
X2937500Y327350D01*
X1537500Y327350D02*
X1537500Y427350D01*
X1718750Y2633600D02*
X1718750Y2727350D01*
X1437500Y327350D02*
X1437500Y227350D01*
X2737500Y327350D02*
X2737500Y227350D01*
X2137500Y627350D02*
X2137500Y527350D01*
X1637500Y527350D02*
X1637500Y427350D01*
X2737500Y427350D02*
X2737500Y327350D01*
X2557825Y2727350D02*
X2612500Y2727350D01*
X2557825Y2727350D02*
X2557825Y2664850D01*
X1800000Y1733600D02*
X1862500Y1833600D01*
X2937500Y627350D02*
X2937500Y527350D01*
X1537500Y2727350D02*
X1718750Y2727350D01*
X2837500Y227350D02*
X2837500Y327350D01*
X887500Y3333600D02*
X887500Y3227350D01*
X1537500Y427350D02*
X1537500Y527350D01*
X2825000Y2533600D02*
X2943750Y2533600D01*
X1862500Y1833600D02*
X2110925Y1833600D01*
X2517175Y1833600D02*
X2700000Y1833600D01*
X2237500Y427350D02*
X2237500Y527350D01*
X3256250Y2727350D02*
X3168750Y2727350D01*
X2700000Y1833600D02*
X2812500Y1746100D01*
X1437500Y527350D02*
X1437500Y427350D01*
X1800000Y1733600D02*
X1704675Y1733600D01*
X1637500Y427350D02*
X1637500Y327350D01*
X1275000Y2682025D02*
X1350000Y2682025D01*
X2110925Y1833600D02*
X2517175Y1833600D01*
X2737500Y527350D02*
X2737500Y427350D01*
X1637500Y327350D02*
X1637500Y227350D01*
X2937500Y527350D02*
X2937500Y427350D01*
X2793750Y2633600D02*
X2754675Y2664850D01*
X2137500Y427350D02*
X2137500Y327350D01*
X2912500Y2633600D02*
X2793750Y2633600D01*
X1537500Y527350D02*
X1537500Y627350D01*
X2137500Y527350D02*
X2137500Y427350D01*
X2212500Y3333600D02*
X2212500Y3114850D01*
X2237500Y527350D02*
X2237500Y627350D01*
X1537500Y227350D02*
X1537500Y327350D01*
X2268750Y2727350D02*
X2557825Y2727350D01*
X2837500Y627350D02*
X2837500Y527350D01*
X2268750Y2727350D02*
X2268750Y2633600D01*
X1637500Y627350D02*
X1637500Y527350D01*
X2837500Y327350D02*
X2837500Y427350D01*
X2812500Y1746100D02*
X2835925Y1733600D01*
X1437500Y427350D02*
X1437500Y327350D01*
X1506250Y2696100D02*
X1537500Y2727350D01*
X2110925Y1833600D02*
X2110925Y1733600D01*
X1718750Y2727350D02*
X2268750Y2727350D01*
X2237500Y227350D02*
X2237500Y327350D01*
X2993750Y2583600D02*
X2993750Y2727350D01*
X2943750Y2533600D02*
X2993750Y2583600D01*
X2237500Y327350D02*
X2237500Y427350D01*
X2137500Y327350D02*
X2137500Y227350D01*
X1437500Y627350D02*
X1437500Y527350D01*
X1362500Y2696100D02*
X1506250Y2696100D01*
X1350000Y2682025D02*
X1362500Y2696100D01*
X2837500Y527350D02*
X2837500Y427350D01*
X2612500Y2727350D02*
X2993750Y2727350D01*
X2517175Y1833600D02*
X2517175Y1733600D01*
X2937500Y327350D02*
X2937500Y227350D01*
X2737500Y627350D02*
X2737500Y527350D01*
X1418750Y3333600D02*
X1418750Y3114850D01*
D34*
X631250Y6333600D02*
X731250Y6333600D01*
X200000Y4333600D02*
X281250Y4414850D01*
X3187500Y4933600D02*
X3218750Y4964850D01*
X250000Y4739850D02*
X125000Y4739850D01*
X1931250Y4833600D02*
X2031250Y4833600D01*
X1031250Y6333600D02*
X1131250Y6333600D01*
X1631250Y5033600D02*
X1731250Y5033600D01*
X1231250Y6133600D02*
X1331250Y6133600D01*
X56250Y733600D02*
X56250Y833600D01*
X231250Y6233600D02*
X331250Y6233600D01*
X631250Y6133600D02*
X731250Y6133600D01*
X2331250Y4933600D02*
X2431250Y4933600D01*
X231250Y6133600D02*
X331250Y6133600D01*
X1631250Y6133600D02*
X1731250Y6133600D01*
X1731250Y6333600D02*
X1831250Y6333600D01*
X231250Y4833600D02*
X331250Y4833600D01*
X431250Y6233600D02*
X531250Y6233600D01*
X1131250Y6233600D02*
X1231250Y6233600D01*
X331250Y4933600D02*
X431250Y4933600D01*
X731250Y4933600D02*
X831250Y4933600D01*
X631250Y4833600D02*
X731250Y4833600D01*
X1331250Y4933600D02*
X1431250Y4933600D01*
X1531250Y6133600D02*
X1631250Y6133600D01*
X1431250Y6133600D02*
X1531250Y6133600D01*
X2831250Y6133600D02*
X2931250Y6133600D01*
X2831250Y4833600D02*
X2931250Y4833600D01*
X1031250Y6133600D02*
X1131250Y6133600D01*
X1431250Y6233600D02*
X1531250Y6233600D01*
X831250Y6233600D02*
X931250Y6233600D01*
X1631250Y6233600D02*
X1731250Y6233600D01*
X3256250Y3577350D02*
X3256250Y4196100D01*
X831250Y6133600D02*
X931250Y6133600D01*
X431250Y5033600D02*
X531250Y5033600D01*
X2956250Y3258600D02*
X2900000Y3333600D01*
X2731250Y6233600D02*
X2831250Y6233600D01*
X2831250Y4933600D02*
X2931250Y4933600D01*
X2231250Y4933600D02*
X2331250Y4933600D01*
X1531250Y6233600D02*
X1631250Y6233600D01*
X2331250Y6133600D02*
X2431250Y6133600D01*
X1631250Y6333600D02*
X1731250Y6333600D01*
X3256250Y4196100D02*
X3212500Y4233600D01*
X2231250Y6233600D02*
X2331250Y6233600D01*
X200000Y3333600D02*
X200000Y4333600D01*
X2731250Y6133600D02*
X2831250Y6133600D01*
X2131250Y4833600D02*
X2231250Y4833600D01*
X2531250Y6333600D02*
X2631250Y6333600D01*
X50000Y6227350D02*
X81250Y6258600D01*
X831250Y6333600D02*
X931250Y6333600D01*
X331250Y6133600D02*
X431250Y6133600D01*
X2031250Y6333600D02*
X2131250Y6333600D01*
X2631250Y6133600D02*
X2731250Y6133600D01*
X731250Y5033600D02*
X831250Y5033600D01*
X1631250Y4833600D02*
X1731250Y4833600D01*
X731250Y6133600D02*
X831250Y6133600D01*
X2831250Y5033600D02*
X2931250Y5033600D01*
X3256250Y214850D02*
X3256250Y1646100D01*
X731250Y6233600D02*
X831250Y6233600D01*
X3200000Y4833600D02*
X3293750Y4927350D01*
X2331250Y5033600D02*
X2431250Y5033600D01*
X2931250Y6133600D02*
X3031250Y6133600D01*
X631250Y6233600D02*
X731250Y6233600D01*
X2031250Y6133600D02*
X2131250Y6133600D01*
X418750Y333600D02*
X1125000Y333600D01*
X2431250Y5033600D02*
X2531250Y5033600D01*
X137500Y233600D02*
X268750Y233600D01*
X2331250Y4833600D02*
X2431250Y4833600D01*
X3218750Y6202350D02*
X3187500Y6233600D01*
X331250Y6333600D02*
X431250Y6333600D01*
X2731250Y6333600D02*
X2831250Y6333600D01*
X3256250Y3258600D02*
X2956250Y3258600D01*
X2164075Y3333600D02*
X1493750Y3333600D01*
X50000Y4914850D02*
X162500Y4914850D01*
X1231250Y6333600D02*
X1331250Y6333600D01*
X531250Y6233600D02*
X631250Y6233600D01*
X2031250Y4833600D02*
X2131250Y4833600D01*
X1431250Y4833600D02*
X1531250Y4833600D01*
X137500Y833600D02*
X56250Y833600D01*
X2331250Y6333600D02*
X2431250Y6333600D01*
X531250Y6333600D02*
X631250Y6333600D01*
X1331250Y5033600D02*
X1431250Y5033600D01*
X1031250Y4933600D02*
X1131250Y4933600D01*
X1831250Y4933600D02*
X1931250Y4933600D01*
X887500Y3333600D02*
X200000Y3333600D01*
X3031250Y6133600D02*
X3131250Y6133600D01*
X1931250Y6333600D02*
X2031250Y6333600D01*
X531250Y4933600D02*
X631250Y4933600D01*
X1931250Y6233600D02*
X2031250Y6233600D01*
X3256250Y3258600D02*
X3256250Y3577350D01*
X2631250Y4933600D02*
X2731250Y4933600D01*
X2031250Y5033600D02*
X2131250Y5033600D01*
X1493750Y3333600D02*
X1418750Y3333600D01*
X631250Y4933600D02*
X731250Y4933600D01*
X1931250Y4933600D02*
X2031250Y4933600D01*
X1731250Y6133600D02*
X1831250Y6133600D01*
X831250Y5033600D02*
X931250Y5033600D01*
X1362500Y4427350D02*
X1362500Y4552350D01*
X1131250Y5033600D02*
X1231250Y5033600D01*
X2212500Y3333600D02*
X2164075Y3333600D01*
X2431250Y6333600D02*
X2531250Y6333600D01*
X50000Y4914850D02*
X50000Y6227350D01*
X2131250Y6233600D02*
X2231250Y6233600D01*
X1131250Y6133600D02*
X1231250Y6133600D01*
X431250Y4933600D02*
X531250Y4933600D01*
X431250Y6333600D02*
X531250Y6333600D01*
X1131250Y6333600D02*
X1231250Y6333600D01*
X1731250Y5033600D02*
X1831250Y5033600D01*
X2931250Y4833600D02*
X3031250Y4833600D01*
X2831250Y6233600D02*
X2931250Y6233600D01*
X200000Y3333600D02*
X56250Y3202350D01*
X1031250Y4833600D02*
X1131250Y4833600D01*
X125000Y4739850D02*
X50000Y4814850D01*
X1418750Y3333600D02*
X887500Y3333600D01*
X631250Y5033600D02*
X731250Y5033600D01*
X1362500Y4552350D02*
X906250Y4552350D01*
X3031250Y5033600D02*
X3131250Y5033600D01*
X137500Y733600D02*
X56250Y733600D01*
X2031250Y4933600D02*
X2131250Y4933600D01*
X1531250Y5033600D02*
X1631250Y5033600D01*
X1731250Y6233600D02*
X1831250Y6233600D01*
X2231250Y5033600D02*
X2331250Y5033600D01*
X450000Y4552350D02*
X381250Y4552350D01*
X931250Y5033600D02*
X1031250Y5033600D01*
X331250Y6233600D02*
X431250Y6233600D01*
X2531250Y4933600D02*
X2631250Y4933600D01*
X2431250Y6233600D02*
X2531250Y6233600D01*
X281250Y4652350D02*
X281250Y4708600D01*
X781250Y4552350D02*
X450000Y4552350D01*
X1731250Y4833600D02*
X1831250Y4833600D01*
X3256250Y2727350D02*
X3256250Y3258600D01*
X1831250Y5033600D02*
X1931250Y5033600D01*
X3256250Y1646100D02*
X3168750Y1646100D01*
X2531250Y6233600D02*
X2631250Y6233600D01*
X268750Y333600D02*
X418750Y333600D01*
X281250Y4708600D02*
X250000Y4739850D01*
X1831250Y6233600D02*
X1931250Y6233600D01*
X3031250Y4833600D02*
X3131250Y4833600D01*
X431250Y6133600D02*
X531250Y6133600D01*
X1431250Y6333600D02*
X1531250Y6333600D01*
X2531250Y4833600D02*
X2631250Y4833600D01*
X1931250Y5033600D02*
X2031250Y5033600D01*
X1031250Y6233600D02*
X1131250Y6233600D01*
X2931250Y5033600D02*
X3031250Y5033600D01*
X3218750Y4964850D02*
X3218750Y6202350D01*
X2231250Y4833600D02*
X2331250Y4833600D01*
X2531250Y6133600D02*
X2631250Y6133600D01*
X2231250Y6133600D02*
X2331250Y6133600D01*
X1831250Y4833600D02*
X1931250Y4833600D01*
X3031250Y6333600D02*
X3131250Y6333600D01*
X3256250Y1646100D02*
X3256250Y2727350D01*
X81250Y6258600D02*
X150000Y6258600D01*
X3031250Y4933600D02*
X3131250Y4933600D01*
X831250Y4933600D02*
X931250Y4933600D01*
X2331250Y6233600D02*
X2431250Y6233600D01*
X2431250Y6133600D02*
X2531250Y6133600D01*
X2631250Y5033600D02*
X2731250Y5033600D01*
X1431250Y5033600D02*
X1531250Y5033600D01*
X331250Y5033600D02*
X431250Y5033600D01*
X2731250Y4933600D02*
X2831250Y4933600D01*
X231250Y4933600D02*
X331250Y4933600D01*
X1731250Y4933600D02*
X1831250Y4933600D01*
X381250Y4833600D02*
X431250Y4833600D01*
X450000Y3464850D02*
X450000Y4552350D01*
X2631250Y6333600D02*
X2731250Y6333600D01*
X1831250Y6133600D02*
X1931250Y6133600D01*
X931250Y6233600D02*
X1031250Y6233600D01*
X2131250Y6333600D02*
X2231250Y6333600D01*
X1631250Y4933600D02*
X1731250Y4933600D01*
X331250Y4833600D02*
X381250Y4833600D01*
X431250Y4833600D02*
X531250Y4833600D01*
X162500Y4914850D02*
X231250Y4933600D01*
X1131250Y4933600D02*
X1231250Y4933600D01*
X2131250Y5033600D02*
X2231250Y5033600D01*
X2131250Y4933600D02*
X2231250Y4933600D01*
X112500Y127350D02*
X3168750Y127350D01*
X1431250Y4933600D02*
X1531250Y4933600D01*
X56250Y3202350D02*
X56250Y833600D01*
X531250Y5033600D02*
X631250Y5033600D01*
X2631250Y6233600D02*
X2731250Y6233600D01*
X1231250Y4933600D02*
X1331250Y4933600D01*
X931250Y6133600D02*
X1031250Y6133600D01*
X2931250Y4933600D02*
X3031250Y4933600D01*
X3168750Y127350D02*
X3256250Y214850D01*
X56250Y189850D02*
X112500Y127350D01*
X1031250Y5033600D02*
X1131250Y5033600D01*
X2431250Y4933600D02*
X2531250Y4933600D01*
X2531250Y5033600D02*
X2631250Y5033600D01*
X2931250Y6233600D02*
X3031250Y6233600D01*
X3200000Y4833600D02*
X3131250Y4833600D01*
X2231250Y6333600D02*
X2331250Y6333600D01*
X2431250Y4833600D02*
X2531250Y4833600D01*
X1331250Y4833600D02*
X1431250Y4833600D01*
X1331250Y6133600D02*
X1431250Y6133600D01*
X1531250Y4933600D02*
X1631250Y4933600D01*
X3293750Y4927350D02*
X3293750Y6264850D01*
X931250Y4933600D02*
X1031250Y4933600D01*
X731250Y4833600D02*
X831250Y4833600D01*
X1531250Y6333600D02*
X1631250Y6333600D01*
X3187500Y6233600D02*
X3131250Y6233600D01*
X150000Y6258600D02*
X231250Y6233600D01*
X1931250Y6133600D02*
X2031250Y6133600D01*
X381250Y4833600D02*
X381250Y4652350D01*
X1125000Y233600D02*
X268750Y233600D01*
X2731250Y5033600D02*
X2831250Y5033600D01*
X1331250Y6233600D02*
X1431250Y6233600D01*
X3031250Y6233600D02*
X3131250Y6233600D01*
X231250Y6333600D02*
X331250Y6333600D01*
X1493750Y3333600D02*
X1495325Y3414850D01*
X2131250Y6133600D02*
X2231250Y6133600D01*
X1131250Y4833600D02*
X1231250Y4833600D01*
X1331250Y6333600D02*
X1431250Y6333600D01*
X531250Y4833600D02*
X631250Y4833600D01*
X2031250Y6233600D02*
X2131250Y6233600D01*
X3218750Y6333600D02*
X3131250Y6333600D01*
X931250Y6333600D02*
X1031250Y6333600D01*
X1231250Y6233600D02*
X1331250Y6233600D01*
X2831250Y6333600D02*
X2931250Y6333600D01*
X931250Y4833600D02*
X1031250Y4833600D01*
X2931250Y6333600D02*
X3031250Y6333600D01*
X731250Y6333600D02*
X831250Y6333600D01*
X3293750Y6264850D02*
X3218750Y6333600D01*
X2164075Y3333600D02*
X2164075Y3414850D01*
X137500Y333600D02*
X268750Y333600D01*
X118750Y4983600D02*
X118750Y6189850D01*
X281250Y4414850D02*
X281250Y4552350D01*
X1831250Y6333600D02*
X1931250Y6333600D01*
X418750Y3439850D02*
X450000Y3464850D01*
X1231250Y5033600D02*
X1331250Y5033600D01*
X231250Y5033600D02*
X331250Y5033600D01*
X2562500Y3333600D02*
X2212500Y3333600D01*
X2631250Y4833600D02*
X2731250Y4833600D01*
X2731250Y4833600D02*
X2831250Y4833600D01*
X1531250Y4833600D02*
X1631250Y4833600D01*
X50000Y4814850D02*
X50000Y4914850D01*
X531250Y6133600D02*
X631250Y6133600D01*
X3256250Y3577350D02*
X3125000Y3577350D01*
X56250Y733600D02*
X56250Y189850D01*
X1231250Y4833600D02*
X1331250Y4833600D01*
X831250Y4833600D02*
X931250Y4833600D01*
X3187500Y4933600D02*
X3131250Y4933600D01*
X3212500Y4233600D02*
X3125000Y4233600D01*
X2900000Y3333600D02*
X2562500Y3333600D01*
D36*
X1125000Y833600D02*
X1125000Y733600D01*
X137500Y833600D02*
X137500Y733600D01*
X137500Y733600D02*
X268750Y733600D01*
X268750Y833600D02*
X268750Y733600D01*
X268750Y733600D02*
X681250Y733600D01*
X137500Y833600D02*
X268750Y833600D01*
X681250Y733600D02*
X1125000Y733600D01*
M02*
