%FSLAX46Y46*%
%MOIN*%
G01*
G75*
%ADD10C,0.040000*%
%ADD11C,0.060000*%
%AMTPC12*21,1,0.062000,0.020000,0.0,0.0,0.000000*21,1,0.020000,0.062000,0.0,0.0,0.000000*%
%ADD12TPC12*%
%ADD13C,0.057000*%
%ADD14C,0.077000*%
%AMTPC15*21,1,0.079000,0.028500,0.0,0.0,0.000000*21,1,0.028500,0.079000,0.0,0.0,0.000000*%
%ADD15TPC15*%
%AMTPC16*21,1,0.079000,0.028500,0.0,0.0,-90.000000*21,1,0.028500,0.079000,0.0,0.0,-90.000000*%
%ADD16TPC16*%
%AMTPC17*21,1,0.079000,0.028500,0.0,0.0,-180.000000*21,1,0.028500,0.079000,0.0,0.0,-180.000000*%
%ADD17TPC17*%
%AMTPC18*21,1,0.079000,0.028500,0.0,0.0,-270.000000*21,1,0.028500,0.079000,0.0,0.0,-270.000000*%
%ADD18TPC18*%
%AMRECT19*21,1,0.057000,0.057000,0.0,0.0,0.000000*%
%ADD19RECT19*%
%AMRECT20*21,1,0.077000,0.077000,0.0,0.0,0.000000*%
%ADD20RECT20*%
%AMRECT21*21,1,0.057000,0.057000,0.0,0.0,-90.000000*%
%ADD21RECT21*%
%AMRECT22*21,1,0.077000,0.077000,0.0,0.0,-90.000000*%
%ADD22RECT22*%
%AMRECT23*21,1,0.057000,0.057000,0.0,0.0,-180.000000*%
%ADD23RECT23*%
%AMRECT24*21,1,0.077000,0.077000,0.0,0.0,-180.000000*%
%ADD24RECT24*%
%AMRECT25*21,1,0.057000,0.057000,0.0,0.0,-270.000000*%
%ADD25RECT25*%
%AMRECT26*21,1,0.077000,0.077000,0.0,0.0,-270.000000*%
%ADD26RECT26*%
%ADD27C,0.010000*%
%ADD28C,0.030000*%
%ADD29C,0.020000*%
%ADD30C,0.040000*%
%ADD31C,0.030000*%
%ADD32C,0.050000*%
%ADD33C,0.050000*%
%ADD34C,0.070000*%
%ADD35C,0.060000*%
%ADD36C,0.080000*%
G01X3262500Y4733600D02*
G36*
X3306250Y4696100D01*
X3312500Y196100D01*
X3268750Y152350D01*
X87500Y152350D01*
X50000Y196100D01*
X50000Y3202350D01*
X87500Y3233600D01*
X87500Y4452350D01*
X112500Y4477350D01*
X1043750Y4477350D01*
X1243750Y4733600D01*
X3262500Y4733600D01*
G37*
%LPC*%
G01X1381250Y3164850D02*
G36*
X2181250Y3164850D01*
X2275000Y3277350D01*
X2681250Y3277350D01*
X2800000Y3427350D01*
X2918750Y3427350D01*
X2956250Y3389850D01*
X3200000Y3389850D01*
X3175000Y3114850D01*
X3068750Y3083600D01*
X2968750Y3083600D01*
X2962500Y3077350D01*
X2962500Y2889850D01*
X2950000Y2877350D01*
X2875000Y2877350D01*
X2856250Y2858600D01*
X2856250Y2583600D01*
X2975000Y2514850D01*
X2975000Y1902350D01*
X2956250Y1883600D01*
X1362500Y1883600D01*
X1293750Y1946100D01*
X1293750Y2071100D01*
X1368750Y2133600D01*
X1368750Y3152350D01*
X1381250Y3164850D01*
G37*
G01X637500Y1877350D02*
G36*
X612500Y1908600D01*
X662500Y2021100D01*
X706250Y2008600D01*
X637500Y1877350D01*
G37*
G01X1656250Y1658600D02*
G36*
X1568750Y1658600D01*
X1593750Y1696100D01*
X1631250Y1696100D01*
X1656250Y1658600D01*
G37*
G01X2975000Y702350D02*
G36*
X1306250Y702350D01*
X1262500Y739850D01*
X1262500Y1671100D01*
X1293750Y1702350D01*
X1387500Y1702350D01*
X1425000Y1671100D01*
X2756250Y1671100D01*
X2831250Y1764850D01*
X3175000Y1652350D01*
X3025000Y1546100D01*
X3025000Y758600D01*
X2975000Y702350D01*
G37*
G01X1050000Y2002350D02*
G36*
X1012500Y2014850D01*
X1006250Y1796100D01*
X987500Y1739850D01*
X1050000Y1714850D01*
X1050000Y2002350D01*
G37*
D11*
X2981250Y1589850D03*
X2806250Y1646100D03*
X2812500Y3402350D03*
X1768750Y1814850D03*
X418750Y333600D03*
X1475000Y2746100D03*
X118750Y4983600D03*
X2718750Y1433600D03*
X1937500Y983600D03*
X2756250Y2083600D03*
X3168750Y2727350D03*
X3093750Y3152350D03*
X2856250Y1602350D03*
X1543750Y2433600D03*
X3162500Y3139850D03*
X2368750Y2427350D03*
X687500Y1989850D03*
X418750Y3439850D03*
X1768750Y3027350D03*
X3056250Y3364850D03*
X3168750Y1646100D03*
X2806250Y983600D03*
X743750Y2733600D03*
X1037500Y1983600D03*
X1656250Y1371100D03*
X1568750Y1483600D03*
X2812500Y3208600D03*
X1650000Y1033600D03*
X2562500Y3177350D03*
X1937500Y883600D03*
X1487500Y1333600D03*
X1325000Y2052350D03*
X993750Y1764850D03*
X2718750Y1283600D03*
X1037500Y1733600D03*
X1512500Y1389850D03*
X656250Y2483600D03*
X3131250Y3364850D03*
X2993750Y2727350D03*
X1975000Y1183600D03*
X2037500Y1383600D03*
X2706250Y2571100D03*
X681250Y1733600D03*
X1562500Y1233600D03*
X2118750Y2789850D03*
X2912500Y2633600D03*
X1306250Y1133600D03*
X3093750Y3321100D03*
X1600000Y3514850D03*
X3131250Y3196100D03*
X1568750Y2871100D03*
X625000Y1933600D03*
X650000Y2183600D03*
X1087500Y3408600D03*
X1825000Y1658600D03*
X1612500Y1571100D03*
X656250Y2733600D03*
X3056250Y3102350D03*
X1325000Y1983600D03*
X2450000Y1589850D03*
X2912500Y3402350D03*
X1975000Y1333600D03*
X3187500Y3364850D03*
X1325000Y1664850D03*
X556250Y2983600D03*
X743750Y2083600D03*
X1306250Y1233600D03*
X1000000Y2083600D03*
X887500Y3227350D03*
X2712500Y2139850D03*
X1612500Y1683600D03*
X2037500Y1233600D03*
X118750Y6189850D03*
X1600000Y3233600D03*
X1487500Y1183600D03*
X1987500Y1083600D03*
X1606250Y1133600D03*
X3000000Y3364850D03*
X3000000Y3102350D03*
X2856250Y796100D03*
D14*
X1818750Y1933600D03*
X950000Y2483600D03*
X2625000Y2233600D03*
X2368750Y1927350D03*
X1818750Y2233600D03*
X1818750Y2333600D03*
X2925000Y2033600D03*
X2625000Y2033600D03*
X2368750Y2127350D03*
X1818750Y2033600D03*
X1818750Y2133600D03*
X1818750Y2433600D03*
X2368750Y2327350D03*
X2925000Y1933600D03*
X2625000Y2133600D03*
X2368750Y2027350D03*
X2368750Y2227350D03*
X2925000Y2133600D03*
X950000Y2283600D03*
X950000Y2383600D03*
X1718750Y3233600D03*
X1418750Y2914850D03*
X1818750Y3233600D03*
X2512500Y2914850D03*
X1618750Y2914850D03*
X1518750Y2914850D03*
X1918750Y3233600D03*
X1718750Y2914850D03*
X2412500Y2914850D03*
X2412500Y3227350D03*
X2512500Y3227350D03*
X2312500Y3227350D03*
X2212500Y2914850D03*
X2131250Y5433600D03*
X2231250Y6233600D03*
X1131250Y5333600D03*
X231250Y6133600D03*
X1131250Y5033600D03*
X2031250Y5633600D03*
X3131250Y5633600D03*
X3031250Y5533600D03*
X2831250Y6033600D03*
X1931250Y5333600D03*
X137500Y1133600D03*
X2731250Y5233600D03*
X831250Y6033600D03*
X631250Y5233600D03*
X1331250Y5133600D03*
X1718750Y1033600D03*
X1125000Y733600D03*
X1431250Y6233600D03*
X1718750Y2533600D03*
X268750Y833600D03*
X1431250Y5533600D03*
X918750Y3533600D03*
X1831250Y5433600D03*
X2231250Y5633600D03*
X831250Y5433600D03*
X1125000Y2833600D03*
X2268750Y2233600D03*
X993750Y1333600D03*
X2031250Y5933600D03*
X268750Y2133600D03*
X2931250Y5233600D03*
X2831250Y4933600D03*
X268750Y1133600D03*
X1125000Y333600D03*
X231250Y5233600D03*
X2937500Y1333600D03*
X2631250Y5033600D03*
X2631250Y5533600D03*
X3031250Y5933600D03*
X1031250Y4833600D03*
X1431250Y5933600D03*
X2031250Y5233600D03*
X268750Y1033600D03*
X1731250Y5133600D03*
X1718750Y2033600D03*
X1718750Y833600D03*
X2731250Y5533600D03*
X1931250Y4933600D03*
X2937500Y833600D03*
X3131250Y4933600D03*
X631250Y5033600D03*
X2125000Y1133600D03*
X1131250Y4933600D03*
X1331250Y6233600D03*
X2531250Y1533600D03*
X1631250Y5433600D03*
X268750Y2333600D03*
X3031250Y4933600D03*
X1731250Y6033600D03*
X1831250Y5233600D03*
X431250Y5433600D03*
X2831250Y6133600D03*
X2931250Y4933600D03*
X331250Y5933600D03*
X2531250Y6033600D03*
X1031250Y5533600D03*
X3131250Y4833600D03*
X1231250Y5233600D03*
X1731250Y5633600D03*
X2931250Y5733600D03*
X2825000Y2233600D03*
X2931250Y5033600D03*
X1331250Y6133600D03*
X137500Y433600D03*
X2931250Y5833600D03*
X631250Y5733600D03*
X731250Y5833600D03*
X231250Y5533600D03*
X2231250Y5333600D03*
X137500Y1233600D03*
X1531250Y5733600D03*
X2268750Y1933600D03*
X137500Y333600D03*
X531250Y6233600D03*
X1931250Y5233600D03*
X1131250Y6133600D03*
X1125000Y1133600D03*
X2531250Y5133600D03*
X1931250Y6033600D03*
X2231250Y5233600D03*
X431250Y5733600D03*
X231250Y5633600D03*
X1931250Y5133600D03*
X2531250Y1133600D03*
X1831250Y6033600D03*
X531250Y5933600D03*
X2531250Y5633600D03*
X3031250Y5733600D03*
X1231250Y5933600D03*
X2831250Y5933600D03*
X2331250Y6233600D03*
X1931250Y5833600D03*
X268750Y3033600D03*
X831250Y5933600D03*
X1718750Y1333600D03*
X137500Y1533600D03*
X2231250Y6033600D03*
X2031250Y5033600D03*
X1931250Y5033600D03*
X731250Y5233600D03*
X1931250Y5533600D03*
X268750Y633600D03*
X268750Y2033600D03*
X431250Y6133600D03*
X231250Y5833600D03*
X431250Y5233600D03*
X1125000Y1233600D03*
X856250Y2083600D03*
X2431250Y5333600D03*
X2531250Y933600D03*
X2931250Y6133600D03*
X1531250Y4933600D03*
X2931250Y5133600D03*
X2931250Y4833600D03*
X3031250Y5433600D03*
X1031250Y5333600D03*
X2331250Y5633600D03*
X1125000Y433600D03*
X2431250Y5433600D03*
X2231250Y4933600D03*
X2331250Y5033600D03*
X2268750Y2533600D03*
X1531250Y5333600D03*
X631250Y5333600D03*
X1331250Y5933600D03*
X1831250Y5733600D03*
X268750Y733600D03*
X1331250Y5733600D03*
X2431250Y5633600D03*
X1931250Y6133600D03*
X1131250Y6233600D03*
X3125000Y4333600D03*
X631250Y5533600D03*
X1231250Y6233600D03*
X2831250Y5633600D03*
X1531250Y6033600D03*
X3031250Y5033600D03*
X331250Y5633600D03*
X137500Y633600D03*
X1931250Y5633600D03*
X3031250Y6233600D03*
X2731250Y5033600D03*
X731250Y5533600D03*
X3131250Y6033600D03*
X3131250Y5733600D03*
X2431250Y5533600D03*
X2431250Y4833600D03*
X1831250Y4833600D03*
X268750Y1533600D03*
X2231250Y6133600D03*
X631250Y5433600D03*
X993750Y933600D03*
X831250Y6133600D03*
X1431250Y5433600D03*
X1831250Y5833600D03*
X856250Y1983600D03*
X331250Y4933600D03*
X2431250Y5933600D03*
X1231250Y5633600D03*
X1718750Y2433600D03*
X1731250Y4933600D03*
X268750Y1733600D03*
X2031250Y4933600D03*
X1718750Y1433600D03*
X137500Y2633600D03*
X2731250Y5633600D03*
X1125000Y1533600D03*
X3031250Y5833600D03*
X631250Y6033600D03*
X1731250Y5933600D03*
X1931250Y5933600D03*
X2931250Y5333600D03*
X2131250Y5233600D03*
X631250Y4833600D03*
X2825000Y2333600D03*
X1631250Y5033600D03*
X1718750Y2633600D03*
X1531250Y5533600D03*
X2431250Y5833600D03*
X2031250Y5333600D03*
X2131250Y5833600D03*
X137500Y2933600D03*
X1131250Y5833600D03*
X331250Y6133600D03*
X1631250Y5633600D03*
X331250Y6033600D03*
X856250Y1233600D03*
X1631250Y5533600D03*
X1125000Y633600D03*
X1731250Y5233600D03*
X1718750Y1133600D03*
X1831250Y5533600D03*
X3125000Y3577350D03*
X1531250Y5833600D03*
X431250Y6233600D03*
X731250Y5633600D03*
X1031250Y5733600D03*
X856250Y2383600D03*
X3125000Y3777350D03*
X2268750Y2633600D03*
X2731250Y6233600D03*
X731250Y5333600D03*
X2631250Y5833600D03*
X831250Y4933600D03*
X2531250Y5233600D03*
X1431250Y5233600D03*
X1231250Y4833600D03*
X931250Y6133600D03*
X2131250Y5733600D03*
X3031250Y4833600D03*
X856250Y1733600D03*
X931250Y5333600D03*
X2531250Y833600D03*
X137500Y1933600D03*
X1125000Y1933600D03*
X2125000Y833600D03*
X2531250Y4933600D03*
X1331250Y4833600D03*
X2131250Y6033600D03*
X1031250Y6233600D03*
X2937500Y1233600D03*
X631250Y5933600D03*
X993750Y1433600D03*
X2631250Y5233600D03*
X1331250Y4933600D03*
X2131250Y4933600D03*
X431250Y5633600D03*
X1531250Y5933600D03*
X1331250Y5333600D03*
X137500Y1633600D03*
X268750Y933600D03*
X137500Y2133600D03*
X2531250Y6233600D03*
X993750Y1133600D03*
X331250Y6233600D03*
X1731250Y4833600D03*
X2937500Y1033600D03*
X1125000Y233600D03*
X268750Y2533600D03*
X2731250Y4933600D03*
X531250Y5533600D03*
X1531250Y5633600D03*
X2231250Y5133600D03*
X1131250Y5633600D03*
X2431250Y5733600D03*
X431250Y4933600D03*
X2931250Y5533600D03*
X1631250Y5133600D03*
X1125000Y933600D03*
X2831250Y5533600D03*
X1718750Y1233600D03*
X137500Y3033600D03*
X531250Y6033600D03*
X2631250Y4933600D03*
X3125000Y4233600D03*
X3031250Y6033600D03*
X2937500Y933600D03*
X1031250Y5933600D03*
X831250Y5833600D03*
X268750Y2233600D03*
X1125000Y3033600D03*
X931250Y5733600D03*
X431250Y5833600D03*
X856250Y933600D03*
X1631250Y6133600D03*
X331250Y4833600D03*
X1031250Y5133600D03*
X2331250Y5433600D03*
X856250Y833600D03*
X831250Y4833600D03*
X1331250Y5233600D03*
X2931250Y5633600D03*
X331250Y5533600D03*
X2331250Y4833600D03*
X531250Y5133600D03*
X531250Y5733600D03*
X993750Y1233600D03*
X1031250Y5633600D03*
X856250Y1433600D03*
X1031250Y5033600D03*
X331250Y5833600D03*
X2531250Y5333600D03*
X1125000Y1433600D03*
X2825000Y2433600D03*
X631250Y4933600D03*
X268750Y1833600D03*
X931250Y6233600D03*
X2431250Y5233600D03*
X831250Y5133600D03*
X268750Y2633600D03*
X1031250Y6133600D03*
X2937500Y1433600D03*
X1331250Y6033600D03*
X331250Y5133600D03*
X1331250Y5633600D03*
X2268750Y2033600D03*
X231250Y5033600D03*
X1731250Y5733600D03*
X268750Y1933600D03*
X137500Y1333600D03*
X137500Y1033600D03*
X2031250Y5133600D03*
X2431250Y6233600D03*
X137500Y2433600D03*
X2831250Y6233600D03*
X2125000Y1033600D03*
X731250Y5733600D03*
X931250Y5933600D03*
X1331250Y5533600D03*
X3125000Y3877350D03*
X2231250Y5033600D03*
X1531250Y5033600D03*
X2431250Y5133600D03*
X2531250Y5833600D03*
X1231250Y4933600D03*
X2331250Y5833600D03*
X2125000Y933600D03*
X2331250Y4933600D03*
X1031250Y5433600D03*
X1125000Y533600D03*
X1631250Y5833600D03*
X2731250Y5733600D03*
X731250Y5033600D03*
X331250Y5433600D03*
X1831250Y5633600D03*
X1631250Y5333600D03*
X2331250Y5533600D03*
X1231250Y5133600D03*
X1231250Y5833600D03*
X1431250Y5133600D03*
X1431250Y5633600D03*
X1431250Y5333600D03*
X831250Y5633600D03*
X1131250Y4833600D03*
X1718750Y933600D03*
X3125000Y3677350D03*
X731250Y5433600D03*
X2231250Y5533600D03*
X2431250Y6033600D03*
X2531250Y5033600D03*
X2331250Y5233600D03*
X856250Y1333600D03*
X268750Y433600D03*
X1731250Y5533600D03*
X231250Y6233600D03*
X137500Y2733600D03*
X431250Y5033600D03*
X2431250Y5033600D03*
X631250Y5133600D03*
X1831250Y5133600D03*
X2731250Y6033600D03*
X3031250Y5233600D03*
X1731250Y5033600D03*
X2831250Y5233600D03*
X1131250Y5133600D03*
X1331250Y5433600D03*
X1131250Y5233600D03*
X431250Y5533600D03*
X931250Y5633600D03*
X2531250Y4833600D03*
X2937500Y1533600D03*
X2731250Y5933600D03*
X1831250Y4933600D03*
X231250Y5433600D03*
X268750Y1333600D03*
X1431250Y4933600D03*
X2031250Y5533600D03*
X2231250Y4833600D03*
X137500Y933600D03*
X1231250Y5433600D03*
X931250Y5433600D03*
X2031250Y5433600D03*
X531250Y4833600D03*
X1125000Y2033600D03*
X731250Y6133600D03*
X2731250Y5133600D03*
X531250Y5333600D03*
X831250Y5233600D03*
X1631250Y6033600D03*
X2268750Y2333600D03*
X2531250Y5433600D03*
X1931250Y5433600D03*
X1431250Y4833600D03*
X2131250Y6233600D03*
X1431250Y6133600D03*
X3131250Y5233600D03*
X2231250Y5833600D03*
X231250Y5133600D03*
X1018750Y3533600D03*
X931250Y4833600D03*
X631250Y6133600D03*
X2125000Y1533600D03*
X2331250Y5333600D03*
X2631250Y5133600D03*
X1718750Y2233600D03*
X3131250Y6233600D03*
X1231250Y5533600D03*
X137500Y233600D03*
X2937500Y1133600D03*
X2531250Y1033600D03*
X431250Y5133600D03*
X631250Y6233600D03*
X1131250Y5433600D03*
X1531250Y6233600D03*
X431250Y5333600D03*
X268750Y1233600D03*
X856250Y2183600D03*
X281250Y4552350D03*
X856250Y2283600D03*
X3131250Y5133600D03*
X856250Y2483600D03*
X1831250Y5933600D03*
X2431250Y6133600D03*
X1231250Y5333600D03*
X3131250Y5533600D03*
X3031250Y5133600D03*
X2831250Y5833600D03*
X731250Y4833600D03*
X1231250Y5033600D03*
X1131250Y5533600D03*
X1431250Y6033600D03*
X137500Y1833600D03*
X2125000Y1233600D03*
X1731250Y6233600D03*
X181250Y4552350D03*
X1931250Y4833600D03*
X1275000Y2485175D03*
X3131250Y5033600D03*
X2531250Y1433600D03*
X231250Y4933600D03*
X137500Y733600D03*
X2125000Y1333600D03*
X2831250Y5033600D03*
X931250Y5233600D03*
X2331250Y5933600D03*
X856250Y1633600D03*
X2131250Y5633600D03*
X2631250Y5633600D03*
X1631250Y5933600D03*
X2831250Y5733600D03*
X1231250Y5733600D03*
X993750Y833600D03*
X331250Y5333600D03*
X1631250Y6233600D03*
X2531250Y6133600D03*
X1431250Y5033600D03*
X231250Y5733600D03*
X731250Y6033600D03*
X1718750Y2133600D03*
X1831250Y6133600D03*
X268750Y2833600D03*
X1831250Y5333600D03*
X1718750Y2333600D03*
X3131250Y6133600D03*
X2531250Y5933600D03*
X856250Y1533600D03*
X268750Y533600D03*
X831250Y6233600D03*
X1631250Y4833600D03*
X2131250Y5033600D03*
X1125000Y2333600D03*
X931250Y6033600D03*
X2131250Y5333600D03*
X1331250Y5833600D03*
X2031250Y5833600D03*
X1125000Y1733600D03*
X1031250Y5833600D03*
X2531250Y5733600D03*
X2731250Y5833600D03*
X1431250Y5833600D03*
X268750Y2933600D03*
X2131250Y4833600D03*
X1831250Y5033600D03*
X631250Y5833600D03*
X531250Y5833600D03*
X531250Y5633600D03*
X1125000Y2733600D03*
X631250Y5633600D03*
X2331250Y5133600D03*
X931250Y5533600D03*
X2831250Y5133600D03*
X431250Y4833600D03*
X1531250Y5433600D03*
X2831250Y4833600D03*
X231250Y5933600D03*
X331250Y5233600D03*
X1125000Y2233600D03*
X1231250Y6033600D03*
X731250Y5933600D03*
X1431250Y5733600D03*
X2831250Y5433600D03*
X531250Y5233600D03*
X831250Y5033600D03*
X2631250Y6133600D03*
X2631250Y5333600D03*
X2631250Y5433600D03*
X2731250Y5333600D03*
X2268750Y2433600D03*
X793750Y4071100D03*
X1125000Y1833600D03*
X2631250Y6033600D03*
X2031250Y6033600D03*
X3125000Y4133600D03*
X1631250Y5733600D03*
X1631250Y4933600D03*
X1131250Y5733600D03*
X137500Y1733600D03*
X993750Y1533600D03*
X2031250Y6133600D03*
X2731250Y5433600D03*
X2631250Y5733600D03*
X1125000Y833600D03*
X531250Y6133600D03*
X431250Y5933600D03*
X1718750Y1933600D03*
X137500Y833600D03*
X137500Y2833600D03*
X268750Y1433600D03*
X331250Y5733600D03*
X856250Y1033600D03*
X1731250Y6133600D03*
X2531250Y1333600D03*
X856250Y2583600D03*
X1125000Y2533600D03*
X2531250Y1233600D03*
X137500Y2233600D03*
X2231250Y5933600D03*
X1131250Y6033600D03*
X2631250Y6233600D03*
X2731250Y4833600D03*
X137500Y1433600D03*
X931250Y4933600D03*
X231250Y5333600D03*
X268750Y333600D03*
X1731250Y5433600D03*
X231250Y4833600D03*
X1125000Y2433600D03*
X1531250Y4833600D03*
X3131250Y5933600D03*
X2831250Y5333600D03*
X2825000Y2133600D03*
X831250Y5333600D03*
X931250Y5833600D03*
X2531250Y5533600D03*
X231250Y6033600D03*
X1931250Y5733600D03*
X268750Y233600D03*
X2131250Y6133600D03*
X1531250Y5133600D03*
X2931250Y5933600D03*
X731250Y6233600D03*
X2131250Y5533600D03*
X1125000Y1633600D03*
X2631250Y5933600D03*
X137500Y533600D03*
X731250Y4933600D03*
X831250Y5733600D03*
X731250Y5133600D03*
X2131250Y5933600D03*
X137500Y2333600D03*
X531250Y5433600D03*
X268750Y2433600D03*
X3131250Y5433600D03*
X531250Y4933600D03*
X2431250Y4933600D03*
X137500Y2533600D03*
X3131250Y5333600D03*
X3031250Y5633600D03*
X856250Y1133600D03*
X2331250Y6033600D03*
X931250Y5133600D03*
X1031250Y4933600D03*
X2931250Y6233600D03*
X2031250Y6233600D03*
X2825000Y1933600D03*
X1718750Y1533600D03*
X1125000Y2933600D03*
X931250Y5033600D03*
X2031250Y5733600D03*
X1931250Y6233600D03*
X1731250Y5333600D03*
X1531250Y6133600D03*
X3131250Y5833600D03*
X531250Y5033600D03*
X2731250Y6133600D03*
X2631250Y4833600D03*
X2268750Y2133600D03*
X2231250Y5733600D03*
X1331250Y5033600D03*
X1131250Y5933600D03*
X1125000Y2633600D03*
X268750Y2733600D03*
X2331250Y6133600D03*
X1125000Y1033600D03*
X3031250Y6133600D03*
X431250Y6033600D03*
X2825000Y2533600D03*
X1531250Y5233600D03*
X2331250Y5733600D03*
X1231250Y6133600D03*
X331250Y5033600D03*
X3125000Y3477350D03*
X1031250Y6033600D03*
X2131250Y5133600D03*
X137500Y2033600D03*
X1125000Y2133600D03*
X381250Y4552350D03*
X706250Y483600D03*
X2931250Y6033600D03*
X1631250Y5233600D03*
X2031250Y4833600D03*
X1831250Y6233600D03*
X2825000Y2033600D03*
X831250Y5533600D03*
X2931250Y5433600D03*
X2231250Y5433600D03*
X2125000Y1433600D03*
X1031250Y5233600D03*
X3031250Y5333600D03*
X1125000Y1333600D03*
X1731250Y5833600D03*
X993750Y1033600D03*
X268750Y1633600D03*
X2362500Y3702350D03*
X1562500Y3702350D03*
X2737500Y627350D03*
X1737500Y427350D03*
X1837500Y427350D03*
X2437500Y627350D03*
X2337500Y227350D03*
X2537500Y627350D03*
X2662500Y3827350D03*
X1537500Y627350D03*
X1437500Y627350D03*
X2037500Y227350D03*
X2637500Y427350D03*
X1437500Y327350D03*
X2837500Y627350D03*
X1937500Y527350D03*
X2637500Y527350D03*
X2037500Y427350D03*
X2037500Y327350D03*
X2262500Y3827350D03*
X1537500Y227350D03*
X2437500Y427350D03*
X2837500Y327350D03*
X1662500Y3827350D03*
X1662500Y3702350D03*
X2162500Y3702350D03*
X1437500Y227350D03*
X1818750Y2814850D03*
X2312500Y2814850D03*
X2537500Y427350D03*
X1537500Y327350D03*
X2562500Y3827350D03*
X2137500Y627350D03*
X1937500Y327350D03*
X2337500Y527350D03*
X2062500Y3702350D03*
X1718750Y2814850D03*
X2462500Y3702350D03*
X2537500Y227350D03*
X1837500Y327350D03*
X1537500Y427350D03*
X2612500Y2814850D03*
X1362500Y3827350D03*
X1618750Y2814850D03*
X2562500Y3702350D03*
X2737500Y227350D03*
X1462500Y3827350D03*
X2018750Y2814850D03*
X2512500Y2814850D03*
X2237500Y527350D03*
X1737500Y627350D03*
X2362500Y3827350D03*
X2437500Y327350D03*
X2062500Y3827350D03*
X1918750Y2814850D03*
X1837500Y227350D03*
X1762500Y3702350D03*
X1562500Y3827350D03*
X2137500Y227350D03*
X1437500Y527350D03*
X2037500Y527350D03*
X2737500Y527350D03*
X2337500Y627350D03*
X2737500Y427350D03*
X2137500Y427350D03*
X2812500Y2814850D03*
X1637500Y427350D03*
X1437500Y427350D03*
X1462500Y3702350D03*
X807825Y2846100D03*
X1862500Y3702350D03*
X1937500Y427350D03*
X2637500Y227350D03*
X1518750Y2814850D03*
X1937500Y227350D03*
X2737500Y327350D03*
X2437500Y227350D03*
X1937500Y627350D03*
X1637500Y327350D03*
X2762500Y3702350D03*
X781250Y4552350D03*
X2912500Y2814850D03*
X2437500Y527350D03*
X1637500Y227350D03*
X2237500Y327350D03*
X2237500Y427350D03*
X2837500Y227350D03*
X2412500Y2814850D03*
X1962500Y3827350D03*
X2837500Y427350D03*
X2237500Y627350D03*
X1737500Y327350D03*
X2762500Y3827350D03*
X1737500Y227350D03*
X2337500Y427350D03*
X1837500Y627350D03*
X2137500Y527350D03*
X1837500Y527350D03*
X1637500Y527350D03*
X2462500Y3827350D03*
X1362500Y3702350D03*
X2537500Y327350D03*
X2537500Y527350D03*
X1962500Y3702350D03*
X2262500Y3702350D03*
X1862500Y3827350D03*
X2712500Y2814850D03*
X1762500Y3827350D03*
X2637500Y327350D03*
X2037500Y627350D03*
X2162500Y3827350D03*
X2837500Y527350D03*
X2237500Y227350D03*
X1537500Y527350D03*
X1637500Y627350D03*
X2337500Y327350D03*
X2662500Y3702350D03*
X1737500Y527350D03*
X2137500Y327350D03*
X2637500Y627350D03*
X1825000Y833600D03*
X1968750Y1933600D03*
X1418750Y2133600D03*
X2637500Y833600D03*
X2525000Y2233600D03*
X1418750Y1133600D03*
X1418750Y1333600D03*
X556250Y1983600D03*
X2231250Y1333600D03*
X556250Y2383600D03*
X1825000Y933600D03*
X1418750Y2033600D03*
X1418750Y2533600D03*
X556250Y2183600D03*
X2231250Y1133600D03*
X1418750Y2433600D03*
X2525000Y1933600D03*
X1825000Y1133600D03*
X1825000Y1233600D03*
X2637500Y933600D03*
X556250Y1633600D03*
X1418750Y1933600D03*
X2231250Y1033600D03*
X2637500Y1433600D03*
X556250Y1233600D03*
X2231250Y833600D03*
X556250Y933600D03*
X2525000Y2033600D03*
X556250Y1033600D03*
X556250Y833600D03*
X2525000Y2333600D03*
X556250Y2283600D03*
X1968750Y2233600D03*
X556250Y2483600D03*
X1968750Y2533600D03*
X2637500Y1033600D03*
X2231250Y1233600D03*
X1825000Y1033600D03*
X556250Y2083600D03*
X1968750Y2433600D03*
X556250Y1333600D03*
X556250Y1533600D03*
X1825000Y1433600D03*
X1418750Y2233600D03*
X556250Y1433600D03*
X1418750Y933600D03*
X1418750Y1433600D03*
X1825000Y1333600D03*
X2231250Y1433600D03*
X1968750Y2133600D03*
X1968750Y2033600D03*
X1418750Y833600D03*
X556250Y1133600D03*
X2637500Y1333600D03*
X1418750Y1233600D03*
X1418750Y1033600D03*
X1968750Y2333600D03*
X2637500Y1233600D03*
X2525000Y2433600D03*
X2637500Y1133600D03*
X2525000Y2133600D03*
X1418750Y2333600D03*
X2231250Y933600D03*
X1918750Y3114850D03*
X1618750Y3114850D03*
X2562500Y4427350D03*
X1562500Y4552350D03*
X2212500Y3114850D03*
X2362500Y4427350D03*
X1418750Y3114850D03*
X1718750Y3114850D03*
X1518750Y3114850D03*
X929675Y1858600D03*
X2562500Y4552350D03*
X2662500Y4427350D03*
X1662500Y4552350D03*
X2812500Y3114850D03*
X2362500Y4552350D03*
X2462500Y4552350D03*
X2262500Y4427350D03*
X1862500Y4552350D03*
X1562500Y4427350D03*
X1818750Y3114850D03*
X1762500Y4552350D03*
X2062500Y4427350D03*
X2262500Y4552350D03*
X1662500Y4427350D03*
X2062500Y4552350D03*
X1462500Y4427350D03*
X2412500Y3114850D03*
X2360925Y3414850D03*
X1862500Y4427350D03*
X2162500Y4552350D03*
X1762500Y4427350D03*
X1962500Y4427350D03*
X1362500Y4427350D03*
X2754675Y2664850D03*
X2912500Y3114850D03*
X2162500Y4427350D03*
X2512500Y3114850D03*
X2018750Y3114850D03*
X1462500Y4552350D03*
X2462500Y4427350D03*
X2517175Y1733600D03*
X1692175Y3414850D03*
X2712500Y3114850D03*
X2662500Y4552350D03*
X1704675Y1733600D03*
X2110925Y1733600D03*
X2835925Y1733600D03*
X2612500Y3114850D03*
X1362500Y4552350D03*
X2312500Y3114850D03*
X1962500Y4552350D03*
D20*
X1031250Y6333600D03*
X2131250Y6333600D03*
X3125000Y4433600D03*
X331250Y6333600D03*
X2031250Y6333600D03*
X1831250Y6333600D03*
X3125000Y3977350D03*
X1125000Y3133600D03*
X793750Y4171100D03*
X918750Y3633600D03*
X2631250Y6333600D03*
X381250Y4652350D03*
X431250Y6333600D03*
X1531250Y6333600D03*
X3131250Y6333600D03*
X1931250Y6333600D03*
X531250Y6333600D03*
X1231250Y6333600D03*
X631250Y6333600D03*
X268750Y3133600D03*
X1631250Y6333600D03*
X137500Y3133600D03*
X1331250Y6333600D03*
X931250Y6333600D03*
X281250Y4652350D03*
X2931250Y6333600D03*
X1275000Y2682025D03*
X2531250Y6333600D03*
X2331250Y6333600D03*
X2231250Y6333600D03*
X993750Y1633600D03*
X2831250Y6333600D03*
X731250Y6333600D03*
X831250Y6333600D03*
X2731250Y6333600D03*
X181250Y4652350D03*
X706250Y583600D03*
X1131250Y6333600D03*
X231250Y6333600D03*
X2431250Y6333600D03*
X3031250Y6333600D03*
X1431250Y6333600D03*
X1731250Y6333600D03*
X1018750Y3633600D03*
D22*
X1004675Y2846100D03*
X1418750Y2814850D03*
X2937500Y627350D03*
X2937500Y427350D03*
X2937500Y327350D03*
X906250Y4552350D03*
X2937500Y227350D03*
X2212500Y2814850D03*
X2937500Y527350D03*
D24*
X556250Y1733600D03*
X2637500Y1533600D03*
X1825000Y1533600D03*
X2525000Y2533600D03*
X1418750Y2633600D03*
X556250Y2583600D03*
X1968750Y2633600D03*
X2231250Y1533600D03*
X1418750Y1533600D03*
D26*
X2557825Y2664850D03*
X2164075Y3414850D03*
X1914075Y1733600D03*
X1495325Y3414850D03*
X2762500Y4427350D03*
X2762500Y4552350D03*
X2320325Y1733600D03*
X1507825Y1733600D03*
X732825Y1858600D03*
X2639075Y1733600D03*
D14*
X2018750Y3233600D03*
D28*
X2912500Y3052350D02*
X2762500Y2871100D01*
X1418750Y2333600D02*
X1468750Y2333600D01*
X1018750Y3308600D02*
X1125000Y3202350D01*
X1562500Y1352350D02*
X1512500Y1389850D01*
X2856250Y1458600D02*
X2856250Y1602350D01*
X1418750Y1433600D02*
X1468750Y1433600D01*
X3131250Y3364850D02*
X3131250Y3196100D01*
X2812500Y2714850D02*
X2812500Y2614850D01*
X1718750Y2814850D02*
X1718750Y2914850D01*
X2881250Y1433600D02*
X2937500Y1433600D01*
X2562500Y2971100D02*
X2512500Y2914850D01*
X1468750Y2333600D02*
X1487500Y2352350D01*
X2512500Y2914850D02*
X2412500Y2914850D01*
X1325000Y1664850D02*
X1325000Y1552350D01*
X743750Y2083600D02*
X743750Y2733600D01*
X1012500Y1789850D02*
X1012500Y1946100D01*
X2637500Y2727350D02*
X2637500Y2471100D01*
X743750Y2083600D02*
X743750Y2039850D01*
X2693750Y2708600D02*
X2712500Y2727350D01*
X2856250Y1308600D02*
X2856250Y796100D01*
X2475000Y1433600D02*
X2531250Y1433600D01*
X781250Y1646100D02*
X781250Y1771100D01*
X2625000Y2133600D02*
X2681250Y2083600D01*
X2712500Y2727350D02*
X2712500Y2814850D01*
X2706250Y2571100D02*
X2693750Y2596100D01*
X1487500Y2721100D02*
X1475000Y2746100D01*
X1618750Y2814850D02*
X1618750Y2914850D01*
X1125000Y1733600D02*
X1187500Y1733600D01*
X2762500Y2758600D02*
X2812500Y2714850D01*
X2662500Y2333600D02*
X2712500Y2283600D01*
X1931250Y1164850D02*
X1987500Y1083600D01*
X2125000Y1433600D02*
X2181250Y1483600D01*
X1512500Y2083600D02*
X1362500Y2083600D01*
X1681250Y1383600D02*
X1781250Y1383600D01*
X2231250Y833600D02*
X2125000Y933600D01*
X1518750Y2914850D02*
X1518750Y2814850D01*
X1187500Y1733600D02*
X1200000Y1746100D01*
X856250Y1633600D02*
X793750Y1633600D01*
X2762500Y2571100D02*
X2762500Y2352350D01*
X812500Y1808600D02*
X781250Y1771100D01*
X1587500Y1458600D02*
X1587500Y1277350D01*
X1125000Y3202350D02*
X1125000Y3133600D01*
X1656250Y1371100D02*
X1681250Y1383600D01*
X2856250Y1308600D02*
X2881250Y1333600D01*
X3087500Y3177350D02*
X3093750Y3152350D01*
X1612500Y1571100D02*
X1612500Y1289850D01*
X3000000Y3102350D02*
X3000000Y3364850D01*
X556250Y2383600D02*
X556250Y2283600D01*
X1468750Y1433600D02*
X1612500Y1683600D01*
X1600000Y3233600D02*
X1600000Y3514850D01*
X2600000Y2433600D02*
X2525000Y2433600D01*
X1912500Y833600D02*
X1856250Y883600D01*
X687500Y1989850D02*
X687500Y1946100D01*
X2562500Y3177350D02*
X2562500Y2971100D01*
X2856250Y1458600D02*
X2881250Y1433600D01*
X2125000Y833600D02*
X1912500Y833600D01*
X556250Y1802350D02*
X556250Y1733600D01*
X2812500Y2614850D02*
X2762500Y2571100D01*
X3093750Y3321100D02*
X3087500Y3296100D01*
X1200000Y3221100D02*
X1087500Y3333600D01*
X2781250Y2233600D02*
X2825000Y2233600D01*
X2812500Y3402350D02*
X2812500Y3208600D01*
X1600000Y2533600D02*
X1600000Y2752350D01*
X1487500Y1333600D02*
X1487500Y1183600D01*
X2806250Y1646100D02*
X2806250Y983600D01*
X2762500Y2352350D02*
X2781250Y2333600D01*
X2312500Y3114850D02*
X2412500Y3114850D01*
X2925000Y2133600D02*
X2987500Y2133600D01*
X1868750Y1033600D02*
X1887500Y1008600D01*
X1887500Y933600D02*
X1937500Y883600D01*
X1012500Y1946100D02*
X1000000Y1958600D01*
X1768750Y3027350D02*
X1768750Y1814850D01*
X1562500Y1233600D02*
X1562500Y1352350D01*
X2637500Y2471100D02*
X2600000Y2433600D01*
X856250Y2483600D02*
X806250Y2483600D01*
X1306250Y1133600D02*
X1306250Y1233600D01*
X1600000Y2008600D02*
X1568750Y1983600D01*
X1931250Y1214850D02*
X1931250Y1164850D01*
X1887500Y1008600D02*
X1887500Y933600D01*
X1568750Y1983600D02*
X1325000Y1983600D01*
X793750Y1633600D02*
X781250Y1646100D01*
X2712500Y2283600D02*
X2712500Y2139850D01*
X1587500Y1277350D02*
X1606250Y1252350D01*
X2781250Y2333600D02*
X2825000Y2333600D01*
X1543750Y2433600D02*
X1543750Y2114850D01*
X1037500Y1733600D02*
X1037500Y1983600D01*
X1418750Y3039850D02*
X1618750Y3039850D01*
X2718750Y1433600D02*
X2718750Y1283600D01*
X2812500Y3114850D02*
X2812500Y3052350D01*
X2693750Y2596100D02*
X2693750Y2708600D01*
X2368750Y2427350D02*
X2481250Y2533600D01*
X1568750Y1483600D02*
X1587500Y1458600D01*
X1825000Y1233600D02*
X1912500Y1233600D01*
X3087500Y3296100D02*
X3087500Y3177350D01*
X1918750Y3233600D02*
X1918750Y3296100D01*
X1343750Y1533600D02*
X1418750Y1533600D01*
X1487500Y2352350D02*
X1487500Y2721100D01*
X1718750Y3233600D02*
X1718750Y3296100D01*
X2525000Y2333600D02*
X2662500Y2333600D01*
X2093750Y2358600D02*
X2075000Y2333600D01*
X1200000Y1746100D02*
X1200000Y3221100D01*
X2625000Y2233600D02*
X2575000Y2183600D01*
X856250Y2383600D02*
X806250Y2383600D01*
X1718750Y2533600D02*
X1600000Y2533600D01*
X2812500Y3052350D02*
X2662500Y2871100D01*
X2881250Y1333600D02*
X2937500Y1333600D01*
X687500Y1946100D02*
X556250Y1802350D01*
X556250Y2983600D02*
X556250Y2583600D01*
X1781250Y1383600D02*
X1825000Y1333600D01*
X1418750Y3114850D02*
X1418750Y3039850D01*
X650000Y1964850D02*
X625000Y1933600D01*
X2756250Y2083600D02*
X2756250Y2208600D01*
X2075000Y2333600D02*
X1968750Y2333600D01*
X3056250Y3102350D02*
X3056250Y3364850D01*
X743750Y2039850D02*
X812500Y1902350D01*
X1975000Y1183600D02*
X1975000Y1333600D01*
X1768750Y883600D02*
X1718750Y933600D01*
X1900000Y1133600D02*
X1937500Y1083600D01*
X1600000Y2533600D02*
X1600000Y2008600D01*
X1825000Y1033600D02*
X1868750Y1033600D01*
X2756250Y2208600D02*
X2781250Y2233600D01*
X1325000Y1552350D02*
X1343750Y1533600D01*
X1912500Y1233600D02*
X1931250Y1214850D01*
X1018750Y3308600D02*
X1018750Y3533600D01*
X2481250Y2533600D02*
X2525000Y2533600D01*
X2912500Y3114850D02*
X2912500Y3052350D01*
X650000Y2183600D02*
X650000Y1964850D01*
X1856250Y883600D02*
X1768750Y883600D01*
X2037500Y1233600D02*
X2037500Y1383600D01*
X2450000Y1589850D02*
X2450000Y1458600D01*
X1600000Y2752350D02*
X1568750Y2783600D01*
X2212500Y3114850D02*
X2312500Y3114850D01*
X1650000Y1239850D02*
X1650000Y1033600D01*
X1362500Y2083600D02*
X1325000Y2052350D01*
X2450000Y1458600D02*
X2475000Y1433600D01*
X3187500Y3164850D02*
X3162500Y3139850D01*
X1568750Y2783600D02*
X1568750Y2871100D01*
X1000000Y2083600D02*
X1000000Y1958600D01*
X1618750Y3039850D02*
X1618750Y2914850D01*
X2762500Y2871100D02*
X2762500Y2758600D01*
X1825000Y1133600D02*
X1900000Y1133600D01*
X2662500Y2752350D02*
X2637500Y2727350D01*
X2093750Y2752350D02*
X2093750Y2358600D01*
X2662500Y2871100D02*
X2662500Y2752350D01*
X1606250Y1252350D02*
X1606250Y1133600D01*
X1087500Y3333600D02*
X1087500Y3408600D01*
X1418750Y3039850D02*
X1418750Y2914850D01*
X2981250Y1233600D02*
X2993750Y1246100D01*
X3187500Y3364850D02*
X3187500Y3164850D01*
X1825000Y1658600D02*
X1825000Y1533600D01*
X812500Y1902350D02*
X812500Y1808600D01*
X2925000Y2033600D02*
X2987500Y2033600D01*
X2993750Y1246100D02*
X2993750Y1558600D01*
X2912500Y3402350D02*
X2912500Y3114850D01*
X1937500Y1083600D02*
X1937500Y983600D01*
X1543750Y2114850D02*
X1512500Y2083600D01*
X2993750Y1558600D02*
X2981250Y1589850D01*
X2575000Y2183600D02*
X2575000Y1983600D01*
X1718750Y1433600D02*
X1775000Y1483600D01*
X1418750Y2914850D02*
X1418750Y2814850D01*
X993750Y1764850D02*
X1012500Y1789850D01*
X656250Y2733600D02*
X656250Y2483600D01*
X1612500Y1289850D02*
X1650000Y1239850D01*
X2937500Y1233600D02*
X2981250Y1233600D01*
X2118750Y2789850D02*
X2093750Y2752350D01*
X2575000Y1983600D02*
X2625000Y1946100D01*
D30*
X681250Y1733600D02*
X681250Y1808600D01*
X681250Y1808600D02*
X732825Y1858600D01*
D32*
X887500Y2846100D02*
X887500Y2608600D01*
X887500Y2608600D02*
X856250Y2583600D01*
X887500Y2846100D02*
X807825Y2846100D01*
X887500Y3227350D02*
X887500Y2846100D01*
D11*
X2923425Y1571100D02*
X2918750Y1646100D01*
X2110925Y1658600D02*
X2125000Y1633600D01*
X2018750Y2814850D02*
X2018750Y3027350D01*
X2918750Y1646100D02*
X3168750Y1646100D01*
X2517175Y1733600D02*
X2517175Y1658600D01*
X3168750Y2727350D02*
X2993750Y2727350D01*
X1704675Y1658600D02*
X1718750Y1621100D01*
X1704675Y1733600D02*
X1704675Y1658600D01*
X2517175Y1658600D02*
X2531250Y1627350D01*
X2018750Y3027350D02*
X2100000Y3064850D01*
X2110925Y1733600D02*
X2110925Y1658600D01*
X1718750Y1621100D02*
X1718750Y1533600D01*
X2531250Y1627350D02*
X2531250Y1533600D01*
X2125000Y1533600D02*
X2125000Y1633600D01*
X2918750Y1646100D02*
X2835925Y1733600D01*
X2937500Y1533600D02*
X2923425Y1571100D01*
D34*
X3206250Y6133600D02*
X3131250Y6133600D01*
X168750Y5046100D02*
X50000Y5046100D01*
X50000Y5046100D02*
X50000Y6083600D01*
X3256250Y6083600D02*
X3256250Y5083600D01*
X118750Y6296100D02*
X162500Y6333600D01*
X3206250Y5033600D02*
X3131250Y5033600D01*
X50000Y5046100D02*
X50000Y4777350D01*
X118750Y4871100D02*
X156250Y4833600D01*
X162500Y6333600D02*
X231250Y6333600D01*
X156250Y4833600D02*
X231250Y4833600D01*
X3206250Y6133600D02*
X3256250Y6083600D01*
X118750Y4983600D02*
X118750Y4871100D01*
X50000Y6083600D02*
X93750Y6121100D01*
X93750Y6121100D02*
X168750Y6121100D01*
X231250Y5033600D02*
X168750Y5046100D01*
X50000Y4777350D02*
X181250Y4652350D01*
X118750Y6189850D02*
X118750Y6296100D01*
X3256250Y5083600D02*
X3206250Y5033600D01*
X418750Y333600D02*
X418750Y3439850D01*
X168750Y6121100D02*
X231250Y6133600D01*
%LPD*%
D10*
X1050000Y2383600D03*
X1250000Y2383600D03*
X1050000Y2183600D03*
X1250000Y2583600D03*
X1250000Y2183600D03*
X1050000Y2583600D03*
X1018750Y3083600D03*
X1275000Y3083600D03*
X2981250Y1589850D03*
X2806250Y1646100D03*
X2812500Y3402350D03*
X1768750Y1814850D03*
X418750Y333600D03*
X1475000Y2746100D03*
X118750Y4983600D03*
X2718750Y1433600D03*
X1937500Y983600D03*
X2756250Y2083600D03*
X3168750Y2727350D03*
X3093750Y3152350D03*
X2856250Y1602350D03*
X1543750Y2433600D03*
X3162500Y3139850D03*
X2368750Y2427350D03*
X687500Y1989850D03*
X418750Y3439850D03*
X1768750Y3027350D03*
X3056250Y3364850D03*
X3168750Y1646100D03*
X2806250Y983600D03*
X743750Y2733600D03*
X1037500Y1983600D03*
X1656250Y1371100D03*
X1568750Y1483600D03*
X2812500Y3208600D03*
X1650000Y1033600D03*
X2562500Y3177350D03*
X1937500Y883600D03*
X1487500Y1333600D03*
X1325000Y2052350D03*
X993750Y1764850D03*
X2718750Y1283600D03*
X1037500Y1733600D03*
X1512500Y1389850D03*
X656250Y2483600D03*
X3131250Y3364850D03*
X2993750Y2727350D03*
X1975000Y1183600D03*
X2037500Y1383600D03*
X2706250Y2571100D03*
X681250Y1733600D03*
X1562500Y1233600D03*
X2118750Y2789850D03*
X2912500Y2633600D03*
D12*
X2912500Y2633600D03*
D10*
X1306250Y1133600D03*
X3093750Y3321100D03*
X1600000Y3514850D03*
X3131250Y3196100D03*
X1568750Y2871100D03*
X625000Y1933600D03*
X650000Y2183600D03*
X1087500Y3408600D03*
X1825000Y1658600D03*
X1612500Y1571100D03*
X656250Y2733600D03*
X3056250Y3102350D03*
X1325000Y1983600D03*
X2450000Y1589850D03*
X2912500Y3402350D03*
X1975000Y1333600D03*
X3187500Y3364850D03*
X1325000Y1664850D03*
X556250Y2983600D03*
X743750Y2083600D03*
X1306250Y1233600D03*
X1000000Y2083600D03*
X887500Y3227350D03*
X2712500Y2139850D03*
X1612500Y1683600D03*
X2037500Y1233600D03*
X118750Y6189850D03*
X1600000Y3233600D03*
X1487500Y1183600D03*
X1987500Y1083600D03*
X1606250Y1133600D03*
X3000000Y3364850D03*
X3000000Y3102350D03*
X2856250Y796100D03*
D13*
X1818750Y1933600D03*
X950000Y2483600D03*
X2625000Y2233600D03*
X2368750Y1927350D03*
X1818750Y2233600D03*
X1818750Y2333600D03*
X2925000Y2033600D03*
X2625000Y2033600D03*
X2368750Y2127350D03*
X1818750Y2033600D03*
X1818750Y2133600D03*
X1818750Y2433600D03*
X2368750Y2327350D03*
X2925000Y1933600D03*
X2625000Y2133600D03*
X2368750Y2027350D03*
X2368750Y2227350D03*
X2925000Y2133600D03*
X950000Y2283600D03*
X950000Y2383600D03*
X1718750Y3233600D03*
X1418750Y2914850D03*
X1818750Y3233600D03*
X2512500Y2914850D03*
X1618750Y2914850D03*
X1518750Y2914850D03*
X1918750Y3233600D03*
X1718750Y2914850D03*
X2412500Y2914850D03*
X2412500Y3227350D03*
X2512500Y3227350D03*
X2312500Y3227350D03*
X2212500Y2914850D03*
X2131250Y5433600D03*
X2231250Y6233600D03*
X1131250Y5333600D03*
X231250Y6133600D03*
X1131250Y5033600D03*
X2031250Y5633600D03*
X3131250Y5633600D03*
X3031250Y5533600D03*
X2831250Y6033600D03*
X1931250Y5333600D03*
X137500Y1133600D03*
X2731250Y5233600D03*
X831250Y6033600D03*
X631250Y5233600D03*
X1331250Y5133600D03*
X1718750Y1033600D03*
X1125000Y733600D03*
X1431250Y6233600D03*
X1718750Y2533600D03*
X268750Y833600D03*
X1431250Y5533600D03*
X918750Y3533600D03*
X1831250Y5433600D03*
X2231250Y5633600D03*
X831250Y5433600D03*
X1125000Y2833600D03*
X2268750Y2233600D03*
X993750Y1333600D03*
X2031250Y5933600D03*
X268750Y2133600D03*
X2931250Y5233600D03*
X2831250Y4933600D03*
X268750Y1133600D03*
X1125000Y333600D03*
X231250Y5233600D03*
X2937500Y1333600D03*
X2631250Y5033600D03*
X2631250Y5533600D03*
X3031250Y5933600D03*
X1031250Y4833600D03*
X1431250Y5933600D03*
X2031250Y5233600D03*
X268750Y1033600D03*
X1731250Y5133600D03*
X1718750Y2033600D03*
X1718750Y833600D03*
X2731250Y5533600D03*
X1931250Y4933600D03*
X2937500Y833600D03*
X3131250Y4933600D03*
X631250Y5033600D03*
X2125000Y1133600D03*
X1131250Y4933600D03*
X1331250Y6233600D03*
X2531250Y1533600D03*
X1631250Y5433600D03*
X268750Y2333600D03*
X3031250Y4933600D03*
X1731250Y6033600D03*
X1831250Y5233600D03*
X431250Y5433600D03*
X2831250Y6133600D03*
X2931250Y4933600D03*
X331250Y5933600D03*
X2531250Y6033600D03*
X1031250Y5533600D03*
X3131250Y4833600D03*
X1231250Y5233600D03*
X1731250Y5633600D03*
X2931250Y5733600D03*
X2825000Y2233600D03*
X2931250Y5033600D03*
X1331250Y6133600D03*
X137500Y433600D03*
D15*
X137500Y433600D03*
D13*
X2931250Y5833600D03*
X631250Y5733600D03*
X731250Y5833600D03*
X231250Y5533600D03*
X2231250Y5333600D03*
X137500Y1233600D03*
X1531250Y5733600D03*
X2268750Y1933600D03*
X137500Y333600D03*
X531250Y6233600D03*
X1931250Y5233600D03*
X1131250Y6133600D03*
X1125000Y1133600D03*
X2531250Y5133600D03*
X1931250Y6033600D03*
X2231250Y5233600D03*
X431250Y5733600D03*
X231250Y5633600D03*
X1931250Y5133600D03*
X2531250Y1133600D03*
X1831250Y6033600D03*
X531250Y5933600D03*
X2531250Y5633600D03*
X3031250Y5733600D03*
X1231250Y5933600D03*
X2831250Y5933600D03*
X2331250Y6233600D03*
X1931250Y5833600D03*
X268750Y3033600D03*
X831250Y5933600D03*
X1718750Y1333600D03*
X137500Y1533600D03*
X2231250Y6033600D03*
X2031250Y5033600D03*
X1931250Y5033600D03*
X731250Y5233600D03*
X1931250Y5533600D03*
X268750Y633600D03*
D15*
X268750Y633600D03*
D13*
X268750Y2033600D03*
X431250Y6133600D03*
X231250Y5833600D03*
X431250Y5233600D03*
X1125000Y1233600D03*
X856250Y2083600D03*
X2431250Y5333600D03*
X2531250Y933600D03*
X2931250Y6133600D03*
X1531250Y4933600D03*
X2931250Y5133600D03*
X2931250Y4833600D03*
X3031250Y5433600D03*
X1031250Y5333600D03*
X2331250Y5633600D03*
X1125000Y433600D03*
D15*
X1125000Y433600D03*
D13*
X2431250Y5433600D03*
X2231250Y4933600D03*
X2331250Y5033600D03*
X2268750Y2533600D03*
X1531250Y5333600D03*
X631250Y5333600D03*
X1331250Y5933600D03*
X1831250Y5733600D03*
X268750Y733600D03*
X1331250Y5733600D03*
X2431250Y5633600D03*
X1931250Y6133600D03*
X1131250Y6233600D03*
X3125000Y4333600D03*
X631250Y5533600D03*
X1231250Y6233600D03*
X2831250Y5633600D03*
X1531250Y6033600D03*
X3031250Y5033600D03*
X331250Y5633600D03*
X137500Y633600D03*
D15*
X137500Y633600D03*
D13*
X1931250Y5633600D03*
X3031250Y6233600D03*
X2731250Y5033600D03*
X731250Y5533600D03*
X3131250Y6033600D03*
X3131250Y5733600D03*
X2431250Y5533600D03*
X2431250Y4833600D03*
X1831250Y4833600D03*
X268750Y1533600D03*
X2231250Y6133600D03*
X631250Y5433600D03*
X993750Y933600D03*
X831250Y6133600D03*
X1431250Y5433600D03*
X1831250Y5833600D03*
X856250Y1983600D03*
X331250Y4933600D03*
X2431250Y5933600D03*
X1231250Y5633600D03*
X1718750Y2433600D03*
X1731250Y4933600D03*
X268750Y1733600D03*
X2031250Y4933600D03*
X1718750Y1433600D03*
X137500Y2633600D03*
X2731250Y5633600D03*
X1125000Y1533600D03*
X3031250Y5833600D03*
X631250Y6033600D03*
X1731250Y5933600D03*
X1931250Y5933600D03*
X2931250Y5333600D03*
X2131250Y5233600D03*
X631250Y4833600D03*
X2825000Y2333600D03*
X1631250Y5033600D03*
X1718750Y2633600D03*
X1531250Y5533600D03*
X2431250Y5833600D03*
X2031250Y5333600D03*
X2131250Y5833600D03*
X137500Y2933600D03*
X1131250Y5833600D03*
X331250Y6133600D03*
X1631250Y5633600D03*
X331250Y6033600D03*
X856250Y1233600D03*
X1631250Y5533600D03*
X1125000Y633600D03*
D15*
X1125000Y633600D03*
D13*
X1731250Y5233600D03*
X1718750Y1133600D03*
X1831250Y5533600D03*
X3125000Y3577350D03*
X1531250Y5833600D03*
X431250Y6233600D03*
X731250Y5633600D03*
X1031250Y5733600D03*
X856250Y2383600D03*
X3125000Y3777350D03*
X2268750Y2633600D03*
X2731250Y6233600D03*
X731250Y5333600D03*
X2631250Y5833600D03*
X831250Y4933600D03*
X2531250Y5233600D03*
X1431250Y5233600D03*
X1231250Y4833600D03*
X931250Y6133600D03*
X2131250Y5733600D03*
X3031250Y4833600D03*
X856250Y1733600D03*
X931250Y5333600D03*
X2531250Y833600D03*
X137500Y1933600D03*
X1125000Y1933600D03*
X2125000Y833600D03*
X2531250Y4933600D03*
X1331250Y4833600D03*
X2131250Y6033600D03*
X1031250Y6233600D03*
X2937500Y1233600D03*
X631250Y5933600D03*
X993750Y1433600D03*
X2631250Y5233600D03*
X1331250Y4933600D03*
X2131250Y4933600D03*
X431250Y5633600D03*
X1531250Y5933600D03*
X1331250Y5333600D03*
X137500Y1633600D03*
X268750Y933600D03*
X137500Y2133600D03*
X2531250Y6233600D03*
X993750Y1133600D03*
X331250Y6233600D03*
X1731250Y4833600D03*
X2937500Y1033600D03*
X1125000Y233600D03*
X268750Y2533600D03*
X2731250Y4933600D03*
X531250Y5533600D03*
X1531250Y5633600D03*
X2231250Y5133600D03*
X1131250Y5633600D03*
X2431250Y5733600D03*
X431250Y4933600D03*
X2931250Y5533600D03*
X1631250Y5133600D03*
X1125000Y933600D03*
X2831250Y5533600D03*
X1718750Y1233600D03*
X137500Y3033600D03*
X531250Y6033600D03*
X2631250Y4933600D03*
X3125000Y4233600D03*
X3031250Y6033600D03*
X2937500Y933600D03*
X1031250Y5933600D03*
X831250Y5833600D03*
X268750Y2233600D03*
X1125000Y3033600D03*
X931250Y5733600D03*
X431250Y5833600D03*
X856250Y933600D03*
X1631250Y6133600D03*
X331250Y4833600D03*
X1031250Y5133600D03*
X2331250Y5433600D03*
X856250Y833600D03*
X831250Y4833600D03*
X1331250Y5233600D03*
X2931250Y5633600D03*
X331250Y5533600D03*
X2331250Y4833600D03*
X531250Y5133600D03*
X531250Y5733600D03*
X993750Y1233600D03*
X1031250Y5633600D03*
X856250Y1433600D03*
X1031250Y5033600D03*
X331250Y5833600D03*
X2531250Y5333600D03*
X1125000Y1433600D03*
X2825000Y2433600D03*
X631250Y4933600D03*
X268750Y1833600D03*
X931250Y6233600D03*
X2431250Y5233600D03*
X831250Y5133600D03*
X268750Y2633600D03*
X1031250Y6133600D03*
X2937500Y1433600D03*
X1331250Y6033600D03*
X331250Y5133600D03*
X1331250Y5633600D03*
X2268750Y2033600D03*
X231250Y5033600D03*
X1731250Y5733600D03*
X268750Y1933600D03*
X137500Y1333600D03*
X137500Y1033600D03*
X2031250Y5133600D03*
X2431250Y6233600D03*
X137500Y2433600D03*
X2831250Y6233600D03*
X2125000Y1033600D03*
X731250Y5733600D03*
X931250Y5933600D03*
X1331250Y5533600D03*
X3125000Y3877350D03*
X2231250Y5033600D03*
X1531250Y5033600D03*
X2431250Y5133600D03*
X2531250Y5833600D03*
X1231250Y4933600D03*
X2331250Y5833600D03*
X2125000Y933600D03*
X2331250Y4933600D03*
X1031250Y5433600D03*
X1125000Y533600D03*
D15*
X1125000Y533600D03*
D13*
X1631250Y5833600D03*
X2731250Y5733600D03*
X731250Y5033600D03*
X331250Y5433600D03*
X1831250Y5633600D03*
X1631250Y5333600D03*
X2331250Y5533600D03*
X1231250Y5133600D03*
X1231250Y5833600D03*
X1431250Y5133600D03*
X1431250Y5633600D03*
X1431250Y5333600D03*
X831250Y5633600D03*
X1131250Y4833600D03*
X1718750Y933600D03*
X3125000Y3677350D03*
X731250Y5433600D03*
X2231250Y5533600D03*
X2431250Y6033600D03*
X2531250Y5033600D03*
X2331250Y5233600D03*
X856250Y1333600D03*
X268750Y433600D03*
D15*
X268750Y433600D03*
D13*
X1731250Y5533600D03*
X231250Y6233600D03*
X137500Y2733600D03*
X431250Y5033600D03*
X2431250Y5033600D03*
X631250Y5133600D03*
X1831250Y5133600D03*
X2731250Y6033600D03*
X3031250Y5233600D03*
X1731250Y5033600D03*
X2831250Y5233600D03*
X1131250Y5133600D03*
X1331250Y5433600D03*
X1131250Y5233600D03*
X431250Y5533600D03*
X931250Y5633600D03*
X2531250Y4833600D03*
X2937500Y1533600D03*
X2731250Y5933600D03*
X1831250Y4933600D03*
X231250Y5433600D03*
X268750Y1333600D03*
X1431250Y4933600D03*
X2031250Y5533600D03*
X2231250Y4833600D03*
X137500Y933600D03*
X1231250Y5433600D03*
X931250Y5433600D03*
X2031250Y5433600D03*
X531250Y4833600D03*
X1125000Y2033600D03*
X731250Y6133600D03*
X2731250Y5133600D03*
X531250Y5333600D03*
X831250Y5233600D03*
X1631250Y6033600D03*
X2268750Y2333600D03*
X2531250Y5433600D03*
X1931250Y5433600D03*
X1431250Y4833600D03*
X2131250Y6233600D03*
X1431250Y6133600D03*
X3131250Y5233600D03*
X2231250Y5833600D03*
X231250Y5133600D03*
X1018750Y3533600D03*
X931250Y4833600D03*
X631250Y6133600D03*
X2125000Y1533600D03*
X2331250Y5333600D03*
X2631250Y5133600D03*
X1718750Y2233600D03*
X3131250Y6233600D03*
X1231250Y5533600D03*
X137500Y233600D03*
X2937500Y1133600D03*
X2531250Y1033600D03*
X431250Y5133600D03*
X631250Y6233600D03*
X1131250Y5433600D03*
X1531250Y6233600D03*
X431250Y5333600D03*
X268750Y1233600D03*
X856250Y2183600D03*
D15*
X856250Y2183600D03*
D13*
X281250Y4552350D03*
X856250Y2283600D03*
X3131250Y5133600D03*
X856250Y2483600D03*
X1831250Y5933600D03*
X2431250Y6133600D03*
X1231250Y5333600D03*
X3131250Y5533600D03*
X3031250Y5133600D03*
X2831250Y5833600D03*
X731250Y4833600D03*
X1231250Y5033600D03*
X1131250Y5533600D03*
X1431250Y6033600D03*
X137500Y1833600D03*
X2125000Y1233600D03*
X1731250Y6233600D03*
X181250Y4552350D03*
X1931250Y4833600D03*
X1275000Y2485175D03*
D15*
X1275000Y2485175D03*
D13*
X3131250Y5033600D03*
X2531250Y1433600D03*
X231250Y4933600D03*
X137500Y733600D03*
X2125000Y1333600D03*
X2831250Y5033600D03*
X931250Y5233600D03*
X2331250Y5933600D03*
X856250Y1633600D03*
X2131250Y5633600D03*
X2631250Y5633600D03*
X1631250Y5933600D03*
X2831250Y5733600D03*
X1231250Y5733600D03*
X993750Y833600D03*
X331250Y5333600D03*
X1631250Y6233600D03*
X2531250Y6133600D03*
X1431250Y5033600D03*
X231250Y5733600D03*
X731250Y6033600D03*
X1718750Y2133600D03*
X1831250Y6133600D03*
X268750Y2833600D03*
X1831250Y5333600D03*
X1718750Y2333600D03*
X3131250Y6133600D03*
X2531250Y5933600D03*
X856250Y1533600D03*
X268750Y533600D03*
D15*
X268750Y533600D03*
D13*
X831250Y6233600D03*
X1631250Y4833600D03*
X2131250Y5033600D03*
X1125000Y2333600D03*
X931250Y6033600D03*
X2131250Y5333600D03*
X1331250Y5833600D03*
X2031250Y5833600D03*
X1125000Y1733600D03*
X1031250Y5833600D03*
X2531250Y5733600D03*
X2731250Y5833600D03*
X1431250Y5833600D03*
X268750Y2933600D03*
X2131250Y4833600D03*
X1831250Y5033600D03*
X631250Y5833600D03*
X531250Y5833600D03*
X531250Y5633600D03*
X1125000Y2733600D03*
X631250Y5633600D03*
X2331250Y5133600D03*
X931250Y5533600D03*
X2831250Y5133600D03*
X431250Y4833600D03*
X1531250Y5433600D03*
X2831250Y4833600D03*
X231250Y5933600D03*
X331250Y5233600D03*
X1125000Y2233600D03*
X1231250Y6033600D03*
X731250Y5933600D03*
X1431250Y5733600D03*
X2831250Y5433600D03*
X531250Y5233600D03*
X831250Y5033600D03*
X2631250Y6133600D03*
X2631250Y5333600D03*
X2631250Y5433600D03*
X2731250Y5333600D03*
X2268750Y2433600D03*
X793750Y4071100D03*
D15*
X793750Y4071100D03*
D13*
X1125000Y1833600D03*
X2631250Y6033600D03*
X2031250Y6033600D03*
X3125000Y4133600D03*
D15*
X3125000Y4133600D03*
D13*
X1631250Y5733600D03*
X1631250Y4933600D03*
X1131250Y5733600D03*
X137500Y1733600D03*
X993750Y1533600D03*
X2031250Y6133600D03*
X2731250Y5433600D03*
X2631250Y5733600D03*
X1125000Y833600D03*
X531250Y6133600D03*
X431250Y5933600D03*
X1718750Y1933600D03*
X137500Y833600D03*
X137500Y2833600D03*
X268750Y1433600D03*
X331250Y5733600D03*
X856250Y1033600D03*
X1731250Y6133600D03*
X2531250Y1333600D03*
X856250Y2583600D03*
X1125000Y2533600D03*
X2531250Y1233600D03*
X137500Y2233600D03*
X2231250Y5933600D03*
X1131250Y6033600D03*
X2631250Y6233600D03*
X2731250Y4833600D03*
X137500Y1433600D03*
X931250Y4933600D03*
X231250Y5333600D03*
X268750Y333600D03*
X1731250Y5433600D03*
X231250Y4833600D03*
X1125000Y2433600D03*
X1531250Y4833600D03*
X3131250Y5933600D03*
X2831250Y5333600D03*
X2825000Y2133600D03*
X831250Y5333600D03*
X931250Y5833600D03*
X2531250Y5533600D03*
X231250Y6033600D03*
X1931250Y5733600D03*
X268750Y233600D03*
X2131250Y6133600D03*
X1531250Y5133600D03*
X2931250Y5933600D03*
X731250Y6233600D03*
X2131250Y5533600D03*
X1125000Y1633600D03*
X2631250Y5933600D03*
X137500Y533600D03*
D15*
X137500Y533600D03*
D13*
X731250Y4933600D03*
X831250Y5733600D03*
X731250Y5133600D03*
X2131250Y5933600D03*
X137500Y2333600D03*
X531250Y5433600D03*
X268750Y2433600D03*
X3131250Y5433600D03*
X531250Y4933600D03*
X2431250Y4933600D03*
X137500Y2533600D03*
X3131250Y5333600D03*
X3031250Y5633600D03*
X856250Y1133600D03*
X2331250Y6033600D03*
X931250Y5133600D03*
X1031250Y4933600D03*
X2931250Y6233600D03*
X2031250Y6233600D03*
X2825000Y1933600D03*
X1718750Y1533600D03*
X1125000Y2933600D03*
X931250Y5033600D03*
X2031250Y5733600D03*
X1931250Y6233600D03*
X1731250Y5333600D03*
X1531250Y6133600D03*
X3131250Y5833600D03*
X531250Y5033600D03*
X2731250Y6133600D03*
X2631250Y4833600D03*
X2268750Y2133600D03*
X2231250Y5733600D03*
X1331250Y5033600D03*
X1131250Y5933600D03*
X1125000Y2633600D03*
X268750Y2733600D03*
X2331250Y6133600D03*
X1125000Y1033600D03*
X3031250Y6133600D03*
X431250Y6033600D03*
X2825000Y2533600D03*
X1531250Y5233600D03*
X2331250Y5733600D03*
X1231250Y6133600D03*
X331250Y5033600D03*
X3125000Y3477350D03*
D15*
X3125000Y3477350D03*
D13*
X1031250Y6033600D03*
X2131250Y5133600D03*
X137500Y2033600D03*
X1125000Y2133600D03*
X381250Y4552350D03*
X706250Y483600D03*
D15*
X706250Y483600D03*
D13*
X2931250Y6033600D03*
X1631250Y5233600D03*
X2031250Y4833600D03*
X1831250Y6233600D03*
X2825000Y2033600D03*
X831250Y5533600D03*
X2931250Y5433600D03*
X2231250Y5433600D03*
X2125000Y1433600D03*
X1031250Y5233600D03*
X3031250Y5333600D03*
X1125000Y1333600D03*
X1731250Y5833600D03*
X993750Y1033600D03*
X268750Y1633600D03*
X2362500Y3702350D03*
X1562500Y3702350D03*
X2737500Y627350D03*
D16*
X2737500Y627350D03*
D13*
X1737500Y427350D03*
X1837500Y427350D03*
X2437500Y627350D03*
X2337500Y227350D03*
X2537500Y627350D03*
X2662500Y3827350D03*
X1537500Y627350D03*
X1437500Y627350D03*
X2037500Y227350D03*
X2637500Y427350D03*
X1437500Y327350D03*
X2837500Y627350D03*
X1937500Y527350D03*
X2637500Y527350D03*
X2037500Y427350D03*
X2037500Y327350D03*
X2262500Y3827350D03*
X1537500Y227350D03*
X2437500Y427350D03*
X2837500Y327350D03*
X1662500Y3827350D03*
D16*
X1662500Y3827350D03*
D13*
X1662500Y3702350D03*
D16*
X1662500Y3702350D03*
D13*
X2162500Y3702350D03*
X1437500Y227350D03*
X1818750Y2814850D03*
X2312500Y2814850D03*
X2537500Y427350D03*
X1537500Y327350D03*
X2562500Y3827350D03*
X2137500Y627350D03*
X1937500Y327350D03*
X2337500Y527350D03*
X2062500Y3702350D03*
X1718750Y2814850D03*
X2462500Y3702350D03*
X2537500Y227350D03*
X1837500Y327350D03*
X1537500Y427350D03*
X2612500Y2814850D03*
X1362500Y3827350D03*
X1618750Y2814850D03*
X2562500Y3702350D03*
X2737500Y227350D03*
D16*
X2737500Y227350D03*
D13*
X1462500Y3827350D03*
X2018750Y2814850D03*
X2512500Y2814850D03*
X2237500Y527350D03*
X1737500Y627350D03*
X2362500Y3827350D03*
X2437500Y327350D03*
X2062500Y3827350D03*
X1918750Y2814850D03*
X1837500Y227350D03*
X1762500Y3702350D03*
X1562500Y3827350D03*
X2137500Y227350D03*
X1437500Y527350D03*
X2037500Y527350D03*
X2737500Y527350D03*
D16*
X2737500Y527350D03*
D13*
X2337500Y627350D03*
X2737500Y427350D03*
D16*
X2737500Y427350D03*
D13*
X2137500Y427350D03*
X2812500Y2814850D03*
X1637500Y427350D03*
D16*
X1637500Y427350D03*
D13*
X1437500Y427350D03*
X1462500Y3702350D03*
X807825Y2846100D03*
X1862500Y3702350D03*
X1937500Y427350D03*
X2637500Y227350D03*
X1518750Y2814850D03*
X1937500Y227350D03*
X2737500Y327350D03*
D16*
X2737500Y327350D03*
D13*
X2437500Y227350D03*
X1937500Y627350D03*
X1637500Y327350D03*
D16*
X1637500Y327350D03*
D13*
X2762500Y3702350D03*
X781250Y4552350D03*
X2912500Y2814850D03*
D16*
X2912500Y2814850D03*
D13*
X2437500Y527350D03*
X1637500Y227350D03*
D16*
X1637500Y227350D03*
D13*
X2237500Y327350D03*
X2237500Y427350D03*
X2837500Y227350D03*
X2412500Y2814850D03*
X1962500Y3827350D03*
X2837500Y427350D03*
X2237500Y627350D03*
X1737500Y327350D03*
X2762500Y3827350D03*
X1737500Y227350D03*
X2337500Y427350D03*
X1837500Y627350D03*
X2137500Y527350D03*
X1837500Y527350D03*
X1637500Y527350D03*
D16*
X1637500Y527350D03*
D13*
X2462500Y3827350D03*
X1362500Y3702350D03*
X2537500Y327350D03*
X2537500Y527350D03*
X1962500Y3702350D03*
X2262500Y3702350D03*
X1862500Y3827350D03*
X2712500Y2814850D03*
X1762500Y3827350D03*
X2637500Y327350D03*
X2037500Y627350D03*
X2162500Y3827350D03*
X2837500Y527350D03*
X2237500Y227350D03*
X1537500Y527350D03*
X1637500Y627350D03*
D16*
X1637500Y627350D03*
D13*
X2337500Y327350D03*
X2662500Y3702350D03*
X1737500Y527350D03*
X2137500Y327350D03*
X2637500Y627350D03*
X1825000Y833600D03*
X1968750Y1933600D03*
X1418750Y2133600D03*
X2637500Y833600D03*
X2525000Y2233600D03*
X1418750Y1133600D03*
X1418750Y1333600D03*
X556250Y1983600D03*
D17*
X556250Y1983600D03*
D13*
X2231250Y1333600D03*
X556250Y2383600D03*
X1825000Y933600D03*
X1418750Y2033600D03*
X1418750Y2533600D03*
X556250Y2183600D03*
X2231250Y1133600D03*
X1418750Y2433600D03*
X2525000Y1933600D03*
X1825000Y1133600D03*
X1825000Y1233600D03*
X2637500Y933600D03*
X556250Y1633600D03*
X1418750Y1933600D03*
X2231250Y1033600D03*
X2637500Y1433600D03*
X556250Y1233600D03*
X2231250Y833600D03*
X556250Y933600D03*
X2525000Y2033600D03*
X556250Y1033600D03*
X556250Y833600D03*
D17*
X556250Y833600D03*
D13*
X2525000Y2333600D03*
X556250Y2283600D03*
X1968750Y2233600D03*
X556250Y2483600D03*
X1968750Y2533600D03*
X2637500Y1033600D03*
X2231250Y1233600D03*
X1825000Y1033600D03*
X556250Y2083600D03*
X1968750Y2433600D03*
X556250Y1333600D03*
X556250Y1533600D03*
X1825000Y1433600D03*
X1418750Y2233600D03*
X556250Y1433600D03*
X1418750Y933600D03*
X1418750Y1433600D03*
X1825000Y1333600D03*
X2231250Y1433600D03*
X1968750Y2133600D03*
X1968750Y2033600D03*
X1418750Y833600D03*
X556250Y1133600D03*
X2637500Y1333600D03*
X1418750Y1233600D03*
X1418750Y1033600D03*
X1968750Y2333600D03*
X2637500Y1233600D03*
X2525000Y2433600D03*
X2637500Y1133600D03*
X2525000Y2133600D03*
X1418750Y2333600D03*
X2231250Y933600D03*
X1918750Y3114850D03*
X1618750Y3114850D03*
X2562500Y4427350D03*
X1562500Y4552350D03*
X2212500Y3114850D03*
X2362500Y4427350D03*
X1418750Y3114850D03*
X1718750Y3114850D03*
X1518750Y3114850D03*
X929675Y1858600D03*
D18*
X929675Y1858600D03*
D13*
X2562500Y4552350D03*
X2662500Y4427350D03*
X1662500Y4552350D03*
X2812500Y3114850D03*
X2362500Y4552350D03*
X2462500Y4552350D03*
X2262500Y4427350D03*
X1862500Y4552350D03*
X1562500Y4427350D03*
X1818750Y3114850D03*
X1762500Y4552350D03*
X2062500Y4427350D03*
X2262500Y4552350D03*
X1662500Y4427350D03*
X2062500Y4552350D03*
X1462500Y4427350D03*
D18*
X1462500Y4427350D03*
D13*
X2412500Y3114850D03*
X2360925Y3414850D03*
D18*
X2360925Y3414850D03*
D13*
X1862500Y4427350D03*
X2162500Y4552350D03*
X1762500Y4427350D03*
X1962500Y4427350D03*
X1362500Y4427350D03*
X2754675Y2664850D03*
X2912500Y3114850D03*
X2162500Y4427350D03*
X2512500Y3114850D03*
X2018750Y3114850D03*
X1462500Y4552350D03*
D18*
X1462500Y4552350D03*
D13*
X2462500Y4427350D03*
X2517175Y1733600D03*
X1692175Y3414850D03*
D18*
X1692175Y3414850D03*
D13*
X2712500Y3114850D03*
X2662500Y4552350D03*
X1704675Y1733600D03*
X2110925Y1733600D03*
X2835925Y1733600D03*
X2612500Y3114850D03*
X1362500Y4552350D03*
X2312500Y3114850D03*
X1962500Y4552350D03*
D19*
X1031250Y6333600D03*
X2131250Y6333600D03*
X3125000Y4433600D03*
X331250Y6333600D03*
X2031250Y6333600D03*
X1831250Y6333600D03*
X3125000Y3977350D03*
X1125000Y3133600D03*
X793750Y4171100D03*
D15*
X793750Y4171100D03*
D19*
X918750Y3633600D03*
X2631250Y6333600D03*
X381250Y4652350D03*
X431250Y6333600D03*
X1531250Y6333600D03*
X3131250Y6333600D03*
X1931250Y6333600D03*
X531250Y6333600D03*
X1231250Y6333600D03*
X631250Y6333600D03*
X268750Y3133600D03*
X1631250Y6333600D03*
X137500Y3133600D03*
X1331250Y6333600D03*
X931250Y6333600D03*
X281250Y4652350D03*
X2931250Y6333600D03*
X1275000Y2682025D03*
X2531250Y6333600D03*
X2331250Y6333600D03*
X2231250Y6333600D03*
X993750Y1633600D03*
D15*
X993750Y1633600D03*
D19*
X2831250Y6333600D03*
X731250Y6333600D03*
X831250Y6333600D03*
X2731250Y6333600D03*
X181250Y4652350D03*
X706250Y583600D03*
D15*
X706250Y583600D03*
D19*
X1131250Y6333600D03*
X231250Y6333600D03*
X2431250Y6333600D03*
X3031250Y6333600D03*
X1431250Y6333600D03*
X1731250Y6333600D03*
X1018750Y3633600D03*
D21*
X1004675Y2846100D03*
D16*
X1004675Y2846100D03*
D21*
X1418750Y2814850D03*
X2937500Y627350D03*
X2937500Y427350D03*
X2937500Y327350D03*
X906250Y4552350D03*
X2937500Y227350D03*
X2212500Y2814850D03*
X2937500Y527350D03*
D23*
X556250Y1733600D03*
X2637500Y1533600D03*
X1825000Y1533600D03*
X2525000Y2533600D03*
X1418750Y2633600D03*
X556250Y2583600D03*
X1968750Y2633600D03*
X2231250Y1533600D03*
X1418750Y1533600D03*
D25*
X2557825Y2664850D03*
X2164075Y3414850D03*
X1914075Y1733600D03*
D18*
X1914075Y1733600D03*
D25*
X1495325Y3414850D03*
X2762500Y4427350D03*
X2762500Y4552350D03*
X2320325Y1733600D03*
D18*
X2320325Y1733600D03*
D25*
X1507825Y1733600D03*
D18*
X1507825Y1733600D03*
D25*
X732825Y1858600D03*
X2639075Y1733600D03*
D18*
X2639075Y1733600D03*
D13*
X2018750Y3233600D03*
D27*
X2912500Y3052350D02*
X2762500Y2871100D01*
X1418750Y2333600D02*
X1468750Y2333600D01*
X1018750Y3308600D02*
X1125000Y3202350D01*
X1562500Y1352350D02*
X1512500Y1389850D01*
X2856250Y1458600D02*
X2856250Y1602350D01*
X1418750Y1433600D02*
X1468750Y1433600D01*
X3131250Y3364850D02*
X3131250Y3196100D01*
X2812500Y2714850D02*
X2812500Y2614850D01*
X1718750Y2814850D02*
X1718750Y2914850D01*
X2881250Y1433600D02*
X2937500Y1433600D01*
X2562500Y2971100D02*
X2512500Y2914850D01*
X1468750Y2333600D02*
X1487500Y2352350D01*
X2512500Y2914850D02*
X2412500Y2914850D01*
X1325000Y1664850D02*
X1325000Y1552350D01*
X743750Y2083600D02*
X743750Y2733600D01*
X1012500Y1789850D02*
X1012500Y1946100D01*
X2637500Y2727350D02*
X2637500Y2471100D01*
X743750Y2083600D02*
X743750Y2039850D01*
X2693750Y2708600D02*
X2712500Y2727350D01*
X2856250Y1308600D02*
X2856250Y796100D01*
X1918750Y3296100D02*
X1918750Y3321100D01*
X2475000Y1433600D02*
X2531250Y1433600D01*
X781250Y1646100D02*
X781250Y1771100D01*
X2625000Y2133600D02*
X2681250Y2083600D01*
X2712500Y2727350D02*
X2712500Y2814850D01*
X2706250Y2571100D02*
X2693750Y2596100D01*
X1487500Y2721100D02*
X1475000Y2746100D01*
X1618750Y2814850D02*
X1618750Y2914850D01*
X1125000Y1733600D02*
X1187500Y1733600D01*
X2762500Y2758600D02*
X2812500Y2714850D01*
X2662500Y2333600D02*
X2712500Y2283600D01*
X1931250Y1164850D02*
X1987500Y1083600D01*
X2125000Y1433600D02*
X2181250Y1483600D01*
X1512500Y2083600D02*
X1362500Y2083600D01*
X2181250Y1483600D02*
X2181250Y1714850D01*
X1681250Y1383600D02*
X1781250Y1383600D01*
X2231250Y833600D02*
X2125000Y933600D01*
X1518750Y2914850D02*
X1518750Y2814850D01*
X1187500Y1733600D02*
X1200000Y1746100D01*
X856250Y1633600D02*
X793750Y1633600D01*
X2762500Y2571100D02*
X2762500Y2352350D01*
X812500Y1808600D02*
X781250Y1771100D01*
X806250Y2483600D02*
X787500Y2483600D01*
X1587500Y1458600D02*
X1587500Y1277350D01*
X1125000Y3202350D02*
X1125000Y3133600D01*
X1656250Y1371100D02*
X1681250Y1383600D01*
X2856250Y1308600D02*
X2881250Y1333600D01*
X3087500Y3177350D02*
X3093750Y3152350D01*
X1612500Y1571100D02*
X1612500Y1289850D01*
X3000000Y3102350D02*
X3000000Y3364850D01*
X556250Y2383600D02*
X556250Y2283600D01*
X1468750Y1433600D02*
X1612500Y1683600D01*
X1600000Y3233600D02*
X1600000Y3514850D01*
X2600000Y2433600D02*
X2525000Y2433600D01*
X1912500Y833600D02*
X1856250Y883600D01*
X687500Y1989850D02*
X687500Y1946100D01*
X2562500Y3177350D02*
X2562500Y2971100D01*
X2856250Y1458600D02*
X2881250Y1433600D01*
X2125000Y833600D02*
X1912500Y833600D01*
X556250Y1802350D02*
X556250Y1733600D01*
X2812500Y2614850D02*
X2762500Y2571100D01*
X3093750Y3321100D02*
X3087500Y3296100D01*
X1200000Y3221100D02*
X1087500Y3333600D01*
X2781250Y2233600D02*
X2825000Y2233600D01*
X2812500Y3402350D02*
X2812500Y3208600D01*
X1600000Y2533600D02*
X1600000Y2752350D01*
X1487500Y1333600D02*
X1487500Y1183600D01*
X2806250Y1646100D02*
X2806250Y983600D01*
X2762500Y2352350D02*
X2781250Y2333600D01*
X2312500Y3114850D02*
X2412500Y3114850D01*
X2925000Y2133600D02*
X2987500Y2133600D01*
X1868750Y1033600D02*
X1887500Y1008600D01*
X1887500Y933600D02*
X1937500Y883600D01*
X1012500Y1946100D02*
X1000000Y1958600D01*
X1768750Y3027350D02*
X1768750Y1814850D01*
X1562500Y1233600D02*
X1562500Y1352350D01*
X2637500Y2471100D02*
X2600000Y2433600D01*
X2987500Y2133600D02*
X3006250Y2133600D01*
X2625000Y1946100D02*
X2625000Y1871100D01*
X856250Y2483600D02*
X806250Y2483600D01*
X1306250Y1133600D02*
X1306250Y1233600D01*
X1600000Y2008600D02*
X1568750Y1983600D01*
X2681250Y2083600D02*
X2681250Y1871100D01*
X1931250Y1214850D02*
X1931250Y1164850D01*
X1887500Y1008600D02*
X1887500Y933600D01*
X1568750Y1983600D02*
X1325000Y1983600D01*
X793750Y1633600D02*
X781250Y1646100D01*
X2712500Y2283600D02*
X2712500Y2139850D01*
X1587500Y1277350D02*
X1606250Y1252350D01*
X2781250Y2333600D02*
X2825000Y2333600D01*
X1543750Y2433600D02*
X1543750Y2114850D01*
X1037500Y1733600D02*
X1037500Y1983600D01*
X1418750Y3039850D02*
X1618750Y3039850D01*
X2718750Y1433600D02*
X2718750Y1283600D01*
X2812500Y3114850D02*
X2812500Y3052350D01*
X2693750Y2596100D02*
X2693750Y2708600D01*
X2368750Y2427350D02*
X2481250Y2533600D01*
X1568750Y1483600D02*
X1587500Y1458600D01*
X1825000Y1233600D02*
X1912500Y1233600D01*
X3087500Y3296100D02*
X3087500Y3177350D01*
X1918750Y3233600D02*
X1918750Y3296100D01*
X1343750Y1533600D02*
X1418750Y1533600D01*
X1487500Y2352350D02*
X1487500Y2721100D01*
X1718750Y3233600D02*
X1718750Y3296100D01*
X2525000Y2333600D02*
X2662500Y2333600D01*
X2093750Y2358600D02*
X2075000Y2333600D01*
X1200000Y1746100D02*
X1200000Y3221100D01*
X2625000Y2233600D02*
X2575000Y2183600D01*
X856250Y2383600D02*
X806250Y2383600D01*
X1718750Y3296100D02*
X1718750Y3321100D01*
X1718750Y2533600D02*
X1600000Y2533600D01*
X2812500Y3052350D02*
X2662500Y2871100D01*
X2881250Y1333600D02*
X2937500Y1333600D01*
X687500Y1946100D02*
X556250Y1802350D01*
X556250Y2983600D02*
X556250Y2583600D01*
X1781250Y1383600D02*
X1825000Y1333600D01*
X1418750Y3114850D02*
X1418750Y3039850D01*
X650000Y1964850D02*
X625000Y1933600D01*
X2756250Y2083600D02*
X2756250Y2208600D01*
X2075000Y2333600D02*
X1968750Y2333600D01*
X3056250Y3102350D02*
X3056250Y3364850D01*
X743750Y2039850D02*
X812500Y1902350D01*
X1975000Y1183600D02*
X1975000Y1333600D01*
X1768750Y883600D02*
X1718750Y933600D01*
X1900000Y1133600D02*
X1937500Y1083600D01*
X1600000Y2533600D02*
X1600000Y2008600D01*
X1825000Y1033600D02*
X1868750Y1033600D01*
X1775000Y1483600D02*
X1775000Y1721100D01*
X2756250Y2208600D02*
X2781250Y2233600D01*
X1325000Y1552350D02*
X1343750Y1533600D01*
X1912500Y1233600D02*
X1931250Y1214850D01*
X1018750Y3308600D02*
X1018750Y3533600D01*
X806250Y2383600D02*
X787500Y2383600D01*
X2481250Y2533600D02*
X2525000Y2533600D01*
X2912500Y3114850D02*
X2912500Y3052350D01*
X650000Y2183600D02*
X650000Y1964850D01*
X1856250Y883600D02*
X1768750Y883600D01*
X2037500Y1233600D02*
X2037500Y1383600D01*
X2450000Y1589850D02*
X2450000Y1458600D01*
X1600000Y2752350D02*
X1568750Y2783600D01*
X2212500Y3114850D02*
X2312500Y3114850D01*
X1650000Y1239850D02*
X1650000Y1033600D01*
X1362500Y2083600D02*
X1325000Y2052350D01*
X2450000Y1458600D02*
X2475000Y1433600D01*
X3187500Y3164850D02*
X3162500Y3139850D01*
X1568750Y2783600D02*
X1568750Y2871100D01*
X1000000Y2083600D02*
X1000000Y1958600D01*
X1618750Y3039850D02*
X1618750Y2914850D01*
X2762500Y2871100D02*
X2762500Y2758600D01*
X1825000Y1133600D02*
X1900000Y1133600D01*
X2662500Y2752350D02*
X2637500Y2727350D01*
X2093750Y2752350D02*
X2093750Y2358600D01*
X2662500Y2871100D02*
X2662500Y2752350D01*
X1606250Y1252350D02*
X1606250Y1133600D01*
X1087500Y3333600D02*
X1087500Y3408600D01*
X1418750Y3039850D02*
X1418750Y2914850D01*
X2981250Y1233600D02*
X2993750Y1246100D01*
X3187500Y3364850D02*
X3187500Y3164850D01*
X1825000Y1658600D02*
X1825000Y1533600D01*
X812500Y1902350D02*
X812500Y1808600D01*
X2925000Y2033600D02*
X2987500Y2033600D01*
X2993750Y1246100D02*
X2993750Y1558600D01*
X2912500Y3402350D02*
X2912500Y3114850D01*
X1937500Y1083600D02*
X1937500Y983600D01*
X1543750Y2114850D02*
X1512500Y2083600D01*
X2993750Y1558600D02*
X2981250Y1589850D01*
X2575000Y2183600D02*
X2575000Y1983600D01*
X1718750Y1433600D02*
X1775000Y1483600D01*
X1418750Y2914850D02*
X1418750Y2814850D01*
X993750Y1764850D02*
X1012500Y1789850D01*
X656250Y2733600D02*
X656250Y2483600D01*
X1612500Y1289850D02*
X1650000Y1239850D01*
X2937500Y1233600D02*
X2981250Y1233600D01*
X2118750Y2789850D02*
X2093750Y2752350D01*
X2987500Y2033600D02*
X3006250Y2033600D01*
X2575000Y1983600D02*
X2625000Y1946100D01*
D29*
X681250Y1733600D02*
X681250Y1808600D01*
X681250Y1808600D02*
X732825Y1858600D01*
D31*
X887500Y2846100D02*
X887500Y2608600D01*
X887500Y2608600D02*
X856250Y2583600D01*
X887500Y2846100D02*
X807825Y2846100D01*
X887500Y3227350D02*
X887500Y2846100D01*
D10*
X2923425Y1571100D02*
X2918750Y1646100D01*
X1825000Y696100D02*
X1825000Y833600D01*
X2231250Y833600D02*
X2231250Y696100D01*
X2637500Y833600D02*
X2637500Y696100D01*
X2110925Y1658600D02*
X2125000Y1633600D01*
X2018750Y2814850D02*
X2018750Y3027350D01*
X2100000Y3064850D02*
X2100000Y3214850D01*
X2918750Y1646100D02*
X3168750Y1646100D01*
X2517175Y1733600D02*
X2517175Y1658600D01*
X3168750Y2727350D02*
X2993750Y2727350D01*
X1704675Y1658600D02*
X1718750Y1621100D01*
X1704675Y1733600D02*
X1704675Y1658600D01*
X1418750Y1933600D02*
X1418750Y1839850D01*
X2517175Y1658600D02*
X2531250Y1627350D01*
X1418750Y696100D02*
X1418750Y833600D01*
X2018750Y3027350D02*
X2100000Y3064850D01*
X2110925Y1733600D02*
X2110925Y1658600D01*
X1718750Y1621100D02*
X1718750Y1533600D01*
X2531250Y1627350D02*
X2531250Y1533600D01*
X2125000Y1533600D02*
X2125000Y1633600D01*
X2918750Y1646100D02*
X2835925Y1733600D01*
X2937500Y1533600D02*
X2923425Y1571100D01*
D33*
X3206250Y6133600D02*
X3131250Y6133600D01*
X168750Y5046100D02*
X50000Y5046100D01*
X50000Y5046100D02*
X50000Y6083600D01*
X3256250Y6083600D02*
X3256250Y5083600D01*
X118750Y6296100D02*
X162500Y6333600D01*
X3206250Y5033600D02*
X3131250Y5033600D01*
X50000Y5046100D02*
X50000Y4777350D01*
X118750Y4871100D02*
X156250Y4833600D01*
X162500Y6333600D02*
X231250Y6333600D01*
X1968750Y1933600D02*
X1968750Y1839850D01*
X156250Y4833600D02*
X231250Y4833600D01*
X3206250Y6133600D02*
X3256250Y6083600D01*
X118750Y4983600D02*
X118750Y4871100D01*
X50000Y6083600D02*
X93750Y6121100D01*
X93750Y6121100D02*
X168750Y6121100D01*
X231250Y5033600D02*
X168750Y5046100D01*
X50000Y4777350D02*
X181250Y4652350D01*
X118750Y6189850D02*
X118750Y6296100D01*
X2525000Y1933600D02*
X2525000Y1846100D01*
X3256250Y5083600D02*
X3206250Y5033600D01*
X418750Y333600D02*
X418750Y3439850D01*
X168750Y6121100D02*
X231250Y6133600D01*
D35*
X181250Y4552350D02*
X181250Y4452350D01*
M02*
