%FSLAX46Y46*%
%MOIN*%
G01*
G75*
%ADD10C,0.063000*%
%AMRECT11*21,1,0.063000,0.063000,0.0,0.0,0.000000*%
%ADD11RECT11*%
%AMRECT12*21,1,0.063000,0.063000,0.0,0.0,-90.000000*%
%ADD12RECT12*%
%AMRECT13*21,1,0.063000,0.063000,0.0,0.0,-180.000000*%
%ADD13RECT13*%
%AMRECT14*21,1,0.063000,0.063000,0.0,0.0,-270.000000*%
%ADD14RECT14*%
%ADD15C,0.010000*%
D10*
X1818750Y1933600D03*
X950000Y2483600D03*
X2625000Y2233600D03*
X2368750Y1927350D03*
X1818750Y2233600D03*
X1818750Y2333600D03*
X2925000Y2033600D03*
X2625000Y2033600D03*
X2368750Y2127350D03*
X1818750Y2033600D03*
X1818750Y2133600D03*
X1818750Y2433600D03*
X2368750Y2327350D03*
X2925000Y1933600D03*
X2625000Y2133600D03*
X2368750Y2027350D03*
X2368750Y2227350D03*
X2925000Y2133600D03*
X950000Y2283600D03*
X950000Y2383600D03*
X1718750Y3233600D03*
X1418750Y2914850D03*
X1818750Y3233600D03*
X2512500Y2914850D03*
X1618750Y2914850D03*
X1518750Y2914850D03*
X1918750Y3233600D03*
X1718750Y2914850D03*
X2412500Y2914850D03*
X2412500Y3227350D03*
X2512500Y3227350D03*
X2312500Y3227350D03*
X2212500Y2914850D03*
X2131250Y5433600D03*
X2231250Y6233600D03*
X1131250Y5333600D03*
X231250Y6133600D03*
X1131250Y5033600D03*
X2031250Y5633600D03*
X3131250Y5633600D03*
X3031250Y5533600D03*
X2831250Y6033600D03*
X1931250Y5333600D03*
X137500Y1133600D03*
X2731250Y5233600D03*
X831250Y6033600D03*
X631250Y5233600D03*
X1331250Y5133600D03*
X1718750Y1033600D03*
X1125000Y733600D03*
X1431250Y6233600D03*
X1718750Y2533600D03*
X268750Y833600D03*
X1431250Y5533600D03*
X918750Y3533600D03*
X1831250Y5433600D03*
X2231250Y5633600D03*
X831250Y5433600D03*
X1125000Y2833600D03*
X2268750Y2233600D03*
X993750Y1333600D03*
X2031250Y5933600D03*
X268750Y2133600D03*
X2931250Y5233600D03*
X2831250Y4933600D03*
X268750Y1133600D03*
X1125000Y333600D03*
X231250Y5233600D03*
X2937500Y1333600D03*
X2631250Y5033600D03*
X2631250Y5533600D03*
X3031250Y5933600D03*
X1031250Y4833600D03*
X1431250Y5933600D03*
X2031250Y5233600D03*
X268750Y1033600D03*
X1731250Y5133600D03*
X1718750Y2033600D03*
X1718750Y833600D03*
X2731250Y5533600D03*
X1931250Y4933600D03*
X2937500Y833600D03*
X3131250Y4933600D03*
X631250Y5033600D03*
X2125000Y1133600D03*
X1131250Y4933600D03*
X1331250Y6233600D03*
X2531250Y1533600D03*
X1631250Y5433600D03*
X268750Y2333600D03*
X3031250Y4933600D03*
X1731250Y6033600D03*
X1831250Y5233600D03*
X431250Y5433600D03*
X2831250Y6133600D03*
X2931250Y4933600D03*
X331250Y5933600D03*
X2531250Y6033600D03*
X1031250Y5533600D03*
X3131250Y4833600D03*
X1231250Y5233600D03*
X1731250Y5633600D03*
X2931250Y5733600D03*
X2825000Y2233600D03*
X2931250Y5033600D03*
X1331250Y6133600D03*
X137500Y433600D03*
X2931250Y5833600D03*
X631250Y5733600D03*
X731250Y5833600D03*
X231250Y5533600D03*
X2231250Y5333600D03*
X137500Y1233600D03*
X1531250Y5733600D03*
X2268750Y1933600D03*
X137500Y333600D03*
X531250Y6233600D03*
X1931250Y5233600D03*
X1131250Y6133600D03*
X1125000Y1133600D03*
X2531250Y5133600D03*
X1931250Y6033600D03*
X2231250Y5233600D03*
X431250Y5733600D03*
X231250Y5633600D03*
X1931250Y5133600D03*
X2531250Y1133600D03*
X1831250Y6033600D03*
X531250Y5933600D03*
X2531250Y5633600D03*
X3031250Y5733600D03*
X1231250Y5933600D03*
X2831250Y5933600D03*
X2331250Y6233600D03*
X1931250Y5833600D03*
X268750Y3033600D03*
X831250Y5933600D03*
X1718750Y1333600D03*
X137500Y1533600D03*
X2231250Y6033600D03*
X2031250Y5033600D03*
X1931250Y5033600D03*
X731250Y5233600D03*
X1931250Y5533600D03*
X268750Y633600D03*
X268750Y2033600D03*
X431250Y6133600D03*
X231250Y5833600D03*
X431250Y5233600D03*
X1125000Y1233600D03*
X856250Y2083600D03*
X2431250Y5333600D03*
X2531250Y933600D03*
X2931250Y6133600D03*
X1531250Y4933600D03*
X2931250Y5133600D03*
X2931250Y4833600D03*
X3031250Y5433600D03*
X1031250Y5333600D03*
X2331250Y5633600D03*
X1125000Y433600D03*
X2431250Y5433600D03*
X2231250Y4933600D03*
X2331250Y5033600D03*
X2268750Y2533600D03*
X1531250Y5333600D03*
X631250Y5333600D03*
X1331250Y5933600D03*
X1831250Y5733600D03*
X268750Y733600D03*
X1331250Y5733600D03*
X2431250Y5633600D03*
X1931250Y6133600D03*
X1131250Y6233600D03*
X3125000Y4333600D03*
X631250Y5533600D03*
X1231250Y6233600D03*
X2831250Y5633600D03*
X1531250Y6033600D03*
X3031250Y5033600D03*
X331250Y5633600D03*
X137500Y633600D03*
X1931250Y5633600D03*
X3031250Y6233600D03*
X2731250Y5033600D03*
X731250Y5533600D03*
X3131250Y6033600D03*
X3131250Y5733600D03*
X2431250Y5533600D03*
X2431250Y4833600D03*
X1831250Y4833600D03*
X268750Y1533600D03*
X2231250Y6133600D03*
X631250Y5433600D03*
X993750Y933600D03*
X831250Y6133600D03*
X1431250Y5433600D03*
X1831250Y5833600D03*
X856250Y1983600D03*
X331250Y4933600D03*
X2431250Y5933600D03*
X1231250Y5633600D03*
X1718750Y2433600D03*
X1731250Y4933600D03*
X268750Y1733600D03*
X2031250Y4933600D03*
X1718750Y1433600D03*
X137500Y2633600D03*
X2731250Y5633600D03*
X1125000Y1533600D03*
X3031250Y5833600D03*
X631250Y6033600D03*
X1731250Y5933600D03*
X1931250Y5933600D03*
X2931250Y5333600D03*
X2131250Y5233600D03*
X631250Y4833600D03*
X2825000Y2333600D03*
X1631250Y5033600D03*
X1718750Y2633600D03*
X1531250Y5533600D03*
X2431250Y5833600D03*
X2031250Y5333600D03*
X2131250Y5833600D03*
X137500Y2933600D03*
X1131250Y5833600D03*
X331250Y6133600D03*
X1631250Y5633600D03*
X331250Y6033600D03*
X856250Y1233600D03*
X1631250Y5533600D03*
X1125000Y633600D03*
X1731250Y5233600D03*
X1718750Y1133600D03*
X1831250Y5533600D03*
X3125000Y3577350D03*
X1531250Y5833600D03*
X431250Y6233600D03*
X731250Y5633600D03*
X1031250Y5733600D03*
X856250Y2383600D03*
X3125000Y3777350D03*
X2268750Y2633600D03*
X2731250Y6233600D03*
X731250Y5333600D03*
X2631250Y5833600D03*
X831250Y4933600D03*
X2531250Y5233600D03*
X1431250Y5233600D03*
X1231250Y4833600D03*
X931250Y6133600D03*
X2131250Y5733600D03*
X3031250Y4833600D03*
X856250Y1733600D03*
X931250Y5333600D03*
X2531250Y833600D03*
X137500Y1933600D03*
X1125000Y1933600D03*
X2125000Y833600D03*
X2531250Y4933600D03*
X1331250Y4833600D03*
X2131250Y6033600D03*
X1031250Y6233600D03*
X2937500Y1233600D03*
X631250Y5933600D03*
X993750Y1433600D03*
X2631250Y5233600D03*
X1331250Y4933600D03*
X2131250Y4933600D03*
X431250Y5633600D03*
X1531250Y5933600D03*
X1331250Y5333600D03*
X137500Y1633600D03*
X268750Y933600D03*
X137500Y2133600D03*
X2531250Y6233600D03*
X993750Y1133600D03*
X331250Y6233600D03*
X1731250Y4833600D03*
X2937500Y1033600D03*
X1125000Y233600D03*
X268750Y2533600D03*
X2731250Y4933600D03*
X531250Y5533600D03*
X1531250Y5633600D03*
X2231250Y5133600D03*
X1131250Y5633600D03*
X2431250Y5733600D03*
X431250Y4933600D03*
X2931250Y5533600D03*
X1631250Y5133600D03*
X1125000Y933600D03*
X2831250Y5533600D03*
X1718750Y1233600D03*
X137500Y3033600D03*
X531250Y6033600D03*
X2631250Y4933600D03*
X3125000Y4233600D03*
X3031250Y6033600D03*
X2937500Y933600D03*
X1031250Y5933600D03*
X831250Y5833600D03*
X268750Y2233600D03*
X1125000Y3033600D03*
X931250Y5733600D03*
X431250Y5833600D03*
X856250Y933600D03*
X1631250Y6133600D03*
X331250Y4833600D03*
X1031250Y5133600D03*
X2331250Y5433600D03*
X856250Y833600D03*
X831250Y4833600D03*
X1331250Y5233600D03*
X2931250Y5633600D03*
X331250Y5533600D03*
X2331250Y4833600D03*
X531250Y5133600D03*
X531250Y5733600D03*
X993750Y1233600D03*
X1031250Y5633600D03*
X856250Y1433600D03*
X1031250Y5033600D03*
X331250Y5833600D03*
X2531250Y5333600D03*
X1125000Y1433600D03*
X2825000Y2433600D03*
X631250Y4933600D03*
X268750Y1833600D03*
X931250Y6233600D03*
X2431250Y5233600D03*
X831250Y5133600D03*
X268750Y2633600D03*
X1031250Y6133600D03*
X2937500Y1433600D03*
X1331250Y6033600D03*
X331250Y5133600D03*
X1331250Y5633600D03*
X2268750Y2033600D03*
X231250Y5033600D03*
X1731250Y5733600D03*
X268750Y1933600D03*
X137500Y1333600D03*
X137500Y1033600D03*
X2031250Y5133600D03*
X2431250Y6233600D03*
X137500Y2433600D03*
X2831250Y6233600D03*
X2125000Y1033600D03*
X731250Y5733600D03*
X931250Y5933600D03*
X1331250Y5533600D03*
X3125000Y3877350D03*
X2231250Y5033600D03*
X1531250Y5033600D03*
X2431250Y5133600D03*
X2531250Y5833600D03*
X1231250Y4933600D03*
X2331250Y5833600D03*
X2125000Y933600D03*
X2331250Y4933600D03*
X1031250Y5433600D03*
X1125000Y533600D03*
X1631250Y5833600D03*
X2731250Y5733600D03*
X731250Y5033600D03*
X331250Y5433600D03*
X1831250Y5633600D03*
X1631250Y5333600D03*
X2331250Y5533600D03*
X1231250Y5133600D03*
X1231250Y5833600D03*
X1431250Y5133600D03*
X1431250Y5633600D03*
X1431250Y5333600D03*
X831250Y5633600D03*
X1131250Y4833600D03*
X1718750Y933600D03*
X3125000Y3677350D03*
X731250Y5433600D03*
X2231250Y5533600D03*
X2431250Y6033600D03*
X2531250Y5033600D03*
X2331250Y5233600D03*
X856250Y1333600D03*
X268750Y433600D03*
X1731250Y5533600D03*
X231250Y6233600D03*
X137500Y2733600D03*
X431250Y5033600D03*
X2431250Y5033600D03*
X631250Y5133600D03*
X1831250Y5133600D03*
X2731250Y6033600D03*
X3031250Y5233600D03*
X1731250Y5033600D03*
X2831250Y5233600D03*
X1131250Y5133600D03*
X1331250Y5433600D03*
X1131250Y5233600D03*
X431250Y5533600D03*
X931250Y5633600D03*
X2531250Y4833600D03*
X2937500Y1533600D03*
X2731250Y5933600D03*
X1831250Y4933600D03*
X231250Y5433600D03*
X268750Y1333600D03*
X1431250Y4933600D03*
X2031250Y5533600D03*
X2231250Y4833600D03*
X137500Y933600D03*
X1231250Y5433600D03*
X931250Y5433600D03*
X2031250Y5433600D03*
X531250Y4833600D03*
X1125000Y2033600D03*
X731250Y6133600D03*
X2731250Y5133600D03*
X531250Y5333600D03*
X831250Y5233600D03*
X1631250Y6033600D03*
X2268750Y2333600D03*
X2531250Y5433600D03*
X1931250Y5433600D03*
X1431250Y4833600D03*
X2131250Y6233600D03*
X1431250Y6133600D03*
X3131250Y5233600D03*
X2231250Y5833600D03*
X231250Y5133600D03*
X1018750Y3533600D03*
X931250Y4833600D03*
X631250Y6133600D03*
X2125000Y1533600D03*
X2331250Y5333600D03*
X2631250Y5133600D03*
X1718750Y2233600D03*
X3131250Y6233600D03*
X1231250Y5533600D03*
X137500Y233600D03*
X2937500Y1133600D03*
X2531250Y1033600D03*
X431250Y5133600D03*
X631250Y6233600D03*
X1131250Y5433600D03*
X1531250Y6233600D03*
X431250Y5333600D03*
X268750Y1233600D03*
X856250Y2183600D03*
X281250Y4552350D03*
X856250Y2283600D03*
X3131250Y5133600D03*
X856250Y2483600D03*
X1831250Y5933600D03*
X2431250Y6133600D03*
X1231250Y5333600D03*
X3131250Y5533600D03*
X3031250Y5133600D03*
X2831250Y5833600D03*
X731250Y4833600D03*
X1231250Y5033600D03*
X1131250Y5533600D03*
X1431250Y6033600D03*
X137500Y1833600D03*
X2125000Y1233600D03*
X1731250Y6233600D03*
X181250Y4552350D03*
X1931250Y4833600D03*
X1275000Y2485175D03*
X3131250Y5033600D03*
X2531250Y1433600D03*
X231250Y4933600D03*
X137500Y733600D03*
X2125000Y1333600D03*
X2831250Y5033600D03*
X931250Y5233600D03*
X2331250Y5933600D03*
X856250Y1633600D03*
X2131250Y5633600D03*
X2631250Y5633600D03*
X1631250Y5933600D03*
X2831250Y5733600D03*
X1231250Y5733600D03*
X993750Y833600D03*
X331250Y5333600D03*
X1631250Y6233600D03*
X2531250Y6133600D03*
X1431250Y5033600D03*
X231250Y5733600D03*
X731250Y6033600D03*
X1718750Y2133600D03*
X1831250Y6133600D03*
X268750Y2833600D03*
X1831250Y5333600D03*
X1718750Y2333600D03*
X3131250Y6133600D03*
X2531250Y5933600D03*
X856250Y1533600D03*
X268750Y533600D03*
X831250Y6233600D03*
X1631250Y4833600D03*
X2131250Y5033600D03*
X1125000Y2333600D03*
X931250Y6033600D03*
X2131250Y5333600D03*
X1331250Y5833600D03*
X2031250Y5833600D03*
X1125000Y1733600D03*
X1031250Y5833600D03*
X2531250Y5733600D03*
X2731250Y5833600D03*
X1431250Y5833600D03*
X268750Y2933600D03*
X2131250Y4833600D03*
X1831250Y5033600D03*
X631250Y5833600D03*
X531250Y5833600D03*
X531250Y5633600D03*
X1125000Y2733600D03*
X631250Y5633600D03*
X2331250Y5133600D03*
X931250Y5533600D03*
X2831250Y5133600D03*
X431250Y4833600D03*
X1531250Y5433600D03*
X2831250Y4833600D03*
X231250Y5933600D03*
X331250Y5233600D03*
X1125000Y2233600D03*
X1231250Y6033600D03*
X731250Y5933600D03*
X1431250Y5733600D03*
X2831250Y5433600D03*
X531250Y5233600D03*
X831250Y5033600D03*
X2631250Y6133600D03*
X2631250Y5333600D03*
X2631250Y5433600D03*
X2731250Y5333600D03*
X2268750Y2433600D03*
X793750Y4071100D03*
X1125000Y1833600D03*
X2631250Y6033600D03*
X2031250Y6033600D03*
X3125000Y4133600D03*
X1631250Y5733600D03*
X1631250Y4933600D03*
X1131250Y5733600D03*
X137500Y1733600D03*
X993750Y1533600D03*
X2031250Y6133600D03*
X2731250Y5433600D03*
X2631250Y5733600D03*
X1125000Y833600D03*
X531250Y6133600D03*
X431250Y5933600D03*
X1718750Y1933600D03*
X137500Y833600D03*
X137500Y2833600D03*
X268750Y1433600D03*
X331250Y5733600D03*
X856250Y1033600D03*
X1731250Y6133600D03*
X2531250Y1333600D03*
X856250Y2583600D03*
X1125000Y2533600D03*
X2531250Y1233600D03*
X137500Y2233600D03*
X2231250Y5933600D03*
X1131250Y6033600D03*
X2631250Y6233600D03*
X2731250Y4833600D03*
X137500Y1433600D03*
X931250Y4933600D03*
X231250Y5333600D03*
X268750Y333600D03*
X1731250Y5433600D03*
X231250Y4833600D03*
X1125000Y2433600D03*
X1531250Y4833600D03*
X3131250Y5933600D03*
X2831250Y5333600D03*
X2825000Y2133600D03*
X831250Y5333600D03*
X931250Y5833600D03*
X2531250Y5533600D03*
X231250Y6033600D03*
X1931250Y5733600D03*
X268750Y233600D03*
X2131250Y6133600D03*
X1531250Y5133600D03*
X2931250Y5933600D03*
X731250Y6233600D03*
X2131250Y5533600D03*
X1125000Y1633600D03*
X2631250Y5933600D03*
X137500Y533600D03*
X731250Y4933600D03*
X831250Y5733600D03*
X731250Y5133600D03*
X2131250Y5933600D03*
X137500Y2333600D03*
X531250Y5433600D03*
X268750Y2433600D03*
X3131250Y5433600D03*
X531250Y4933600D03*
X2431250Y4933600D03*
X137500Y2533600D03*
X3131250Y5333600D03*
X3031250Y5633600D03*
X856250Y1133600D03*
X2331250Y6033600D03*
X931250Y5133600D03*
X1031250Y4933600D03*
X2931250Y6233600D03*
X2031250Y6233600D03*
X2825000Y1933600D03*
X1718750Y1533600D03*
X1125000Y2933600D03*
X931250Y5033600D03*
X2031250Y5733600D03*
X1931250Y6233600D03*
X1731250Y5333600D03*
X1531250Y6133600D03*
X3131250Y5833600D03*
X531250Y5033600D03*
X2731250Y6133600D03*
X2631250Y4833600D03*
X2268750Y2133600D03*
X2231250Y5733600D03*
X1331250Y5033600D03*
X1131250Y5933600D03*
X1125000Y2633600D03*
X268750Y2733600D03*
X2331250Y6133600D03*
X1125000Y1033600D03*
X3031250Y6133600D03*
X431250Y6033600D03*
X2825000Y2533600D03*
X1531250Y5233600D03*
X2331250Y5733600D03*
X1231250Y6133600D03*
X331250Y5033600D03*
X3125000Y3477350D03*
X1031250Y6033600D03*
X2131250Y5133600D03*
X137500Y2033600D03*
X1125000Y2133600D03*
X381250Y4552350D03*
X706250Y483600D03*
X2931250Y6033600D03*
X1631250Y5233600D03*
X2031250Y4833600D03*
X1831250Y6233600D03*
X2825000Y2033600D03*
X831250Y5533600D03*
X2931250Y5433600D03*
X2231250Y5433600D03*
X2125000Y1433600D03*
X1031250Y5233600D03*
X3031250Y5333600D03*
X1125000Y1333600D03*
X1731250Y5833600D03*
X993750Y1033600D03*
X268750Y1633600D03*
X2362500Y3702350D03*
X1562500Y3702350D03*
X2737500Y627350D03*
X1737500Y427350D03*
X1837500Y427350D03*
X2437500Y627350D03*
X2337500Y227350D03*
X2537500Y627350D03*
X2662500Y3827350D03*
X1537500Y627350D03*
X1437500Y627350D03*
X2037500Y227350D03*
X2637500Y427350D03*
X1437500Y327350D03*
X2837500Y627350D03*
X1937500Y527350D03*
X2637500Y527350D03*
X2037500Y427350D03*
X2037500Y327350D03*
X2262500Y3827350D03*
X1537500Y227350D03*
X2437500Y427350D03*
X2837500Y327350D03*
X1662500Y3827350D03*
X1662500Y3702350D03*
X2162500Y3702350D03*
X1437500Y227350D03*
X1818750Y2814850D03*
X2312500Y2814850D03*
X2537500Y427350D03*
X1537500Y327350D03*
X2562500Y3827350D03*
X2137500Y627350D03*
X1937500Y327350D03*
X2337500Y527350D03*
X2062500Y3702350D03*
X1718750Y2814850D03*
X2462500Y3702350D03*
X2537500Y227350D03*
X1837500Y327350D03*
X1537500Y427350D03*
X2612500Y2814850D03*
X1362500Y3827350D03*
X1618750Y2814850D03*
X2562500Y3702350D03*
X2737500Y227350D03*
X1462500Y3827350D03*
X2018750Y2814850D03*
X2512500Y2814850D03*
X2237500Y527350D03*
X1737500Y627350D03*
X2362500Y3827350D03*
X2437500Y327350D03*
X2062500Y3827350D03*
X1918750Y2814850D03*
X1837500Y227350D03*
X1762500Y3702350D03*
X1562500Y3827350D03*
X2137500Y227350D03*
X1437500Y527350D03*
X2037500Y527350D03*
X2737500Y527350D03*
X2337500Y627350D03*
X2737500Y427350D03*
X2137500Y427350D03*
X2812500Y2814850D03*
X1637500Y427350D03*
X1437500Y427350D03*
X1462500Y3702350D03*
X807825Y2846100D03*
X1862500Y3702350D03*
X1937500Y427350D03*
X2637500Y227350D03*
X1518750Y2814850D03*
X1937500Y227350D03*
X2737500Y327350D03*
X2437500Y227350D03*
X1937500Y627350D03*
X1637500Y327350D03*
X2762500Y3702350D03*
X781250Y4552350D03*
X2912500Y2814850D03*
X2437500Y527350D03*
X1637500Y227350D03*
X2237500Y327350D03*
X2237500Y427350D03*
X2837500Y227350D03*
X2412500Y2814850D03*
X1962500Y3827350D03*
X2837500Y427350D03*
X2237500Y627350D03*
X1737500Y327350D03*
X2762500Y3827350D03*
X1737500Y227350D03*
X2337500Y427350D03*
X1837500Y627350D03*
X2137500Y527350D03*
X1837500Y527350D03*
X1637500Y527350D03*
X2462500Y3827350D03*
X1362500Y3702350D03*
X2537500Y327350D03*
X2537500Y527350D03*
X1962500Y3702350D03*
X2262500Y3702350D03*
X1862500Y3827350D03*
X2712500Y2814850D03*
X1762500Y3827350D03*
X2637500Y327350D03*
X2037500Y627350D03*
X2162500Y3827350D03*
X2837500Y527350D03*
X2237500Y227350D03*
X1537500Y527350D03*
X1637500Y627350D03*
X2337500Y327350D03*
X2662500Y3702350D03*
X1737500Y527350D03*
X2137500Y327350D03*
X2637500Y627350D03*
X1825000Y833600D03*
X1968750Y1933600D03*
X1418750Y2133600D03*
X2637500Y833600D03*
X2525000Y2233600D03*
X1418750Y1133600D03*
X1418750Y1333600D03*
X556250Y1983600D03*
X2231250Y1333600D03*
X556250Y2383600D03*
X1825000Y933600D03*
X1418750Y2033600D03*
X1418750Y2533600D03*
X556250Y2183600D03*
X2231250Y1133600D03*
X1418750Y2433600D03*
X2525000Y1933600D03*
X1825000Y1133600D03*
X1825000Y1233600D03*
X2637500Y933600D03*
X556250Y1633600D03*
X1418750Y1933600D03*
X2231250Y1033600D03*
X2637500Y1433600D03*
X556250Y1233600D03*
X2231250Y833600D03*
X556250Y933600D03*
X2525000Y2033600D03*
X556250Y1033600D03*
X556250Y833600D03*
X2525000Y2333600D03*
X556250Y2283600D03*
X1968750Y2233600D03*
X556250Y2483600D03*
X1968750Y2533600D03*
X2637500Y1033600D03*
X2231250Y1233600D03*
X1825000Y1033600D03*
X556250Y2083600D03*
X1968750Y2433600D03*
X556250Y1333600D03*
X556250Y1533600D03*
X1825000Y1433600D03*
X1418750Y2233600D03*
X556250Y1433600D03*
X1418750Y933600D03*
X1418750Y1433600D03*
X1825000Y1333600D03*
X2231250Y1433600D03*
X1968750Y2133600D03*
X1968750Y2033600D03*
X1418750Y833600D03*
X556250Y1133600D03*
X2637500Y1333600D03*
X1418750Y1233600D03*
X1418750Y1033600D03*
X1968750Y2333600D03*
X2637500Y1233600D03*
X2525000Y2433600D03*
X2637500Y1133600D03*
X2525000Y2133600D03*
X1418750Y2333600D03*
X2231250Y933600D03*
X1918750Y3114850D03*
X1618750Y3114850D03*
X2562500Y4427350D03*
X1562500Y4552350D03*
X2212500Y3114850D03*
X2362500Y4427350D03*
X1418750Y3114850D03*
X1718750Y3114850D03*
X1518750Y3114850D03*
X929675Y1858600D03*
X2562500Y4552350D03*
X2662500Y4427350D03*
X1662500Y4552350D03*
X2812500Y3114850D03*
X2362500Y4552350D03*
X2462500Y4552350D03*
X2262500Y4427350D03*
X1862500Y4552350D03*
X1562500Y4427350D03*
X1818750Y3114850D03*
X1762500Y4552350D03*
X2062500Y4427350D03*
X2262500Y4552350D03*
X1662500Y4427350D03*
X2062500Y4552350D03*
X1462500Y4427350D03*
X2412500Y3114850D03*
X2360925Y3414850D03*
X1862500Y4427350D03*
X2162500Y4552350D03*
X1762500Y4427350D03*
X1962500Y4427350D03*
X1362500Y4427350D03*
X2754675Y2664850D03*
X2912500Y3114850D03*
X2162500Y4427350D03*
X2512500Y3114850D03*
X2018750Y3114850D03*
X1462500Y4552350D03*
X2462500Y4427350D03*
X2517175Y1733600D03*
X1692175Y3414850D03*
X2712500Y3114850D03*
X2662500Y4552350D03*
X1704675Y1733600D03*
X2110925Y1733600D03*
X2835925Y1733600D03*
X2612500Y3114850D03*
X1362500Y4552350D03*
X2312500Y3114850D03*
X1962500Y4552350D03*
D11*
X1031250Y6333600D03*
X2131250Y6333600D03*
X3125000Y4433600D03*
X331250Y6333600D03*
X2031250Y6333600D03*
X1831250Y6333600D03*
X3125000Y3977350D03*
X1125000Y3133600D03*
X793750Y4171100D03*
X918750Y3633600D03*
X2631250Y6333600D03*
X381250Y4652350D03*
X431250Y6333600D03*
X1531250Y6333600D03*
X3131250Y6333600D03*
X1931250Y6333600D03*
X531250Y6333600D03*
X1231250Y6333600D03*
X631250Y6333600D03*
X268750Y3133600D03*
X1631250Y6333600D03*
X137500Y3133600D03*
X1331250Y6333600D03*
X931250Y6333600D03*
X281250Y4652350D03*
X2931250Y6333600D03*
X1275000Y2682025D03*
X2531250Y6333600D03*
X2331250Y6333600D03*
X2231250Y6333600D03*
X993750Y1633600D03*
X2831250Y6333600D03*
X731250Y6333600D03*
X831250Y6333600D03*
X2731250Y6333600D03*
X181250Y4652350D03*
X706250Y583600D03*
X1131250Y6333600D03*
X231250Y6333600D03*
X2431250Y6333600D03*
X3031250Y6333600D03*
X1431250Y6333600D03*
X1731250Y6333600D03*
X1018750Y3633600D03*
D12*
X1004675Y2846100D03*
X1418750Y2814850D03*
X2937500Y627350D03*
X2937500Y427350D03*
X2937500Y327350D03*
X906250Y4552350D03*
X2937500Y227350D03*
X2212500Y2814850D03*
X2937500Y527350D03*
D13*
X556250Y1733600D03*
X2637500Y1533600D03*
X1825000Y1533600D03*
X2525000Y2533600D03*
X1418750Y2633600D03*
X556250Y2583600D03*
X1968750Y2633600D03*
X2231250Y1533600D03*
X1418750Y1533600D03*
D14*
X2557825Y2664850D03*
X2164075Y3414850D03*
X1914075Y1733600D03*
X1495325Y3414850D03*
X2762500Y4427350D03*
X2762500Y4552350D03*
X2320325Y1733600D03*
X1507825Y1733600D03*
X732825Y1858600D03*
X2639075Y1733600D03*
D10*
X2018750Y3233600D03*
D15*
X2925000Y2133600D02*
X2987500Y2133600D01*
X2625000Y1946100D02*
X2625000Y1871100D01*
X2681250Y2083600D02*
X2681250Y1871100D01*
X1918750Y3233600D02*
X1918750Y3296100D01*
X1718750Y3233600D02*
X1718750Y3296100D01*
X2925000Y2033600D02*
X2987500Y2033600D01*
M02*
